<svg width="674" height="932" viewBox="0 0 674 932" fill="none" xmlns="http://www.w3.org/2000/svg">
  <!-- NW Designs Starburst - Radial line pattern -->
  <g opacity="0.8">
    <!-- Central burst of lines -->
    <line x1="337" y1="466" x2="337" y2="0" stroke="#D61313" stroke-width="2"/>
    <line x1="337" y1="466" x2="337" y2="932" stroke="#D61313" stroke-width="2"/>
    <line x1="337" y1="466" x2="674" y2="466" stroke="#D61313" stroke-width="2"/>
    <line x1="337" y1="466" x2="0" y2="466" stroke="#D61313" stroke-width="2"/>

    <!-- 15 degree increments -->
    <line x1="337" y1="466" x2="458" y2="15" stroke="#D61313" stroke-width="1.5"/>
    <line x1="337" y1="466" x2="579" y2="85" stroke="#D61313" stroke-width="1.5"/>
    <line x1="337" y1="466" x2="659" y2="195" stroke="#D61313" stroke-width="1.5"/>
    <line x1="337" y1="466" x2="674" y2="325" stroke="#D61313" stroke-width="1.5"/>
    <line x1="337" y1="466" x2="674" y2="607" stroke="#D61313" stroke-width="1.5"/>
    <line x1="337" y1="466" x2="659" y2="737" stroke="#D61313" stroke-width="1.5"/>
    <line x1="337" y1="466" x2="579" y2="847" stroke="#D61313" stroke-width="1.5"/>
    <line x1="337" y1="466" x2="458" y2="917" stroke="#D61313" stroke-width="1.5"/>

    <line x1="337" y1="466" x2="216" y2="917" stroke="#D61313" stroke-width="1.5"/>
    <line x1="337" y1="466" x2="95" y2="847" stroke="#D61313" stroke-width="1.5"/>
    <line x1="337" y1="466" x2="15" y2="737" stroke="#D61313" stroke-width="1.5"/>
    <line x1="337" y1="466" x2="0" y2="607" stroke="#D61313" stroke-width="1.5"/>
    <line x1="337" y1="466" x2="0" y2="325" stroke="#D61313" stroke-width="1.5"/>
    <line x1="337" y1="466" x2="15" y2="195" stroke="#D61313" stroke-width="1.5"/>
    <line x1="337" y1="466" x2="95" y2="85" stroke="#D61313" stroke-width="1.5"/>
    <line x1="337" y1="466" x2="216" y2="15" stroke="#D61313" stroke-width="1.5"/>

    <!-- 7.5 degree increments (lighter) -->
    <line x1="337" y1="466" x2="397" y2="7" stroke="#D61313" stroke-width="1" opacity="0.6"/>
    <line x1="337" y1="466" x2="518" y2="47" stroke="#D61313" stroke-width="1" opacity="0.6"/>
    <line x1="337" y1="466" x2="620" y2="137" stroke="#D61313" stroke-width="1" opacity="0.6"/>
    <line x1="337" y1="466" x2="670" y2="258" stroke="#D61313" stroke-width="1" opacity="0.6"/>
    <line x1="337" y1="466" x2="674" y2="395" stroke="#D61313" stroke-width="1" opacity="0.6"/>
    <line x1="337" y1="466" x2="674" y2="537" stroke="#D61313" stroke-width="1" opacity="0.6"/>
    <line x1="337" y1="466" x2="670" y2="674" stroke="#D61313" stroke-width="1" opacity="0.6"/>
    <line x1="337" y1="466" x2="620" y2="795" stroke="#D61313" stroke-width="1" opacity="0.6"/>
    <line x1="337" y1="466" x2="518" y2="885" stroke="#D61313" stroke-width="1" opacity="0.6"/>
    <line x1="337" y1="466" x2="397" y2="925" stroke="#D61313" stroke-width="1" opacity="0.6"/>

    <line x1="337" y1="466" x2="277" y2="925" stroke="#D61313" stroke-width="1" opacity="0.6"/>
    <line x1="337" y1="466" x2="156" y2="885" stroke="#D61313" stroke-width="1" opacity="0.6"/>
    <line x1="337" y1="466" x2="54" y2="795" stroke="#D61313" stroke-width="1" opacity="0.6"/>
    <line x1="337" y1="466" x2="4" y2="674" stroke="#D61313" stroke-width="1" opacity="0.6"/>
    <line x1="337" y1="466" x2="0" y2="537" stroke="#D61313" stroke-width="1" opacity="0.6"/>
    <line x1="337" y1="466" x2="0" y2="395" stroke="#D61313" stroke-width="1" opacity="0.6"/>
    <line x1="337" y1="466" x2="4" y2="258" stroke="#D61313" stroke-width="1" opacity="0.6"/>
    <line x1="337" y1="466" x2="54" y2="137" stroke="#D61313" stroke-width="1" opacity="0.6"/>
    <line x1="337" y1="466" x2="156" y2="47" stroke="#D61313" stroke-width="1" opacity="0.6"/>
    <line x1="337" y1="466" x2="277" y2="7" stroke="#D61313" stroke-width="1" opacity="0.6"/>
  </g>
</svg>
