<svg preserveAspectRatio="xMidYMid meet" width="100%" height="100%" overflow="visible" style="display: block;" viewBox="0 0 140.264 49.3889" fill="none" xmlns="http://www.w3.org/2000/svg">
<g id="kraft">
<path d="M76.313 0.00273638C76.0472 0.00273638 75.8229 0.177865 75.7537 0.418666C75.6844 0.177865 75.4601 0.00273638 75.1943 0.00273638C74.8731 0.00273638 74.6128 0.259956 74.6128 0.577376C74.6128 0.848277 74.8038 1.0754 75.0614 1.1356C75.0309 1.60352 74.8786 2.98813 74.3192 2.96897C73.8789 2.95529 73.8402 1.83064 73.8568 1.1356C74.1171 1.07813 74.3109 0.848277 74.3109 0.574639C74.3109 0.25722 74.0506 0 73.7294 0C73.4082 0 73.1479 0.25722 73.1479 0.574639C73.1479 0.834595 73.3223 1.05351 73.5632 1.12465C73.5328 1.3764 73.4885 1.69108 73.4276 2.00303C73.2891 2.69533 72.9069 3.06474 72.4583 2.85951C72.151 2.71996 72.0956 1.74034 72.09 1.13012C72.3365 1.06445 72.5193 0.840068 72.5193 0.574639C72.5193 0.25722 72.259 0 71.9377 0C71.6165 0 71.3562 0.25722 71.3562 0.574639C71.3562 0.840068 71.539 1.06445 71.7882 1.13012C71.7799 1.3463 71.7688 1.57615 71.766 1.66919C71.7577 1.86074 71.7439 3.10579 71.0239 2.92792C70.5365 2.80752 70.4147 1.78685 70.3842 1.13833C70.6473 1.08361 70.8411 0.851014 70.8411 0.577376C70.8411 0.259956 70.5808 0.00273638 70.2596 0.00273638C69.9384 0.00273638 69.6781 0.259956 69.6781 0.577376C69.6781 0.845541 69.8636 1.06992 70.1156 1.13286C70.1239 1.44207 70.1295 1.80601 70.1212 1.99208C70.1073 2.34781 70.0658 2.94982 69.5673 2.91698C69.2101 2.89235 68.9913 1.77317 68.8972 1.13833C69.1575 1.08087 69.3541 0.851014 69.3541 0.577376C69.3541 0.259956 69.0938 0.00273638 68.7726 0.00273638C68.5123 0.00273638 68.2935 0.169655 68.2187 0.402248C68.144 0.169655 67.9252 0.00273638 67.6649 0.00273638C67.3437 0.00273638 67.0834 0.259956 67.0834 0.577376C67.0834 0.894796 67.3437 1.15202 67.6649 1.15202C67.6815 1.15202 67.7009 1.15202 67.7175 1.15202C67.8089 1.52416 68.0027 2.29309 68.0941 2.61598C68.2187 3.0538 68.0609 3.07022 68.0609 3.07022C67.9529 3.07022 67.867 3.15504 67.867 3.26176C67.867 3.36848 67.9529 3.45331 68.0609 3.45331C68.1301 3.45331 68.1883 3.51077 68.1883 3.57918C68.1883 3.64759 68.1301 3.70506 68.0609 3.70506C67.9529 3.70506 67.867 3.78988 67.867 3.8966C67.867 4.00332 67.9529 4.08815 68.0609 4.08815C68.1301 4.08815 68.1883 4.14561 68.1883 4.21402C68.1883 4.28243 68.1301 4.3399 68.0609 4.3399C67.9529 4.3399 67.867 4.42472 67.867 4.53144C67.867 4.63816 67.9529 4.72299 68.0609 4.72299H75.906C76.014 4.72299 76.0998 4.63816 76.0998 4.53144C76.0998 4.42472 76.014 4.3399 75.906 4.3399C75.8367 4.3399 75.7786 4.28243 75.7786 4.21402C75.7786 4.14561 75.8367 4.08815 75.906 4.08815C76.014 4.08815 76.0998 4.00332 76.0998 3.8966C76.0998 3.78988 76.014 3.70506 75.906 3.70506C75.8367 3.70506 75.7786 3.64759 75.7786 3.57918C75.7786 3.51077 75.8367 3.45331 75.906 3.45331C76.014 3.45331 76.0998 3.36848 76.0998 3.26176C76.0998 3.15504 76.0084 3.10032 75.906 3.07022C75.8035 3.04012 75.87 2.813 75.87 2.813L76.2687 1.14928C76.2826 1.14928 76.2992 1.14928 76.3158 1.14928C76.637 1.14928 76.8973 0.892059 76.8973 0.574639C76.8973 0.25722 76.637 0 76.3158 0L76.313 0.00273638ZM68.612 2.97718C68.4596 3.01275 68.3129 2.58588 68.3129 2.58588L67.8837 1.10823C68.0415 1.0453 68.1633 0.91395 68.216 0.752504C68.2852 0.965941 68.479 1.12739 68.7116 1.14928C68.7338 1.41197 68.7643 1.76223 68.7975 2.08786C68.8612 2.71175 68.7615 2.94434 68.6092 2.97718H68.612ZM75.3854 2.94434C75.1223 2.89509 75.1804 1.75675 75.2331 1.15202C75.4823 1.1356 75.69 0.965942 75.7564 0.736086C75.8007 0.892059 75.9115 1.02067 76.0555 1.09181C75.9946 1.52416 75.7204 3.00728 75.3881 2.94434H75.3854Z" fill="var(--fill-0, #2B2B2B)"/>
<path d="M80.2536 24.6055L74.9118 20.9415C74.9118 20.9415 74.9035 20.3751 74.9118 18.9795C74.9201 17.584 75.6512 17.1078 75.6512 17.1078C74.9229 16.5879 74.9506 15.8382 74.9506 15.8382V12.3246C74.9506 12.3246 77.4263 10.1355 78.3872 9.20244C79.3481 8.27207 80.6219 8.49098 80.6219 8.49098V7.93002H75.0448V6.61109C75.0448 5.69988 76.3933 5.76829 76.3933 5.76829V5.38519H67.6372V5.76829C69.2295 5.78197 68.6341 6.8902 68.6341 6.8902L68.0664 7.93002H65.588V8.58676C67.0972 8.66885 67.1941 9.34747 67.1941 9.34747C67.1941 9.34747 63.6191 15.2663 63.093 16.1829C62.5668 17.0996 61.8829 17.1024 61.8829 17.1024L61.8192 17.2146C62.373 17.3049 62.1708 17.8904 62.1708 17.8904C62.1708 17.8904 59.1331 23.1388 58.7454 23.7682C58.3577 24.3975 57.8592 24.3975 57.8592 24.3975V24.9175H63.0127V24.466C61.545 24.3702 62.2512 22.9199 62.2512 22.9199C62.2512 22.9199 63.6773 20.0878 64.3557 18.8947C65.0342 17.7044 65.768 17.8549 65.768 17.8549H67.4295C67.4295 17.8549 67.5126 22.8378 67.4295 24.0555C67.3464 25.2732 64.8819 25.711 64.8819 25.711V26.4991H73.0399V25.711C70.4507 25.5879 70.4922 23.6861 70.4922 23.6861V20.6542C70.4922 20.2519 70.9353 20.5502 70.9353 20.5502L72.4722 21.7268V23.4644C72.4583 24.2169 71.4614 24.559 71.4614 24.559V24.8737H76.1026V24.559C75.3549 24.5316 75.1334 23.5055 75.1334 23.5055C75.1334 23.5055 77.1687 25.1063 77.4041 25.3197C77.6395 25.5331 77.1687 25.5468 77.1687 25.5468H75.6318V26.4909C75.6097 26.5128 82.6683 26.4909 82.6683 26.4909V25.5468C81.5606 25.5331 80.2591 24.6028 80.2591 24.6028L80.2536 24.6055ZM75.3494 8.48825C75.8146 8.48825 75.0392 9.42682 75.0392 9.42682V8.48825H75.3494ZM67.4267 16.38H66.4714C65.8898 16.38 66.3412 15.7041 66.3412 15.7041L67.4267 13.66V16.38ZM70.4701 12.6558V10.401C70.4701 8.50193 72.1787 8.58402 72.1787 8.58402V7.93276H70.8578L71.4753 7.17205C72.1593 6.49616 72.4916 7.48126 72.4916 7.48126V11.7144L71.107 13.0005C71.107 13.0005 70.8938 13.2468 70.6445 13.1839C70.3953 13.1209 70.4701 12.6558 70.4701 12.6558ZM70.459 16.38L72.4916 14.4645V15.8464C72.4916 15.8464 72.522 16.38 72.0402 16.38H70.459ZM72.5165 19.1957C72.4805 19.1683 70.6251 17.8576 70.6251 17.8576H71.9267C71.9267 17.8576 72.5082 17.8302 72.5137 18.2681V19.1957H72.5165Z" fill="var(--fill-0, #2B2B2B)"/>
<path d="M0 38.9551C0.116306 38.9387 0.204919 38.8812 0.27138 38.7854C0.33784 38.6897 0.401531 38.5802 0.465222 38.4571L2.92702 33.3455C2.98794 33.2306 3.04333 33.1266 3.09317 33.0308C3.14302 32.935 3.16517 32.8502 3.16517 32.7818C3.16517 32.6942 3.13471 32.634 3.07102 32.5985C3.0101 32.5629 2.94364 32.5383 2.87164 32.5191V32.2838H5.12021V32.5191C5.05929 32.5355 4.9956 32.5602 4.93468 32.5903C4.87376 32.6204 4.84053 32.6833 4.84053 32.7818C4.84053 32.853 4.85714 32.9214 4.8876 32.9925C4.91806 33.0637 4.96514 33.154 5.02606 33.2689L7.79247 38.6185C7.83678 38.7143 7.8977 38.7854 7.97247 38.8292C8.04723 38.873 8.13308 38.9168 8.23277 38.9606V39.1959H5.89281V38.9606C5.92881 38.9606 5.97312 38.9469 6.02573 38.9222C6.07835 38.8976 6.10604 38.8566 6.10604 38.8046C6.10604 38.717 6.07004 38.6021 6.00081 38.4625L5.49405 37.4911H2.24857L1.76951 38.4242C1.68089 38.6076 1.63658 38.7389 1.63658 38.8183C1.63658 38.914 1.71966 38.9633 1.88858 38.9633V39.1986H0V38.9551ZM5.01498 36.5115L3.899 34.0679L2.6501 36.5115H5.01775H5.01498Z" fill="var(--fill-0, #2B2B2B)"/>
<path d="M16.9446 39.4422C16.9446 39.3108 16.9031 39.2369 16.8172 39.2178C16.7341 39.2014 16.6234 39.1904 16.4905 39.1904H10.1601V38.9551C10.426 38.9551 10.5589 38.8757 10.5589 38.7198V32.7517C10.5589 32.593 10.426 32.5164 10.1601 32.5164V32.2811H12.4475V32.5164C12.1982 32.5164 12.0736 32.5957 12.0736 32.7517V37.9837H16.4905C16.6234 37.9837 16.7314 37.9536 16.8172 37.8906C16.9003 37.8304 16.9446 37.7456 16.9446 37.6416H17.1828V39.4422H16.9446Z" fill="var(--fill-0, #2B2B2B)"/>
<path d="M25.8697 33.6985C25.8697 33.6027 25.8309 33.5288 25.7561 33.4823C25.6814 33.4331 25.5512 33.4112 25.3629 33.4112H21.0541V35.0421H23.6599C23.8371 35.0421 23.9756 35.0174 24.0725 34.9709C24.1694 34.9217 24.2192 34.7985 24.2192 34.596H24.4574V36.6456H24.2192C24.2192 36.4431 24.1694 36.3145 24.0725 36.257C23.9756 36.1995 23.8371 36.1722 23.6599 36.1722H21.0541V37.9864H25.4958C25.6288 37.9864 25.7367 37.9563 25.8226 37.8934C25.9057 37.8332 25.95 37.7483 25.95 37.6444H26.1881V39.4449H25.95C25.95 39.3135 25.9084 39.2397 25.8226 39.2205C25.7395 39.2041 25.6288 39.1931 25.4958 39.1931H19.2984V38.9578C19.3593 38.9578 19.4147 38.9387 19.4646 38.8976C19.5144 38.8593 19.5366 38.7991 19.5366 38.7198V32.7517C19.5366 32.6724 19.5116 32.6149 19.4646 32.5738C19.4147 32.5355 19.3593 32.5136 19.2984 32.5136V32.2783H25.3629C25.5484 32.2783 25.6786 32.251 25.7561 32.1935C25.8309 32.136 25.8697 32.0594 25.8697 31.9636H26.1078V33.6985H25.8697Z" fill="var(--fill-0, #2B2B2B)"/>
<path d="M31.2031 32.5164C31.1311 32.5164 31.0647 32.5328 30.9982 32.5684C30.9317 32.6039 30.8985 32.6559 30.8985 32.7271C30.8985 32.7873 30.9234 32.8639 30.9705 32.9515C31.0203 33.039 31.084 33.1321 31.1643 33.2278L32.2554 34.5824L33.3603 33.2032C33.4572 33.0801 33.5431 32.9761 33.6123 32.8885C33.6843 32.801 33.7175 32.7353 33.7175 32.6915C33.7175 32.5766 33.5985 32.5219 33.3575 32.5219V32.2865H36.0575V32.5219C35.8443 32.5219 35.6864 32.5355 35.584 32.5602C35.4815 32.5875 35.3956 32.6423 35.3236 32.7298L33.0225 35.5428L35.2295 38.3285C35.2655 38.3804 35.307 38.4434 35.3569 38.5118C35.4067 38.5829 35.4649 38.6486 35.5369 38.7143C35.6089 38.78 35.6864 38.8374 35.7695 38.8839C35.8526 38.9332 35.9495 38.9551 36.0547 38.9551V39.1904H33.3825V38.9551C33.5237 38.9551 33.5957 38.8839 33.5957 38.7444C33.5957 38.6842 33.568 38.613 33.5098 38.5337C33.4517 38.4543 33.3825 38.3668 33.3049 38.271L32.0809 36.6948L30.7628 38.3257C30.7185 38.3859 30.6631 38.4598 30.5967 38.5419C30.5302 38.624 30.497 38.7006 30.497 38.7717C30.497 38.8949 30.58 38.9551 30.749 38.9551V39.1904H28.301V38.9551C28.4699 38.9551 28.6001 38.9387 28.6942 38.9031C28.7884 38.8675 28.8825 38.7882 28.9795 38.6678L31.3083 35.7371L29.1539 33.0308C29.0044 32.8393 28.8659 32.7052 28.7413 32.6313C28.6167 32.5574 28.4699 32.5191 28.3038 32.5191V32.2838H31.2031V32.5191V32.5164Z" fill="var(--fill-0, #2B2B2B)"/>
<path d="M37.6138 38.9551C37.7301 38.9387 37.8187 38.8812 37.8851 38.7854C37.9516 38.6897 38.0153 38.5802 38.079 38.4571L40.5408 33.3455C40.6017 33.2306 40.6571 33.1266 40.7069 33.0308C40.7568 32.935 40.7789 32.8502 40.7789 32.7818C40.7789 32.6942 40.7485 32.634 40.6848 32.5985C40.6239 32.5629 40.5574 32.5383 40.4854 32.5191V32.2838H42.734V32.5191C42.6731 32.5355 42.6094 32.5602 42.5484 32.5903C42.4875 32.6204 42.4543 32.6833 42.4543 32.7818C42.4543 32.853 42.4709 32.9214 42.5014 32.9925C42.5318 33.0637 42.5789 33.154 42.6398 33.2689L45.4062 38.6185C45.4505 38.7143 45.5115 38.7854 45.5862 38.8292C45.661 38.873 45.7468 38.9168 45.8465 38.9606V39.1959H43.5066V38.9606C43.5426 38.9606 43.5869 38.9469 43.6395 38.9222C43.6921 38.8949 43.7198 38.8566 43.7198 38.8046C43.7198 38.717 43.6838 38.6021 43.6146 38.4625L43.1078 37.4911H39.8623L39.3833 38.4242C39.2947 38.6076 39.2503 38.7389 39.2503 38.8183C39.2503 38.914 39.3334 38.9633 39.5023 38.9633V39.1986H37.6138V38.9551ZM42.6287 36.5115L41.5128 34.0679L40.2639 36.5115H42.6315H42.6287Z" fill="var(--fill-0, #2B2B2B)"/>
<path d="M48.1339 38.9551C48.3028 38.9551 48.3859 38.8757 48.3859 38.7198V32.7517C48.3859 32.593 48.3028 32.5164 48.1339 32.5164V32.2811H50.4074V32.5164C50.3354 32.5164 50.3021 32.5602 50.3021 32.6477C50.3021 32.7189 50.3908 32.8393 50.568 33.0144L54.3839 36.9302V32.7517C54.3839 32.593 54.2676 32.5164 54.0378 32.5164V32.2811H56.0454V32.5164C55.8765 32.5164 55.7934 32.5957 55.7934 32.7517V38.7198C55.7934 38.8785 55.8765 38.9551 56.0454 38.9551V39.1904H53.891V38.9551C54.0073 38.9551 54.0627 38.9168 54.0627 38.8374C54.0627 38.7772 53.9907 38.676 53.8495 38.5364L49.7926 34.358V38.7225C49.7926 38.8812 49.8951 38.9578 50.0972 38.9578V39.1931H48.1283V38.9578L48.1339 38.9551Z" fill="var(--fill-0, #2B2B2B)"/>
<path d="M63.3893 32.2783C63.8767 32.2783 64.3308 32.3495 64.7517 32.489C65.1726 32.6286 65.5382 32.842 65.8483 33.1266C66.1585 33.4112 66.4021 33.7696 66.5794 34.2047C66.7566 34.6398 66.8452 35.1488 66.8452 35.7371C66.8452 36.3254 66.7566 36.8344 66.5794 37.2695C66.4021 37.7046 66.1585 38.063 65.8483 38.3476C65.5382 38.6322 65.1726 38.8456 64.7517 38.9852C64.3308 39.1247 63.8767 39.1959 63.3893 39.1959H58.9724V38.9606C59.1774 38.9606 59.277 38.8812 59.277 38.7252V32.7572C59.277 32.5985 59.1746 32.5219 58.9724 32.5219V32.2865H63.3893V32.2783ZM62.8576 38.063C63.273 38.063 63.6385 38.0275 63.9487 37.959C64.2588 37.8879 64.5163 37.7648 64.7213 37.5842C64.9262 37.4036 65.0785 37.1655 65.1809 36.8672C65.2834 36.569 65.3332 36.1913 65.3332 35.7371C65.3332 35.2829 65.2834 34.9052 65.1809 34.607C65.0785 34.3087 64.9262 34.0706 64.7213 33.89C64.5163 33.7094 64.2588 33.5863 63.9487 33.5152C63.6385 33.444 63.2757 33.4112 62.8576 33.4112H60.7973V38.063H62.8576Z" fill="var(--fill-0, #2B2B2B)"/>
<path d="M76.025 33.6985C76.025 33.6027 75.9863 33.5288 75.9115 33.4823C75.8367 33.4331 75.7066 33.4112 75.5183 33.4112H71.2094V35.0421H73.8152C73.9925 35.0421 74.1309 35.0174 74.2278 34.9709C74.3248 34.9217 74.3746 34.7985 74.3746 34.596H74.6128V36.6456H74.3746C74.3746 36.4431 74.3248 36.3145 74.2278 36.257C74.1309 36.1995 73.9925 36.1722 73.8152 36.1722H71.2094V37.9864H75.6512C75.7841 37.9864 75.8921 37.9563 75.978 37.8934C76.061 37.8332 76.1053 37.7483 76.1053 37.6444H76.3435V39.4449H76.1053C76.1053 39.3135 76.0638 39.2397 75.978 39.2205C75.8921 39.2041 75.7841 39.1931 75.6512 39.1931H69.4538V38.9578C69.5147 38.9578 69.5701 38.9387 69.6199 38.8976C69.6698 38.8593 69.6919 38.7991 69.6919 38.7198V32.7517C69.6919 32.6724 69.667 32.6149 69.6199 32.5738C69.5701 32.5355 69.5147 32.5136 69.4538 32.5136V32.2783H75.5183C75.7038 32.2783 75.834 32.251 75.9115 32.1935C75.9863 32.136 76.025 32.0594 76.025 31.9636H76.2632V33.6985H76.025Z" fill="var(--fill-0, #2B2B2B)"/>
<path d="M83.5129 32.2783C83.9393 32.2783 84.3243 32.3166 84.6704 32.3905C85.0166 32.4644 85.3129 32.5821 85.5621 32.7462C85.8113 32.9077 86.0024 33.1184 86.1353 33.3783C86.2682 33.6356 86.3347 33.9557 86.3347 34.3306C86.3347 34.908 86.163 35.3513 85.8169 35.6577C85.4707 35.9642 85.0055 36.1694 84.4212 36.2762L86.1907 38.7745C86.2516 38.862 86.3264 38.914 86.4095 38.9332C86.4925 38.9496 86.5701 38.9606 86.6421 38.9606V39.1959H84.1553V38.9606C84.2357 38.9606 84.3049 38.9469 84.3603 38.9222C84.4184 38.8949 84.4461 38.862 84.4461 38.8183C84.4461 38.7745 84.4295 38.7252 84.3935 38.6678C84.3575 38.6103 84.3049 38.5337 84.2329 38.4379L82.7708 36.3884H80.8683V38.728C80.8683 38.8073 80.896 38.8648 80.9542 38.9058C81.0123 38.9441 81.1148 38.966 81.2671 38.966V39.2014H78.9659V38.966C79.2234 38.966 79.3508 38.8867 79.3508 38.7307V32.7627C79.3508 32.6039 79.2234 32.5273 78.9659 32.5273V32.292H83.5157L83.5129 32.2783ZM83.1667 35.354C83.4852 35.354 83.751 35.3294 83.9643 35.2829C84.1775 35.2336 84.3464 35.1679 84.4683 35.0804C84.5929 34.9928 84.6815 34.8888 84.7341 34.7712C84.7867 34.6535 84.8144 34.5249 84.8144 34.3826C84.8144 34.2403 84.7867 34.1144 84.7341 33.994C84.6815 33.8764 84.5929 33.7724 84.4683 33.6848C84.3437 33.5973 84.1747 33.5288 83.9643 33.4823C83.751 33.4331 83.4852 33.4112 83.1667 33.4112H80.8656V35.3567H83.1667V35.354Z" fill="var(--fill-0, #2B2B2B)"/>
<path d="M97.1068 38.7198C97.1068 38.7991 97.1345 38.8566 97.1871 38.8976C97.2397 38.9359 97.3034 38.9578 97.3726 38.9578V39.1931H95.2985V38.9578C95.4924 38.9578 95.5921 38.8785 95.5921 38.7225V32.7545C95.5921 32.5957 95.4951 32.5191 95.2985 32.5191V32.2838H97.3726V32.5191C97.3006 32.5191 97.2397 32.5383 97.1871 32.5793C97.1345 32.6176 97.1068 32.6778 97.1068 32.7572V35.2555L99.8594 33.1129C99.984 33.0089 100.081 32.9214 100.153 32.8557C100.225 32.79 100.258 32.7353 100.258 32.6915C100.258 32.6313 100.239 32.5875 100.197 32.5602C100.158 32.5328 100.111 32.5219 100.059 32.5219V32.2865H102.853V32.5219C102.692 32.5219 102.534 32.5875 102.374 32.7189L99.3138 35.1242L102.108 38.3175C102.224 38.4489 102.357 38.5775 102.512 38.7061C102.667 38.8319 102.82 38.9195 102.972 38.9633V39.1986H100.51V38.9633C100.626 38.9633 100.682 38.9332 100.682 38.8703C100.682 38.8265 100.621 38.7307 100.496 38.5802L98.2228 35.9916L97.1068 36.8453V38.7252V38.7198Z" fill="var(--fill-0, #2B2B2B)"/>
<path d="M109.529 32.2783C109.956 32.2783 110.341 32.3166 110.687 32.3905C111.033 32.4644 111.329 32.5821 111.579 32.7462C111.828 32.9077 112.019 33.1184 112.152 33.3783C112.285 33.6356 112.351 33.9557 112.351 34.3306C112.351 34.908 112.179 35.3513 111.833 35.6577C111.487 35.9642 111.022 36.1694 110.438 36.2762L112.207 38.7745C112.268 38.862 112.343 38.914 112.426 38.9332C112.509 38.9496 112.587 38.9606 112.659 38.9606V39.1959H110.172V38.9606C110.252 38.9606 110.321 38.9469 110.377 38.9222C110.435 38.8949 110.463 38.862 110.463 38.8183C110.463 38.7745 110.446 38.7252 110.41 38.6678C110.374 38.6103 110.321 38.5337 110.249 38.4379L108.787 36.3884H106.885V38.728C106.885 38.8073 106.912 38.8648 106.971 38.9058C107.029 38.9441 107.131 38.966 107.284 38.966V39.2014H104.982V38.966C105.24 38.966 105.367 38.8867 105.367 38.7307V32.7627C105.367 32.6039 105.24 32.5273 104.982 32.5273V32.292H109.532L109.529 32.2783ZM109.183 35.354C109.502 35.354 109.767 35.3294 109.981 35.2829C110.194 35.2336 110.363 35.1679 110.485 35.0804C110.609 34.9928 110.698 34.8888 110.751 34.7712C110.803 34.6535 110.831 34.5249 110.831 34.3826C110.831 34.2403 110.803 34.1144 110.751 33.994C110.698 33.8764 110.609 33.7724 110.485 33.6848C110.36 33.5973 110.191 33.5288 109.981 33.4823C109.767 33.4331 109.502 33.4112 109.183 33.4112H106.882V35.3567H109.183V35.354Z" fill="var(--fill-0, #2B2B2B)"/>
<path d="M114.517 38.9551C114.633 38.9387 114.722 38.8812 114.788 38.7854C114.854 38.6897 114.918 38.5802 114.982 38.4571L117.444 33.3455C117.505 33.2306 117.56 33.1266 117.61 33.0308C117.66 32.935 117.682 32.8502 117.682 32.7818C117.682 32.6942 117.651 32.634 117.588 32.5985C117.527 32.5629 117.46 32.5383 117.388 32.5191V32.2838H119.637V32.5191C119.576 32.5355 119.512 32.5602 119.451 32.5903C119.39 32.6204 119.357 32.6833 119.357 32.7818C119.357 32.853 119.374 32.9214 119.404 32.9925C119.435 33.0637 119.482 33.154 119.543 33.2689L122.309 38.6185C122.353 38.7143 122.414 38.7854 122.489 38.8292C122.564 38.873 122.65 38.9168 122.749 38.9606V39.1959H120.409V38.9606C120.445 38.9606 120.49 38.9469 120.542 38.9222C120.595 38.8949 120.623 38.8566 120.623 38.8046C120.623 38.717 120.587 38.6021 120.517 38.4625L120.011 37.4911H116.765L116.286 38.4242C116.198 38.6076 116.153 38.7389 116.153 38.8183C116.153 38.914 116.236 38.9633 116.405 38.9633V39.1986H114.517V38.9551ZM119.532 36.5115L118.416 34.0679L117.167 36.5115H119.534H119.532Z" fill="var(--fill-0, #2B2B2B)"/>
<path d="M131.381 33.6985C131.381 33.6027 131.342 33.5288 131.267 33.4823C131.193 33.4331 131.062 33.4112 130.874 33.4112H126.565V35.0421H129.171C129.348 35.0421 129.487 35.0256 129.584 34.9901C129.681 34.9545 129.731 34.8751 129.731 34.7547H129.969V36.6483H129.731C129.731 36.4458 129.681 36.3172 129.584 36.2598C129.487 36.2023 129.348 36.1749 129.171 36.1749H126.565V38.7252C126.565 38.8046 126.604 38.862 126.679 38.9031C126.754 38.9414 126.851 38.9633 126.964 38.9633V39.1986H124.704V38.9633C124.934 38.9633 125.051 38.8839 125.051 38.728V32.7599C125.051 32.6012 124.934 32.5246 124.704 32.5246V32.2893H130.877C131.062 32.2893 131.193 32.2619 131.27 32.2044C131.345 32.147 131.384 32.0704 131.384 31.9746H131.622V33.7094H131.384L131.381 33.6985Z" fill="var(--fill-0, #2B2B2B)"/>
<path d="M137.487 38.7198C137.487 38.8785 137.584 38.9551 137.781 38.9551V39.1904H135.731V38.9551C135.792 38.9551 135.848 38.9359 135.897 38.8949C135.947 38.8566 135.969 38.7964 135.969 38.717V33.4851H133.774C133.693 33.4851 133.616 33.507 133.541 33.5507C133.466 33.5945 133.427 33.6766 133.427 33.7997H133.189V31.9609H133.427C133.427 32.084 133.466 32.1661 133.541 32.2099C133.616 32.2537 133.693 32.2756 133.774 32.2756H139.68C139.76 32.2756 139.838 32.2537 139.913 32.2099C139.988 32.1661 140.026 32.084 140.026 31.9609H140.264V33.7997H140.026C140.026 33.6766 139.988 33.5945 139.913 33.5507C139.838 33.507 139.76 33.4851 139.68 33.4851H137.484V38.717L137.487 38.7198Z" fill="var(--fill-0, #2B2B2B)"/>
<path d="M33.9446 49.0797C33.9806 49.0715 34.0111 49.0578 34.036 49.0359C34.0609 49.014 34.0748 48.9648 34.0748 48.8854V44.9669C34.0748 44.8657 34.0664 44.8055 34.0471 44.7863C34.0277 44.7644 33.9944 44.7535 33.9446 44.7535V44.5619H35.451V44.7535C35.379 44.7535 35.343 44.7863 35.343 44.8492C35.343 44.8766 35.3569 44.9149 35.3818 44.9614C35.4067 45.0079 35.4455 45.0736 35.4953 45.1585L36.8162 47.5665L38.1482 45.1694C38.1981 45.0846 38.2396 45.0134 38.2673 44.9614C38.295 44.9067 38.3116 44.8711 38.3116 44.8492C38.3116 44.7863 38.2839 44.7535 38.2257 44.7535V44.5619H39.7543V44.7535C39.7183 44.7535 39.6851 44.7617 39.6519 44.7808C39.6186 44.8 39.602 44.8356 39.602 44.893V48.9182C39.602 48.9757 39.6186 49.0167 39.6519 49.0414C39.6851 49.066 39.7183 49.0797 39.7543 49.0797V49.2712H38.4971V49.0797C38.6494 49.0797 38.7131 49.0249 38.691 48.9182V45.911H38.6688L36.8273 49.2712H36.7415L34.9969 45.911H35.008H34.9858V48.9182C34.9858 49.0249 35.0467 49.0797 35.1686 49.0797V49.2712H33.9446V49.0797Z" fill="var(--fill-0, #2B2B2B)"/>
<path d="M44.6475 44.499C45.0435 44.499 45.4173 44.5482 45.769 44.6495C46.1179 44.7507 46.4253 44.8985 46.6856 45.0982C46.9459 45.298 47.1508 45.5497 47.3031 45.8535C47.4554 46.1572 47.5302 46.513 47.5302 46.9179C47.5302 47.3229 47.4554 47.6787 47.3031 47.9824C47.1508 48.2861 46.9459 48.5379 46.6856 48.7376C46.4253 48.9374 46.1207 49.0824 45.769 49.17C45.4201 49.2603 45.0462 49.3041 44.6475 49.3041C44.2487 49.3041 43.8776 49.2603 43.526 49.17C43.1743 49.0797 42.8697 48.9374 42.6094 48.7376C42.3491 48.5379 42.1441 48.2861 41.9918 47.9824C41.8395 47.6787 41.7648 47.3229 41.7648 46.9179C41.7648 46.513 41.8395 46.1572 41.9918 45.8535C42.1441 45.5497 42.3491 45.298 42.6094 45.0982C42.8697 44.8985 43.1743 44.748 43.526 44.6495C43.8749 44.5482 44.2487 44.499 44.6475 44.499ZM44.6475 45.2925C44.4176 45.2925 44.1906 45.3308 43.9718 45.4047C43.753 45.4786 43.5536 45.5853 43.382 45.7249C43.2075 45.8644 43.069 46.0341 42.9638 46.2338C42.8586 46.4336 42.806 46.6607 42.806 46.9179C42.806 47.1752 42.8586 47.4023 42.9638 47.602C43.069 47.8018 43.2075 47.9714 43.382 48.111C43.5564 48.2506 43.753 48.3573 43.9718 48.4312C44.1933 48.505 44.4176 48.5433 44.6475 48.5433C44.8773 48.5433 45.1044 48.505 45.3232 48.4312C45.5447 48.3573 45.7413 48.2478 45.913 48.111C46.0874 47.9714 46.2259 47.8018 46.3311 47.602C46.4364 47.4023 46.489 47.1752 46.489 46.9179C46.489 46.6607 46.4364 46.4336 46.3311 46.2338C46.2259 46.0341 46.0874 45.8644 45.913 45.7249C45.7385 45.5853 45.5419 45.4786 45.3232 45.4047C45.1044 45.3308 44.8773 45.2925 44.6475 45.2925Z" fill="var(--fill-0, #2B2B2B)"/>
<path d="M49.4243 49.0797C49.5545 49.0797 49.6181 49.0249 49.6181 48.9182V44.9149C49.6181 44.8082 49.5517 44.7535 49.4243 44.7535V44.5619H51.0166V44.7535C50.9667 44.7617 50.9418 44.7781 50.9418 44.8082C50.9418 44.8438 51.0221 44.9395 51.18 45.0982L53.7802 47.8182V44.9176C53.7802 44.8109 53.7082 44.7562 53.5642 44.7562V44.5647H54.8851V44.7562C54.755 44.7562 54.6913 44.8109 54.6913 44.9176V48.921C54.6913 49.0277 54.755 49.0824 54.8851 49.0824V49.274H53.4756V49.0824C53.5255 49.0824 53.5504 49.066 53.5504 49.0277C53.5504 49.0003 53.5172 48.9483 53.4479 48.8772C53.3787 48.806 53.3012 48.7239 53.2153 48.6309L50.5292 45.8042V48.9182C50.5292 49.0249 50.604 49.0797 50.7563 49.0797V49.2712H49.4243V49.0797Z" fill="var(--fill-0, #2B2B2B)"/>
<path d="M58.3826 49.0797C58.4186 49.0797 58.4546 49.066 58.4906 49.0414C58.5266 49.0167 58.546 48.9757 58.546 48.9182V45.3527H57.1365C57.0783 45.3527 57.0257 45.3664 56.9731 45.3965C56.9232 45.4239 56.8983 45.4704 56.8983 45.5361H56.7045V44.3047H56.8983C56.8983 44.4059 56.9232 44.4716 56.9731 44.5072C57.0229 44.5428 57.0783 44.5619 57.1365 44.5619H60.9939C61.0521 44.5619 61.1047 44.5455 61.1573 44.5072C61.2072 44.4716 61.2321 44.4032 61.2321 44.3047H61.4259V45.5361H61.2321C61.2321 45.4731 61.2072 45.4266 61.1573 45.3965C61.1075 45.3692 61.0521 45.3527 60.9939 45.3527H59.5844V48.9182C59.5844 49.025 59.6481 49.0797 59.7783 49.0797V49.2712H58.3798V49.0797H58.3826Z" fill="var(--fill-0, #2B2B2B)"/>
<path d="M67.4267 45.558C67.4267 45.4211 67.316 45.3555 67.0917 45.3555H64.4499V46.4254H66.1169C66.2388 46.4254 66.3301 46.4172 66.3883 46.398C66.4465 46.3816 66.4741 46.3324 66.4741 46.253H66.668V47.3886H66.452C66.4741 47.3092 66.4437 47.2627 66.3661 47.2436C66.2858 47.2271 66.1751 47.2162 66.0311 47.2162H64.4499V48.4804H67.2218C67.3077 48.4804 67.3797 48.4613 67.4378 48.4202C67.496 48.3819 67.5237 48.3299 67.5237 48.2642H67.7175V49.3889H67.5237C67.5237 49.3232 67.496 49.2876 67.4378 49.2822C67.3797 49.274 67.3077 49.2712 67.2218 49.2712H63.2453V49.0797C63.2813 49.0797 63.3173 49.066 63.3533 49.0414C63.3893 49.0167 63.4087 48.9757 63.4087 48.9182V44.9149C63.4087 44.8575 63.3893 44.8164 63.3533 44.7918C63.3173 44.7671 63.2813 44.7535 63.2453 44.7535V44.5619H67.0917C67.316 44.5619 67.4267 44.4962 67.4267 44.3704H67.6206V45.558H67.4267Z" fill="var(--fill-0, #2B2B2B)"/>
<path d="M78.5838 45.911C78.5838 45.8973 78.5838 45.8836 78.5782 45.8672C78.5755 45.8535 78.5727 45.8343 78.5727 45.8124C78.5727 45.7769 78.5367 45.7276 78.4647 45.6674C78.3927 45.6072 78.2902 45.547 78.1545 45.4896C78.0216 45.4321 77.8638 45.3856 77.6838 45.3445C77.5038 45.3062 77.3044 45.2843 77.0884 45.2843C76.8281 45.2843 76.5927 45.3172 76.3795 45.3856C76.1663 45.454 75.9807 45.5552 75.8229 45.692C75.6651 45.8289 75.5404 45.9958 75.4546 46.1955C75.3688 46.3953 75.3244 46.6224 75.3244 46.8796C75.3244 47.1369 75.3743 47.3667 75.4712 47.5692C75.5681 47.7717 75.6955 47.9468 75.8561 48.0946C76.014 48.2396 76.1967 48.3518 76.3989 48.4257C76.601 48.4996 76.806 48.5379 77.0164 48.5379C77.2103 48.5379 77.4096 48.5133 77.6118 48.464C77.8139 48.4147 77.9967 48.3545 78.1629 48.2861C78.329 48.2177 78.4647 48.1466 78.5699 48.0672C78.6752 47.9879 78.7278 47.9167 78.7278 47.8538V47.769C78.7278 47.7252 78.725 47.6896 78.7167 47.6622L78.8358 47.5555L79.6361 48.6911L79.5281 48.7458C79.4422 48.7103 79.3813 48.6911 79.3453 48.6911C79.2871 48.6911 79.193 48.724 79.0628 48.7869C78.9327 48.8498 78.7693 48.9237 78.5699 49.0058C78.3705 49.0879 78.1407 49.1563 77.8776 49.2138C77.6146 49.2712 77.321 49.2986 76.9943 49.2986C76.6675 49.2986 76.3324 49.2521 76.0084 49.159C75.6844 49.066 75.3937 48.9182 75.1417 48.7157C74.8897 48.5133 74.682 48.2588 74.5242 47.955C74.3663 47.6513 74.286 47.301 74.286 46.9015C74.286 46.502 74.3663 46.1518 74.5242 45.8535C74.682 45.5525 74.8925 45.3035 75.1528 45.0983C75.4131 44.8958 75.7094 44.7425 76.0472 44.644C76.3823 44.5428 76.7284 44.4935 77.0829 44.4935C77.357 44.4935 77.609 44.5181 77.8361 44.5674C78.0632 44.6166 78.2653 44.6741 78.437 44.7398C78.6087 44.8055 78.7555 44.8602 78.869 44.9122C78.9853 44.9614 79.0684 44.9861 79.1182 44.9861C79.1542 44.9861 79.1847 44.9751 79.2096 44.9532C79.2345 44.9313 79.2622 44.9149 79.2899 44.8985L79.4201 44.9724L78.7056 45.9903L78.5865 45.9055L78.5838 45.911Z" fill="var(--fill-0, #2B2B2B)"/>
<path d="M80.7077 49.0797C80.7936 49.066 80.8656 49.0249 80.9182 48.9565C80.9736 48.8881 81.0151 48.8252 81.0428 48.7705L82.6572 45.2925C82.7015 45.1913 82.7348 45.1119 82.7597 45.0517C82.7846 44.9915 82.7985 44.9313 82.7985 44.8739C82.7985 44.8301 82.7901 44.8055 82.7708 44.7945C82.7514 44.7836 82.732 44.7726 82.7098 44.7562V44.5647H84.3464V44.7562C84.3243 44.7699 84.3021 44.7808 84.2772 44.789C84.2523 44.7972 84.2384 44.8246 84.2384 44.8739C84.2384 44.9176 84.255 44.9696 84.2883 45.0298C84.3215 45.09 84.3547 45.1612 84.3907 45.2378L86.1464 48.8772C86.1824 48.9401 86.2212 48.9866 86.2655 49.0167C86.3098 49.0441 86.3568 49.066 86.4067 49.0824V49.274H84.8698V49.1125C84.9058 49.1125 84.9446 49.1016 84.9833 49.0797C85.0221 49.0578 85.0443 49.0195 85.0443 48.962C85.0443 48.9182 85.0359 48.8799 85.0221 48.8444C85.0083 48.8088 84.9889 48.7623 84.9667 48.7048L84.6732 48.0946H82.3554L82.0508 48.672C82.0231 48.7294 81.9982 48.7814 81.9815 48.8279C81.9622 48.8744 81.9539 48.9155 81.9539 48.9511C81.9539 49.0085 81.9705 49.0441 82.0092 49.0578C82.0452 49.0715 82.0951 49.0797 82.1615 49.0797V49.2712H80.7105V49.0797H80.7077ZM84.3243 47.3038L83.4464 45.506L82.6766 47.3038H84.3243Z" fill="var(--fill-0, #2B2B2B)"/>
<path d="M90.9869 44.5647C91.6294 44.5647 92.1306 44.6686 92.4934 44.8793C92.8534 45.09 93.0361 45.4485 93.0361 45.9547C93.0361 46.1463 93.0001 46.3187 92.9281 46.4692C92.8561 46.6197 92.7592 46.7483 92.6401 46.8605C92.5211 46.9699 92.3881 47.0602 92.2441 47.1286C92.1001 47.1971 91.9506 47.249 91.8011 47.2846L92.8617 48.8143C92.9198 48.8936 92.9835 48.9511 93.05 48.9921C93.1192 49.0304 93.1912 49.0605 93.2715 49.0824V49.274H91.6128V49.0824C91.7069 49.0824 91.754 49.0496 91.754 48.9866C91.754 48.9155 91.6986 48.806 91.5906 48.6555L90.7349 47.3913H89.2285V48.921C89.2285 48.9784 89.2506 49.0195 89.2977 49.0441C89.3448 49.0687 89.3891 49.0824 89.4334 49.0824V49.274H87.9934V49.0824C88.1236 49.0824 88.1873 49.0277 88.1873 48.921V44.9176C88.1873 44.8109 88.1236 44.7562 87.9934 44.7562V44.5647H90.9869ZM90.9648 46.5978C91.6737 46.5978 92.0254 46.3761 92.0254 45.9328C92.0254 45.755 91.9395 45.6127 91.7706 45.5114C91.6017 45.4075 91.3331 45.3555 90.9648 45.3555H89.2534V46.5978H90.9648Z" fill="var(--fill-0, #2B2B2B)"/>
<path d="M96.7496 44.5647V44.7562C96.5834 44.7562 96.5004 44.8109 96.5004 44.9176V48.4832H99.4246C99.5105 48.4832 99.5825 48.464 99.6406 48.4229C99.6988 48.3846 99.7264 48.3272 99.7264 48.256H99.9203V49.3807H99.7264C99.7264 49.3232 99.6988 49.2904 99.6406 49.2849C99.5825 49.2767 99.5105 49.274 99.4246 49.274H95.1795V49.0824C95.3678 49.0824 95.4619 49.0277 95.4619 48.921V44.9176C95.4619 44.8109 95.3678 44.7562 95.1795 44.7562V44.5647H96.7496Z" fill="var(--fill-0, #2B2B2B)"/>
<path d="M104.268 44.499C104.664 44.499 105.038 44.5482 105.389 44.6495C105.738 44.7507 106.046 44.8985 106.306 45.0982C106.566 45.298 106.771 45.5497 106.924 45.8535C107.076 46.1572 107.151 46.513 107.151 46.9179C107.151 47.3229 107.076 47.6787 106.924 47.9824C106.771 48.2861 106.566 48.5379 106.306 48.7376C106.046 48.9374 105.741 49.0824 105.389 49.17C105.04 49.2603 104.667 49.3041 104.268 49.3041C103.869 49.3041 103.498 49.2603 103.146 49.17C102.795 49.0797 102.49 48.9374 102.23 48.7376C101.969 48.5379 101.765 48.2861 101.612 47.9824C101.46 47.6787 101.385 47.3229 101.385 46.9179C101.385 46.513 101.46 46.1572 101.612 45.8535C101.765 45.5497 101.969 45.298 102.23 45.0982C102.49 44.8985 102.795 44.748 103.146 44.6495C103.495 44.5482 103.869 44.499 104.268 44.499ZM104.268 45.2925C104.038 45.2925 103.811 45.3308 103.592 45.4047C103.373 45.4786 103.174 45.5853 103.002 45.7249C102.828 45.8644 102.689 46.0341 102.584 46.2338C102.479 46.4336 102.426 46.6607 102.426 46.9179C102.426 47.1752 102.479 47.4023 102.584 47.602C102.689 47.8018 102.828 47.9714 103.002 48.111C103.177 48.2506 103.373 48.3573 103.592 48.4312C103.814 48.505 104.038 48.5433 104.268 48.5433C104.498 48.5433 104.725 48.505 104.944 48.4312C105.165 48.3573 105.362 48.2478 105.533 48.111C105.708 47.9714 105.846 47.8018 105.952 47.602C106.057 47.4023 106.109 47.1752 106.109 46.9179C106.109 46.6607 106.057 46.4336 105.952 46.2338C105.846 46.0341 105.708 45.8644 105.533 45.7249C105.359 45.5853 105.162 45.4786 104.944 45.4047C104.725 45.3308 104.498 45.2925 104.268 45.2925Z" fill="var(--fill-0, #2B2B2B)"/>
</g>
</svg>
