<svg preserveAspectRatio="xMidYMid meet" width="100%" height="100%" overflow="visible" style="display: block;" viewBox="0 0 128.411 32.1028" fill="none" xmlns="http://www.w3.org/2000/svg">
<g id="bonanno">
<path d="M49.1856 31.9811C48.8308 31.73 48.2948 31.0834 47.57 30.0336C47.336 29.6989 47.0944 29.3718 46.8453 29.0675C46.5961 28.7632 46.4225 28.573 46.3319 28.5045C46.2413 28.4361 46.0903 28.4056 45.894 28.4056H45.5996V30.0564C45.5996 30.6422 45.6147 31.0225 45.6373 31.2051C45.66 31.3877 45.7355 31.517 45.8563 31.6083C45.977 31.6996 46.196 31.7376 46.5357 31.7376H46.8906V31.9887H43.3649V31.7376H43.6065C43.9236 31.7376 44.1425 31.6996 44.2633 31.6159C44.3841 31.5322 44.4596 31.4105 44.4973 31.2432C44.5275 31.0758 44.5426 30.6802 44.5426 30.0564V26.4125C44.5426 25.8192 44.5275 25.4388 44.4973 25.2638C44.4671 25.0889 44.3916 24.9747 44.2784 24.9063C44.1651 24.8378 43.9236 24.8074 43.5461 24.8074H43.4177V24.5563L44.4747 24.5031C45.1768 24.4727 45.7355 24.4575 46.1507 24.4575C46.8528 24.4575 47.4266 24.5259 47.8645 24.6552C48.3023 24.7846 48.6647 25.0052 48.9365 25.3019C49.2083 25.5985 49.3442 25.9561 49.3442 26.3745C49.3442 26.8614 49.163 27.2722 48.8082 27.6145C48.4533 27.9568 47.9324 28.1698 47.2454 28.2535C47.5549 28.4056 48.0532 28.9458 48.7327 29.8738C49.2913 30.627 49.7292 31.1214 50.0463 31.3573C50.3634 31.5931 50.7408 31.7148 51.1787 31.73V31.9811H49.1856ZM45.5996 28.147C45.8714 28.147 46.1507 28.1318 46.4451 28.1166C46.732 28.1013 46.9887 28.0633 47.2001 27.9948C47.4115 27.9264 47.5851 27.8351 47.721 27.7058C47.8569 27.5764 47.955 27.4167 48.0305 27.2113C48.106 27.0059 48.1438 26.7549 48.1438 26.4582C48.1438 25.9333 48.0154 25.5149 47.7588 25.203C47.5021 24.8911 46.9358 24.7313 46.0676 24.7313C45.9318 24.7313 45.7808 24.7313 45.6071 24.7541V28.147H45.5996Z" fill="var(--fill-0, #2B2B2B)"/>
<path d="M52.5075 28.2155C52.5075 27.0668 52.8849 26.1463 53.6474 25.454C54.4099 24.7617 55.3612 24.4118 56.4936 24.4118C57.6261 24.4118 58.6 24.7541 59.37 25.4388C60.1401 26.1234 60.5251 27.0591 60.5251 28.2459C60.5251 29.4326 60.1552 30.3303 59.4153 31.0378C58.6755 31.7528 57.7091 32.1028 56.5012 32.1028C55.2932 32.1028 54.3722 31.7452 53.6172 31.0378C52.8698 30.3227 52.4923 29.3794 52.4923 28.2078L52.5075 28.2155ZM53.7531 28.2535C53.7531 29.4478 53.9872 30.3455 54.4628 30.9465C54.9384 31.5474 55.6481 31.8441 56.5918 31.8441C57.4222 31.8441 58.079 31.5474 58.5622 30.9465C59.0454 30.3455 59.287 29.4554 59.287 28.2687C59.287 27.082 59.0529 26.2299 58.5773 25.6138C58.1017 24.9976 57.4147 24.6933 56.5087 24.6933C55.6028 24.6933 54.9384 24.9976 54.4703 25.5909C53.9947 26.1919 53.7607 27.082 53.7607 28.2535H53.7531Z" fill="var(--fill-0, #2B2B2B)"/>
<path d="M67.9313 30.6954L70.6189 24.5487H72.8838V24.7998H72.612C72.2496 24.7998 72.0156 24.8302 71.9024 24.8911C71.7891 24.9519 71.7136 25.066 71.6759 25.2258C71.6381 25.3931 71.6155 25.7811 71.6155 26.3973V30.0412C71.6155 30.627 71.6306 31.0073 71.6608 31.1899C71.691 31.3725 71.7665 31.5018 71.8797 31.5931C71.993 31.6844 72.2195 31.7224 72.5592 31.7224H72.8838V31.9735H69.3582V31.7224H69.6224C69.9319 31.7224 70.1509 31.6844 70.2717 31.6007C70.3924 31.517 70.4679 31.3953 70.5057 31.2279C70.5434 31.0606 70.5585 30.665 70.5585 30.0412V25.3171L67.6368 31.9811H67.3802L64.4358 25.3171V29.6685C64.4358 30.2618 64.4509 30.6726 64.4887 30.8856C64.5264 31.0986 64.6397 31.2888 64.8284 31.4562C65.0171 31.6159 65.2814 31.7148 65.6211 31.73V31.9811H62.9863V31.73C63.3034 31.7148 63.5601 31.6235 63.7564 31.4714C63.9526 31.3192 64.0734 31.129 64.1187 30.9008C64.164 30.6726 64.1867 30.2542 64.1867 29.638V26.4049C64.1867 25.8116 64.1716 25.4312 64.1338 25.2562C64.0961 25.0812 64.0281 24.9671 63.9149 24.8987C63.8017 24.8302 63.5601 24.7998 63.1901 24.7998H62.9863V24.5487H65.2285L67.9313 30.6954Z" fill="var(--fill-0, #2B2B2B)"/>
<path d="M79.5652 29.2424H76.7643L76.5756 29.7141C76.2962 30.3988 76.1528 30.84 76.1528 31.053C76.1528 31.2736 76.2283 31.4486 76.3793 31.5627C76.5303 31.6768 76.719 31.7376 76.9606 31.7376V31.9887H74.7712V31.7376C75.0959 31.6844 75.3374 31.5703 75.496 31.3877C75.6545 31.2051 75.8508 30.8248 76.0698 30.2466C76.0849 30.1934 76.1754 29.9803 76.334 29.6076L78.4781 24.4498H78.6895L81.1506 30.3531L81.4904 31.1291C81.5659 31.304 81.6716 31.441 81.7999 31.5398C81.9282 31.6387 82.1245 31.7072 82.3812 31.73V31.9811H79.4822V31.73C79.837 31.73 80.0786 31.7072 80.1994 31.654C80.3277 31.6007 80.3881 31.4942 80.3881 31.3421C80.3881 31.2584 80.3051 31.0225 80.139 30.627L79.5728 29.25L79.5652 29.2424ZM79.4746 28.9914L78.1685 25.8268L76.87 28.9914H79.4746Z" fill="var(--fill-0, #2B2B2B)"/>
<path d="M8.71223 8.60385C10.728 8.756 12.2303 9.25808 13.2042 10.1253C14.1857 10.9849 14.6689 12.0652 14.6689 13.3584C14.6689 14.4843 14.3367 15.458 13.6723 16.272C13.008 17.086 12.1624 17.6185 11.1206 17.8695C10.0787 18.1206 8.69714 18.2423 6.96073 18.2423H0V17.6337H0.679464C1.44197 17.6337 1.9629 17.5348 2.25733 17.3446C2.55176 17.1545 2.73295 16.8502 2.816 16.4394C2.8915 16.0286 2.93679 15.0777 2.93679 13.579V4.86867C2.93679 3.41568 2.8915 2.47998 2.816 2.05397C2.73295 1.62796 2.55931 1.33888 2.29508 1.17913C2.03084 1.01938 1.44197 0.943305 0.543571 0.943305H0.203839V0.334721L3.12553 0.258648L6.45491 0.152146C11.3093 0.152146 13.7403 1.5595 13.7403 4.37419C13.7403 5.53811 13.325 6.4662 12.487 7.17368C11.649 7.88116 10.3958 8.35281 8.71978 8.59624L8.71223 8.60385ZM5.50366 8.35281C5.72259 8.36042 5.90379 8.36802 6.05478 8.36802C7.94218 8.36802 9.23316 8.07134 9.92017 7.47036C10.6072 6.86939 10.9545 5.90326 10.9545 4.56438C10.9545 3.62868 10.8186 2.90599 10.5468 2.3963C10.275 1.88661 9.86732 1.49103 9.3313 1.21717C8.78773 0.943305 7.86668 0.798766 6.55305 0.798766C6.21332 0.798766 5.86604 0.813981 5.50366 0.836802V8.35281ZM5.50366 12.9857C5.50366 14.6821 5.53385 15.7623 5.59425 16.2188C5.65465 16.6752 5.82074 17.0251 6.08498 17.261C6.34921 17.4968 6.87768 17.6185 7.66284 17.6185C9.05952 17.6185 10.1089 17.261 10.811 16.5383C11.5131 15.8156 11.8604 14.7353 11.8604 13.2899C11.8604 11.8446 11.4678 10.7187 10.6751 10.0188C9.88242 9.31894 8.4933 8.969 6.5002 8.969C6.18312 8.969 5.85094 8.97661 5.50366 8.99182V12.9857Z" fill="var(--fill-0, #2B2B2B)"/>
<path d="M15.8995 9.16679C15.8995 6.40534 16.8205 4.18401 18.6475 2.51041C20.4821 0.836802 22.7696 0 25.5101 0C28.2506 0 30.591 0.829195 32.4482 2.47998C34.3054 4.13837 35.234 6.39013 35.234 9.25047C35.234 12.1108 34.3431 14.2713 32.569 15.9829C30.7948 17.7022 28.4544 18.5542 25.5554 18.5542C22.6563 18.5542 20.4217 17.6946 18.6098 15.9829C16.7979 14.2637 15.8995 11.9891 15.8995 9.15918V9.16679ZM18.9042 9.26569C18.9042 12.1412 19.4704 14.3017 20.618 15.7471C21.7579 17.1925 23.4641 17.9152 25.7441 17.9152C27.7448 17.9152 29.3226 17.1925 30.4853 15.7471C31.6479 14.3017 32.2292 12.1488 32.2292 9.28851C32.2292 6.42816 31.6555 4.37419 30.5155 2.89077C29.3679 1.40735 27.7146 0.669442 25.5327 0.669442C23.3509 0.669442 21.7504 1.39214 20.6104 2.84513C19.4704 4.29051 18.8966 6.43577 18.8966 9.26569H18.9042Z" fill="var(--fill-0, #2B2B2B)"/>
<path d="M51.7827 18.6531L39.2202 1.87139V14.2941C39.2202 15.3211 39.273 16.0057 39.3712 16.3253C39.4693 16.6524 39.7562 16.9491 40.2318 17.2229C40.6999 17.4968 41.4095 17.6337 42.3532 17.6337V18.2423H35.7247V17.6337C36.5703 17.5729 37.2195 17.4131 37.6649 17.1621C38.1104 16.911 38.3746 16.6372 38.4577 16.3481C38.5407 16.059 38.5784 15.3743 38.5784 14.2865V4.8002C38.5784 3.43089 38.518 2.51041 38.3897 2.03876C38.2614 1.57471 38.0651 1.27042 37.7857 1.14109C37.514 1.01177 36.8949 0.943305 35.9436 0.943305V0.334721H41.1831L51.7072 14.3397V3.63629C51.7072 2.84513 51.6241 2.2898 51.4656 1.97029C51.3071 1.65078 50.9749 1.39974 50.4766 1.21717C49.9783 1.03459 49.3819 0.943305 48.6798 0.943305V0.334721H55.1272V0.943305C54.3722 1.00416 53.7833 1.1487 53.353 1.37692C52.9227 1.60514 52.6433 1.879 52.5301 2.19851C52.4093 2.51801 52.3565 3.06574 52.3565 3.82647V18.6379H51.7902L51.7827 18.6531Z" fill="var(--fill-0, #2B2B2B)"/>
<path d="M64.8812 11.6392H58.1319L57.6714 12.7726C56.9919 14.4158 56.6522 15.4961 56.6522 15.9905C56.6522 16.5307 56.8334 16.9338 57.1957 17.2153C57.5581 17.4968 58.0262 17.6337 58.5924 17.6337V18.2423H53.3153V17.6337C54.1004 17.512 54.6893 17.2305 55.0743 16.7969C55.4593 16.3633 55.9199 15.4428 56.4634 14.0431C56.5087 13.9137 56.7201 13.4041 57.0901 12.514L62.2464 0.0836802H62.7598L68.6938 14.3017L69.5091 16.1731C69.6903 16.5991 69.9395 16.9262 70.249 17.1697C70.5585 17.4131 71.0266 17.5652 71.6457 17.6261V18.2347H64.6623V17.6261C65.5154 17.6261 66.0967 17.5652 66.3987 17.4359C66.7007 17.3066 66.8517 17.0556 66.8517 16.6752C66.8517 16.485 66.6478 15.9069 66.2477 14.9483L64.8812 11.6316V11.6392ZM64.6623 11.0458L61.5141 3.41568L58.381 11.0458H64.6623Z" fill="var(--fill-0, #2B2B2B)"/>
<path d="M86.6543 18.6531L74.0917 1.87139V14.2941C74.0917 15.3211 74.1446 16.0057 74.2427 16.3253C74.3409 16.6524 74.6278 16.9491 75.1034 17.2229C75.5715 17.4968 76.2811 17.6337 77.2248 17.6337V18.2423H70.5963V17.6337C71.4418 17.5729 72.0911 17.4131 72.5365 17.1621C72.982 16.911 73.2462 16.6372 73.3292 16.3481C73.4123 16.059 73.45 15.3743 73.45 14.2865V4.8002C73.45 3.43089 73.3896 2.51041 73.2613 2.03876C73.133 1.57471 72.9367 1.27042 72.6573 1.14109C72.3855 1.01177 71.7665 0.943305 70.8152 0.943305V0.334721H76.0546L86.5788 14.3397V3.63629C86.5788 2.84513 86.4957 2.2898 86.3372 1.97029C86.1787 1.65078 85.8465 1.39974 85.3482 1.21717C84.8499 1.03459 84.2535 0.943305 83.5514 0.943305V0.334721H89.9988V0.943305C89.2438 1.00416 88.6549 1.1487 88.2246 1.37692C87.7943 1.60514 87.5149 1.879 87.4017 2.19851C87.2809 2.51801 87.228 3.06574 87.228 3.82647V18.6379H86.6618L86.6543 18.6531Z" fill="var(--fill-0, #2B2B2B)"/>
<path d="M105.438 18.6531L92.8751 1.87139V14.2941C92.8751 15.3211 92.928 16.0057 93.0261 16.3253C93.1243 16.6524 93.4112 16.9491 93.8868 17.2229C94.3549 17.4968 95.0645 17.6337 96.0082 17.6337V18.2423H89.3797V17.6337C90.2252 17.5729 90.8745 17.4131 91.3199 17.1621C91.7654 16.911 92.0296 16.6372 92.1126 16.3481C92.1957 16.059 92.2334 15.3743 92.2334 14.2865V4.8002C92.2334 3.43089 92.173 2.51041 92.0447 2.03876C91.9163 1.57471 91.7201 1.27042 91.4407 1.14109C91.1689 1.01177 90.5499 0.943305 89.5986 0.943305V0.334721H94.838L105.362 14.3397V3.63629C105.362 2.84513 105.279 2.2898 105.121 1.97029C104.962 1.65078 104.63 1.39974 104.132 1.21717C103.633 1.03459 103.037 0.943305 102.335 0.943305V0.334721H108.782V0.943305C108.027 1.00416 107.438 1.1487 107.008 1.37692C106.578 1.60514 106.298 1.879 106.185 2.19851C106.064 2.51801 106.011 3.06574 106.011 3.82647V18.6379H105.445L105.438 18.6531Z" fill="var(--fill-0, #2B2B2B)"/>
<path d="M109.077 9.16679C109.077 6.40534 109.998 4.18401 111.825 2.51041C113.659 0.836802 115.947 0 118.687 0C121.428 0 123.768 0.829195 125.625 2.47998C127.483 4.13837 128.411 6.39013 128.411 9.25047C128.411 12.1108 127.52 14.2713 125.746 15.9829C123.972 17.7022 121.632 18.5542 118.733 18.5542C115.833 18.5542 113.599 17.6946 111.787 15.9829C109.975 14.2637 109.077 11.9891 109.077 9.15918V9.16679ZM112.074 9.26569C112.074 12.1412 112.64 14.3017 113.788 15.7471C114.928 17.1925 116.634 17.9152 118.914 17.9152C120.914 17.9152 122.492 17.1925 123.655 15.7471C124.818 14.3017 125.399 12.1488 125.399 9.28851C125.399 6.42816 124.825 4.37419 123.685 2.89077C122.538 1.40735 120.884 0.669442 118.702 0.669442C116.521 0.669442 114.92 1.39214 113.78 2.84513C112.64 4.29051 112.066 6.43577 112.066 9.26569H112.074Z" fill="var(--fill-0, #2B2B2B)"/>
</g>
</svg>
