<svg preserveAspectRatio="xMidYMid meet" width="100%" height="100%" overflow="visible" style="display: block;" viewBox="0 0 126.929 18.7678" fill="none" xmlns="http://www.w3.org/2000/svg">
<g id="imago">
<path d="M58.7783 3.56005C58.6503 4.26984 60.2659 4.14458 60.2659 4.14458C60.2659 4.14458 63.7776 4.30563 64.0276 4.29966C64.2775 4.2937 64.0154 4.04318 64.0154 4.04318L63.7044 3.93582C63.7044 3.93582 62.0279 3.58391 61.7901 3.54216C61.5523 3.5004 60.2232 3.232 60.0159 3.17235C59.8087 3.1127 59.4368 3.1306 59.0649 3.33936C58.693 3.54812 58.7783 3.56601 58.7783 3.56601" fill="var(--fill-0, #2B2B2B)"/>
<path d="M126.909 7.04339C126.829 6.76902 126.488 6.36939 126.128 6.1308C125.762 5.91011 124.695 5.85643 123.946 6.15466C123.196 6.45886 122.879 6.69148 122.385 6.76902C121.891 6.84059 116.16 7.14479 115.069 7.24022C113.978 7.34758 111.435 7.62792 110.704 7.67564C109.978 7.71739 108.57 7.69353 108.314 7.65178C108.052 7.5981 107.643 7.50266 107.302 7.44898C106.972 7.3953 106.424 7.46688 106.113 7.57424C106.015 7.61003 105.967 7.74125 105.954 7.90826C102.351 8.1707 92.9197 10.318 92.2917 10.4432C91.6576 10.5685 87.9448 11.3797 86.3901 11.7375C86.2926 11.7614 86.1828 11.7912 86.0792 11.827L86.0975 11.8032C86.4389 10.8906 86.951 9.88255 86.951 9.88255C88.8959 9.69168 89.9262 9.45906 90.481 8.38543C91.1455 7.09111 90.3712 6.06519 89.2799 6.17852C87.8472 6.34553 87.0851 7.28197 86.6218 8.12299C86.4877 8.36753 86.3109 8.69559 86.1097 9.05347C85.8475 9.08925 85.5122 9.14294 85.0915 9.20258C82.6895 9.57835 79.9155 9.5545 77.9889 9.61414C76.6964 9.65589 73.8249 9.6201 73.8249 9.6201C72.5873 9.6201 70.679 9.64396 70.679 9.64396C69.8011 9.638 68.0818 9.6201 67.4539 9.6201C66.5943 9.6201 65.0884 9.59625 64.6921 9.48888C64.2958 9.37556 63.6435 8.71945 63.6983 8.12895C63.7532 7.55038 63.9239 7.2939 63.9788 7.14479C64.0337 7.00164 63.869 6.8048 63.6983 6.65569C63.5276 6.50657 62.479 5.80275 61.1438 6.11291C59.7904 6.4171 58.9917 7.07918 58.7174 7.70546C58.4308 8.34368 58.5832 9.20258 59.0649 9.57835C59.0649 9.57835 59.138 9.76326 58.0162 9.81694C57.2115 9.85869 56.047 9.88851 55.3642 9.90641C55.3215 9.90641 55.2666 9.91237 55.2179 9.91237C55.0289 9.91834 54.9069 9.91834 54.8399 9.93027C54.5777 9.94816 51.066 10.0376 51.066 10.0376L48.3164 10.1092C48.3164 10.1092 45.5547 10.1629 45.5425 10.1629C43.1221 10.2762 42.4149 9.24433 42.1222 9.02364C41.4943 8.54051 40.8968 7.56231 39.6409 7.80686C38.8971 7.95598 38.1899 8.68366 37.44 9.36959C37.19 9.59625 37.0437 9.75729 36.6596 10.0555C36.1414 10.4074 35.7817 9.94816 35.5683 9.75133C35.0867 9.30398 34.227 8.46297 33.7881 8.14684C31.7884 6.73323 30.3679 8.39139 29.1058 9.35766C28.2828 9.95412 27.5451 9.60221 26.9354 8.9461C25.8502 7.75318 24.698 6.49464 23.1616 7.4132C22.9177 7.56231 22.6434 7.77107 22.5093 7.90229C22.1617 8.20649 19.5463 10.5506 17.9063 10.5744C17.5588 10.5804 16.8515 10.6639 16.3089 10.6699C14.0715 10.6878 10.8646 10.6162 10.3342 10.6102C9.66967 10.5864 4.77405 10.652 3.48155 10.3299C2.18296 10.0078 1.48185 9.56046 1.84155 8.48086C2.20125 7.3953 2.4878 6.26202 1.40259 5.43891C0.317384 4.61579 -0.213026 7.92615 0.0796141 8.91031C0.341771 9.76326 1.15263 10.8548 3.48155 11.1292C5.81658 11.4095 9.20632 11.2604 10.6451 11.2007C12.09 11.147 16.4614 11.4095 18.4915 11.0516C20.0035 10.7951 22.2349 9.22048 23.0945 8.54647C23.4908 8.24228 24.1127 8.07527 24.5272 8.71348C25.2284 9.79904 26.2892 11.1948 27.4902 11.1828C28.6913 11.1649 29.5387 10.5864 29.5387 10.5864C30.5934 9.94816 31.1604 9.23837 32.331 9.14294C34.2027 8.97593 35.2696 12.4831 37.3181 10.9383C38.2021 10.2702 38.7447 9.75729 39.4519 9.51274C40.7505 9.0475 41.1651 10.1867 42.3356 10.7474C43.2074 11.159 44.9755 10.992 45.8473 10.9562C45.8717 10.9562 45.89 10.9502 45.9205 10.9502C46.2802 10.9443 46.646 10.9144 47.1825 10.8965C47.4873 10.8906 49.3407 10.7713 51.6879 10.658H52.3402L57.3029 10.6162C57.3029 10.6162 60.2598 10.5029 61.7474 9.88851C62.9667 9.38152 63.0643 9.16083 63.0643 9.10118C63.107 9.17276 63.3447 9.55449 63.7776 9.85273C64.6311 10.4313 65.8078 10.3299 66.7893 10.3239C68.2343 10.3239 69.6731 10.318 71.118 10.312C71.9532 10.312 85.5854 10.4552 85.5854 10.0078C85.2744 10.7892 84.7074 12 84.6648 12.1551C83.5918 12.4175 82.5126 12.6979 81.6713 13.0498C80.2752 13.6343 77.5439 14.8034 77.4768 16.6763C77.4768 16.6763 77.7451 19.2709 80.013 18.6804C82.2688 18.1018 83.0065 17.7678 83.7868 16.8671C84.4331 16.1156 85.5793 12.8112 85.7683 12.4175C87.2376 12.0417 88.5179 11.7018 90.2127 11.3379C92.7733 10.8011 102.43 8.7612 104.57 8.62401C105.314 8.58226 105.717 8.51069 105.942 8.49876C105.96 8.64191 105.985 8.79699 105.985 8.79699C105.985 8.79699 105.893 9.05347 106.442 9.65589C106.991 10.2583 108.039 10.4909 109.539 10.4611C111.045 10.4373 111.204 9.19662 111.204 8.89242C111.204 8.58823 110.74 8.16474 110.74 8.16474L114.24 7.90826L118.026 7.75318C118.026 7.75318 122.031 7.55038 122.824 7.55038C123.616 7.55038 124.232 7.77704 124.543 8.05737C124.854 8.33771 125.555 8.48683 125.555 8.48683C127.165 8.71348 126.951 7.32373 126.878 7.04339H126.909ZM88.6764 7.51459C89.3409 7.63985 89.0727 8.5763 88.5666 8.68962C87.9387 8.83278 87.3473 8.88049 87.3473 8.88049C87.5424 8.44507 88.0118 7.38337 88.6703 7.51459H88.6764ZM61.7413 8.70155C61.345 9.05943 60.9183 9.23837 60.022 9.28012C59.26 9.31591 59.0832 8.77313 59.1075 8.49876C59.1502 8.11106 59.5526 7.71143 59.9306 7.50266C60.1562 7.37144 60.4976 7.29987 60.4976 7.29987C60.8451 7.24022 61.2414 7.22829 61.656 7.50266C62.0035 7.72932 62.0888 8.38543 61.7474 8.70155H61.7413ZM81.5311 16.4615C79.4704 17.0401 76.5806 17.2608 79.1656 15.0479C79.1656 15.0479 80.897 13.5568 83.6893 12.9126C83.9576 12.8529 84.2197 12.7873 84.4697 12.7277C83.9941 13.9743 83.0979 16.0142 81.5311 16.4615ZM108.85 9.56046C108.259 9.56046 107.796 9.50081 107.289 9.29802C106.79 9.09522 106.905 8.72541 107.113 8.66577C107.32 8.61208 107.527 8.52261 107.527 8.43911C107.527 8.35561 108.003 8.38543 108.003 8.38543C108.466 8.32578 108.942 8.61208 109.149 8.79102C109.356 8.95803 109.442 9.56046 108.856 9.56046H108.85Z" fill="var(--fill-0, #2B2B2B)"/>
<path d="M1.55501 0.0767104C0.457607 0.619491 1.7501 3.00534 1.7501 3.00534C3.42059 2.01521 2.65241 -0.46607 1.55501 0.0767104Z" fill="var(--fill-0, #2B2B2B)"/>
</g>
</svg>
