<svg preserveAspectRatio="xMidYMid meet" width="100%" height="100%" overflow="visible" style="display: block;" viewBox="0 0 116.064 40.005" fill="none" xmlns="http://www.w3.org/2000/svg">
<g id="hassler">
<path d="M40.5149 2.83521C40.5149 1.37859 40.4699 1.11848 40.457 0.819348C40.4377 0.500713 40.3412 0.351149 40.0389 0.286122C39.9681 0.266613 39.8009 0.260111 39.7172 0.260111C39.6786 0.260111 39.64 0.240602 39.64 0.201586C39.64 0.143061 39.6851 0.130055 39.788 0.130055C40.2061 0.130055 40.7851 0.156066 40.8301 0.156066C40.9331 0.156066 41.6343 0.130055 41.9173 0.130055C42.4963 0.130055 43.1139 0.18858 43.6028 0.539729C43.8343 0.708801 44.2396 1.16399 44.2396 1.80777C44.2396 2.49706 43.9566 3.18635 43.1203 3.96018C43.8794 4.9421 44.5034 5.76795 45.0373 6.3467C45.5327 6.87992 45.9315 6.98397 46.1631 7.01648C46.3368 7.04249 46.4654 7.04249 46.5233 7.04249C46.5684 7.04249 46.607 7.01648 46.607 7.04249C46.607 7.10102 46.5491 7.0685 46.3882 7.0685H45.7321C45.2174 7.0685 44.9859 7.0685 44.7478 6.94495C44.349 6.73036 44.0273 6.30118 43.4998 5.59888C43.1139 5.08516 42.6764 4.4739 42.4963 4.2333C42.4577 4.19428 42.432 4.18128 42.3741 4.18128L41.184 4.16827C41.1389 4.16827 41.0682 4.20079 41.0682 4.2463V4.4674C41.0682 5.36478 41.1196 6.09959 41.1711 6.48976C41.1968 6.76287 41.2805 6.96446 41.5571 7.00348C41.6857 7.02299 41.9045 7.04249 41.9881 7.04249C42.046 7.04249 42.0717 7.0685 42.0717 7.10102C42.0717 7.14654 42.0267 7.17255 41.9302 7.17255C41.422 7.17255 40.843 7.14654 40.798 7.14654C40.7915 7.14654 40.2061 7.17255 39.9295 7.17255C39.8266 7.17255 39.7816 7.15304 39.7816 7.10102C39.7816 7.07501 39.8009 7.04249 39.8588 7.04249C39.9424 7.04249 40.0518 7.02299 40.1354 7.00348C40.3219 6.96446 40.4056 6.76287 40.4442 6.48976C40.4892 6.09959 40.5342 5.35828 40.5342 4.4674V2.8287L40.5149 2.83521ZM41.0617 3.64805C41.0617 3.69357 41.1325 3.73259 41.1775 3.7586C41.3191 3.84313 41.7694 3.90816 42.1746 3.90816C42.3934 3.90816 42.67 3.88215 42.8823 3.73259C43.2039 3.51149 43.4548 3.00428 43.4548 2.29548C43.4548 1.13148 42.8501 0.429182 41.8594 0.429182C41.5828 0.429182 41.2805 0.455193 41.1904 0.487707C41.1454 0.507216 41.0617 0.546232 41.0617 0.598254V3.64805Z" fill="var(--fill-0, #2B2B2B)"/>
<path d="M51.9528 0C54.0306 0 55.581 1.32656 55.581 3.49849C55.581 5.67041 54.1207 7.30911 51.9013 7.30911C49.3731 7.30911 48.3246 5.32576 48.3246 3.64155C48.3181 2.13291 49.4117 0 51.9528 0ZM52.1458 6.95796C52.9756 6.95796 54.6932 6.47025 54.6932 3.7586C54.6932 1.52165 53.3487 0.318635 51.8884 0.318635C50.351 0.318635 49.193 1.34607 49.193 3.38794C49.193 5.55986 50.4861 6.95796 52.1458 6.95796Z" fill="var(--fill-0, #2B2B2B)"/>
<path d="M66.427 5.98904C66.4656 6.32719 66.5299 6.84741 66.9223 6.97746C67.1925 7.062 67.4305 7.062 67.5206 7.062C67.5656 7.062 67.5913 7.0685 67.5913 7.10752C67.5913 7.16605 67.5077 7.19206 67.3984 7.19206C67.1925 7.19206 66.2018 7.18555 65.8544 7.15304C65.6422 7.13353 65.5971 7.10752 65.5971 7.062C65.5971 7.02298 65.6164 7.00348 65.6615 6.99697C65.7065 6.99047 65.7194 6.8344 65.7001 6.67183L65.2562 1.84028H65.2304L62.9725 6.67834C62.7795 7.08801 62.7537 7.16605 62.6701 7.16605C62.6058 7.16605 62.5608 7.0685 62.3871 6.73686C62.149 6.28167 61.3514 4.62997 61.3063 4.53243C61.2227 4.36335 60.187 2.1134 60.0905 1.83378H60.0519L59.6852 6.19713C59.6788 6.3467 59.6788 6.53528 59.6788 6.69134C59.6788 6.8344 59.7817 6.96446 59.9168 6.99047C60.0712 7.02949 60.2127 7.04249 60.2706 7.04249C60.3092 7.04249 60.3414 7.062 60.3414 7.09451C60.3414 7.15954 60.2835 7.17905 60.1741 7.17905C59.8332 7.17905 59.3893 7.15304 59.3185 7.15304C59.2349 7.15304 58.791 7.17905 58.5466 7.17905C58.4565 7.17905 58.3922 7.15954 58.3922 7.09451C58.3922 7.0685 58.4372 7.049 58.4822 7.049C58.553 7.049 58.6238 7.049 58.7589 7.02298C59.0612 6.96446 59.0934 6.6003 59.1255 6.24916L59.7881 0.169072C59.7946 0.0650276 59.8332 0 59.8911 0C59.949 0 59.9811 0.0390166 60.0326 0.143061L62.8567 6.00855L65.5585 0.149564C65.5971 0.0650276 65.6357 0 65.7001 0C65.7644 0 65.7901 0.0715304 65.8094 0.253608L66.427 5.98904Z" fill="var(--fill-0, #2B2B2B)"/>
<path d="M72.6091 0.364155C72.7184 0.0585249 72.757 0 72.8149 0C72.8728 0 72.905 0.0455193 73.0208 0.338144C73.1623 0.689293 74.6097 4.54543 75.1694 5.96303C75.5039 6.79539 75.7677 6.94495 75.9607 6.99697C76.1022 7.04249 76.2373 7.0555 76.3273 7.0555C76.3852 7.0555 76.4174 7.062 76.4174 7.11402C76.4174 7.17255 76.3338 7.18555 76.2309 7.18555C76.0893 7.18555 75.4203 7.18555 74.7834 7.16605C74.6097 7.15954 74.5068 7.15954 74.5068 7.10102C74.5068 7.062 74.5325 7.04249 74.5711 7.03599C74.629 7.01648 74.6805 6.93195 74.629 6.78238L73.7735 4.43489C73.7542 4.39587 73.7349 4.32434 73.6898 4.32434H71.7085C71.6634 4.32434 71.6377 4.40887 71.6184 4.45439L71.0652 6.13211C70.9815 6.36621 70.9365 6.61981 70.9365 6.78238C70.9365 6.97096 71.1295 7.08151 71.2903 7.08151H71.3804C71.4447 7.08151 71.4704 7.08151 71.4704 7.12053C71.4704 7.17905 71.4125 7.18555 71.3289 7.18555C71.1102 7.18555 70.7114 7.15304 70.6084 7.15304C70.5055 7.15304 69.9973 7.17905 69.5663 7.17905C69.4441 7.17905 69.3926 7.15954 69.3926 7.10102C69.3926 7.062 69.4312 7.04249 69.4762 7.04249C69.5405 7.04249 69.6692 7.03599 69.7464 7.02299C70.171 6.96446 70.3575 6.61331 70.5184 6.14511L72.6155 0.357652L72.6091 0.364155ZM73.5676 4.04472C73.6126 4.04472 73.6126 4.04472 73.6062 4.0057L72.7313 1.50214C72.6863 1.35908 72.6413 1.36558 72.5898 1.50214L71.7792 3.9992C71.7599 4.04472 71.7792 4.04472 71.805 4.04472H73.5676Z" fill="var(--fill-0, #2B2B2B)"/>
<path d="M27.5782 39.8814C27.5139 39.8489 27.5139 39.8359 27.5139 39.7124C27.5139 39.4913 27.5332 39.3157 27.5396 39.2442C27.5396 39.1987 27.5525 39.1726 27.5782 39.1726C27.6039 39.1726 27.6168 39.1857 27.6168 39.2247C27.6168 39.2637 27.6168 39.3222 27.6297 39.3872C27.7004 39.7124 28.0414 39.8229 28.3437 39.8229C28.794 39.8229 29.0256 39.5693 29.0256 39.2312C29.0256 38.893 28.8584 38.763 28.4531 38.4573L28.2472 38.3013C27.7583 37.9306 27.5975 37.6575 27.5975 37.3519C27.5975 36.8317 28.0028 36.5195 28.601 36.5195C28.7812 36.5195 28.9613 36.5455 29.0706 36.5715C29.1607 36.591 29.1929 36.5911 29.2315 36.5911C29.2701 36.5911 29.2765 36.5911 29.2765 36.6236C29.2765 36.6431 29.2572 36.7926 29.2572 37.0918C29.2572 37.1568 29.2572 37.1893 29.2186 37.1893C29.18 37.1893 29.18 37.1698 29.18 37.1308C29.18 37.0788 29.1414 36.9617 29.1157 36.9097C29.0835 36.8577 28.9356 36.6886 28.5303 36.6886C28.2022 36.6886 27.9256 36.8577 27.9256 37.1698C27.9256 37.4494 28.0671 37.612 28.511 37.9176L28.6396 38.0087C29.1929 38.3923 29.3794 38.6979 29.3794 39.0751C29.3794 39.3352 29.2829 39.6148 28.9549 39.8294C28.7619 39.953 28.4788 39.9855 28.2344 39.9855C28.0221 39.9855 27.7583 39.953 27.5718 39.8684" fill="var(--fill-0, #2B2B2B)"/>
<path d="M31.7854 38.6524C31.7854 39.0816 31.8497 39.4263 31.869 39.6083C31.8819 39.7384 31.9398 39.8229 32.0749 39.8424C32.1392 39.8554 32.255 39.8619 32.3 39.8619C32.3322 39.8619 32.345 39.8814 32.345 39.901C32.345 39.9205 32.3257 39.94 32.2743 39.94C32.0298 39.94 31.7403 39.927 31.7146 39.927C31.6953 39.927 31.3801 39.94 31.245 39.94C31.1935 39.94 31.1742 39.927 31.1742 39.901C31.1742 39.888 31.1871 39.8684 31.2128 39.8684C31.2514 39.8684 31.3029 39.8554 31.3479 39.8489C31.438 39.8294 31.4702 39.7384 31.4894 39.6083C31.5087 39.4263 31.5152 39.0751 31.5152 38.6524V36.7926L30.8526 36.8056C30.5695 36.8056 30.4602 36.8447 30.3894 36.9487C30.3379 37.0267 30.3315 37.0593 30.3186 37.0918C30.3058 37.1308 30.2929 37.1308 30.2736 37.1308C30.2608 37.1308 30.2415 37.1178 30.2415 37.0918C30.2415 37.0462 30.3315 36.6496 30.3379 36.6106C30.3379 36.5845 30.3701 36.526 30.383 36.526C30.4151 36.526 30.4602 36.565 30.5824 36.578C30.7111 36.5911 30.8847 36.5976 30.9362 36.5976H32.6474C32.7953 36.5976 32.8983 36.5845 32.969 36.578C33.0334 36.565 33.0784 36.5585 33.0977 36.5585C33.117 36.5585 33.117 36.5845 33.117 36.6106C33.117 36.7471 33.1041 37.0658 33.1041 37.1178C33.1041 37.1568 33.0848 37.1763 33.0655 37.1763C33.0462 37.1763 33.0334 37.1633 33.0269 37.0983V37.0527C33.0076 36.9162 32.8468 36.8186 32.4094 36.8056L31.7789 36.7926V38.6524H31.7854Z" fill="var(--fill-0, #2B2B2B)"/>
<path d="M35.0083 36.6821C35.0662 36.539 35.0855 36.513 35.1177 36.513C35.1627 36.513 35.182 36.578 35.227 36.6756C35.3106 36.8642 36.0376 38.6914 36.3142 39.3612C36.4814 39.7579 36.6037 39.8164 36.7002 39.8489C36.7645 39.8684 36.8353 39.8749 36.8803 39.8749C36.906 39.8749 36.9382 39.888 36.9382 39.914C36.9382 39.94 36.8867 39.953 36.8353 39.953C36.7709 39.953 36.43 39.953 36.1212 39.94C36.0311 39.94 35.9604 39.94 35.9604 39.9075C35.9604 39.888 35.9732 39.888 35.9925 39.8749C36.0183 39.8619 36.0633 39.8294 36.0311 39.7579L35.6259 38.7955C35.6259 38.7955 35.613 38.8215 35.5873 38.8215H34.5387C34.5387 38.8215 34.5001 38.7825 34.4937 38.8085L34.2363 39.4913C34.1977 39.6018 34.172 39.7189 34.172 39.7969C34.172 39.888 34.2492 39.927 34.3264 39.927H34.365C34.4036 39.927 34.41 39.9205 34.41 39.94C34.41 39.966 34.3843 39.966 34.3457 39.966C34.2363 39.966 33.9919 39.9465 33.9404 39.9465C33.8954 39.9465 33.6702 39.9595 33.4837 39.9595C33.4258 39.9595 33.3936 39.9465 33.3936 39.9205C33.3936 39.901 33.4129 39.8814 33.4322 39.8814C33.4644 39.8814 33.5287 39.8815 33.5673 39.8684C33.7732 39.8424 33.8632 39.6864 33.9469 39.4588L35.0147 36.6886L35.0083 36.6821ZM35.5165 38.5354C35.5165 38.5354 35.5358 38.5224 35.5294 38.4964L35.0791 37.2803C35.0533 37.2153 35.0276 37.2088 35.0019 37.2803L34.5773 38.4964C34.5773 38.4964 34.5773 38.5354 34.5901 38.5354H35.5165Z" fill="var(--fill-0, #2B2B2B)"/>
<path d="M38.3341 38.6524C38.3341 39.0816 38.2698 39.4263 38.2891 39.6083C38.302 39.7384 38.2891 39.8229 38.4242 39.8424C38.4885 39.8554 38.5722 39.8619 38.6172 39.8619C38.6429 39.8619 38.6429 39.8815 38.6429 39.901C38.6429 39.9205 38.6172 39.94 38.5657 39.94C38.3148 39.94 38.0189 39.927 37.9996 39.927C37.9739 39.927 37.6908 39.94 37.5493 39.94C37.5043 39.94 37.4786 39.927 37.4786 39.901C37.4786 39.888 37.4914 39.8619 37.5172 39.8619C37.5558 39.8619 37.6137 39.8489 37.6587 39.8424C37.7487 39.8229 37.7616 39.7384 37.7745 39.6083C37.7938 39.4263 37.8002 39.0751 37.8002 38.6524V37.8721C37.8002 37.1828 37.8002 37.0593 37.7938 36.9162C37.7809 36.7666 37.7487 36.6951 37.6522 36.6756C37.6008 36.6626 37.5429 36.6626 37.5107 36.6626C37.4914 36.6626 37.4721 36.6431 37.4721 36.6236C37.4721 36.5976 37.4914 36.5845 37.5429 36.5845C37.6908 36.5845 37.9739 36.5976 37.9996 36.5976C38.0189 36.5976 38.3148 36.5845 38.4564 36.5845C38.5078 36.5845 38.5271 36.5976 38.5271 36.6236C38.5271 36.6366 38.5078 36.6626 38.4885 36.6626C38.4564 36.6626 38.4242 36.6626 38.3727 36.6756C38.2505 36.7016 38.2891 36.7666 38.2762 36.9227C38.2762 37.0658 38.3341 37.1893 38.3341 37.8786V38.6589V38.6524Z" fill="var(--fill-0, #2B2B2B)"/>
<path d="M39.9746 37.8721C39.9746 37.1828 40.0196 37.0593 40.0067 36.9162C39.9939 36.7666 39.9939 36.6951 39.8395 36.6691C39.8009 36.6691 39.7365 36.6561 39.6979 36.6561C39.6851 36.6561 39.6658 36.6366 39.6658 36.6171C39.6658 36.5911 39.6915 36.578 39.743 36.578C39.9488 36.578 40.2576 36.5911 40.2833 36.5911C40.3284 36.5911 40.7144 36.578 40.8494 36.578C41.1389 36.578 41.4606 36.6041 41.6922 36.7731C41.808 36.8577 42.0074 37.0723 42.0074 37.3779C42.0074 37.703 41.8723 38.0217 41.4477 38.3858C41.8208 38.854 42.136 39.2572 42.3934 39.5303C42.6378 39.7774 42.7858 39.8229 42.9016 39.8359C42.9916 39.8489 43.0367 39.8489 43.0624 39.8489C43.0881 39.8489 43.101 39.8554 43.101 39.8749C43.101 39.901 43.0753 39.901 42.9916 39.901H42.7086C42.4513 39.901 42.3355 39.888 42.2261 39.8229C42.0331 39.7189 41.8659 39.5108 41.6085 39.1792C41.4155 38.9386 41.2161 38.6589 41.1196 38.5354C41.1003 38.5159 41.0875 38.5094 41.0553 38.5094H40.5149C40.5149 38.5094 40.5149 38.5094 40.5149 38.5354V38.6394C40.5149 39.0686 40.4828 39.4133 40.5021 39.5953C40.5149 39.7254 40.5278 39.8099 40.6629 39.8294C40.7272 39.8424 40.8108 39.8489 40.8559 39.8489C40.888 39.8489 40.888 39.8684 40.888 39.888C40.888 39.9075 40.8623 39.927 40.8108 39.927C40.5664 39.927 40.2769 39.914 40.2512 39.914C40.2512 39.914 39.9424 39.927 39.8009 39.927C39.7558 39.927 39.7301 39.914 39.7301 39.888C39.7301 39.875 39.743 39.8489 39.7687 39.8489C39.8073 39.8489 39.8652 39.8359 39.9102 39.8294C40.0003 39.8099 39.9681 39.7254 39.9874 39.5953C40.0132 39.4133 39.9681 39.0621 39.9681 38.6394V37.8591L39.9746 37.8721ZM40.5149 38.2493C40.5149 38.2493 40.4892 38.2883 40.5149 38.3078C40.5793 38.3468 40.798 38.3728 40.9974 38.3728C41.1068 38.3728 41.2226 38.3728 41.3319 38.2948C41.4863 38.1907 41.6021 37.9566 41.6021 37.6185C41.6021 37.0658 41.2998 36.7471 40.8173 36.7471C40.6822 36.7471 40.5728 36.7601 40.5278 36.7731C40.5085 36.7861 40.5278 36.7991 40.5278 36.8252V38.2493H40.5149Z" fill="var(--fill-0, #2B2B2B)"/>
<path d="M46.6005 39.3612H46.6198C46.7356 38.8085 47.1409 37.677 47.3017 37.1048C47.3468 36.9357 47.3532 36.8642 47.3532 36.8121C47.3532 36.7341 47.3146 36.6691 47.1087 36.6691C47.083 36.6691 47.0701 36.6366 47.0701 36.6236C47.0701 36.6041 47.0894 36.5911 47.1473 36.5911C47.3789 36.5911 47.5719 36.5976 47.6105 36.5976C47.6427 36.5976 47.8357 36.5845 47.9772 36.5845C48.0158 36.5845 48.0415 36.5976 48.0415 36.6106C48.0415 36.6301 48.0287 36.6561 48.0029 36.6561C47.9901 36.6561 47.9 36.6561 47.8485 36.6756C47.7134 36.7211 47.6427 36.8967 47.5526 37.1438C47.3532 37.7095 46.9029 39.1141 46.7228 39.6083C46.607 39.9335 46.5812 39.992 46.5298 39.992C46.4847 39.992 46.4397 39.9335 46.3818 39.7644L45.4941 37.3389C45.3397 37.7225 44.7285 39.3482 44.5613 39.7644C44.4841 39.953 44.4519 39.9985 44.4004 39.9985C44.3554 39.9985 44.3168 39.953 44.2268 39.6474L43.4226 37.0202C43.3519 36.7861 43.3068 36.7276 43.1846 36.6886C43.1203 36.6691 43.0109 36.6626 42.9788 36.6626C42.9595 36.6626 42.9402 36.6496 42.9402 36.6236C42.9402 36.6041 42.9723 36.5911 43.0109 36.5911C43.2489 36.5911 43.4998 36.6041 43.5449 36.6041C43.5835 36.6041 43.7893 36.5911 44.0209 36.5911C44.0852 36.5911 44.1045 36.6041 44.1045 36.6236C44.1045 36.6496 44.0788 36.6626 44.0595 36.6626C44.0209 36.6626 43.9501 36.6626 43.8987 36.6886C43.8665 36.7016 43.8343 36.7276 43.8343 36.7796C43.8343 36.8317 43.8729 37.0332 43.9244 37.2283C43.9952 37.5079 44.4583 39.0816 44.5162 39.3547H44.5291L45.4748 36.8382C45.5391 36.6626 45.5713 36.6171 45.597 36.6171C45.6291 36.6171 45.6613 36.7016 45.7192 36.8577L46.607 39.3612H46.6005Z" fill="var(--fill-0, #2B2B2B)"/>
<path d="M49.7141 36.6821C49.772 36.539 49.7913 36.513 49.8235 36.513C49.8685 36.513 49.8878 36.578 49.9328 36.6756C50.0164 36.8642 50.7434 38.6914 51.02 39.3612C51.1872 39.7579 51.3095 39.8164 51.406 39.8489C51.4703 39.8684 51.5411 39.8749 51.5861 39.8749C51.6118 39.8749 51.644 39.888 51.644 39.914C51.644 39.94 51.5925 39.953 51.5411 39.953C51.4767 39.953 51.1358 39.953 50.827 39.94C50.7369 39.94 50.6662 39.94 50.6662 39.9075C50.6662 39.888 50.679 39.888 50.6983 39.8749C50.7241 39.8619 50.7691 39.8294 50.7369 39.7579L50.3317 38.7955C50.3317 38.7955 50.3188 38.8215 50.2931 38.8215H49.2445C49.2445 38.8215 49.2059 38.7825 49.1995 38.8085L48.9421 39.4913C48.9035 39.6018 48.8778 39.7189 48.8778 39.7969C48.8778 39.888 48.955 39.927 49.0322 39.927H49.0708C49.1094 39.927 49.1158 39.9205 49.1158 39.94C49.1158 39.966 49.0901 39.966 49.0515 39.966C48.9421 39.966 48.6977 39.9465 48.6462 39.9465C48.6012 39.9465 48.376 39.9595 48.1895 39.9595C48.1316 39.9595 48.0994 39.9465 48.0994 39.9205C48.0994 39.901 48.1187 39.8814 48.138 39.8814C48.1702 39.8814 48.2345 39.8815 48.2731 39.8684C48.479 39.8424 48.569 39.6864 48.6527 39.4588L49.7205 36.6886L49.7141 36.6821ZM50.2223 38.5354C50.2223 38.5354 50.2416 38.5224 50.2352 38.4964L49.7849 37.2803C49.7591 37.2153 49.7334 37.2088 49.7077 37.2803L49.2831 38.4964C49.2831 38.4964 49.2831 38.5354 49.2959 38.5354H50.2223Z" fill="var(--fill-0, #2B2B2B)"/>
<path d="M53.0721 38.789C53.0721 38.5484 53.0078 38.4639 52.9435 38.3338C52.9049 38.2688 52.2809 37.2803 52.1265 37.0462C52.0171 36.8772 51.9013 36.7796 51.8177 36.7211C51.7534 36.6821 51.6569 36.6561 51.6247 36.6561C51.599 36.6561 51.5732 36.6366 51.5732 36.6171C51.5732 36.5976 51.5861 36.5845 51.6311 36.5845C51.7212 36.5845 52.0557 36.5976 52.0814 36.5976C52.1136 36.5976 52.3002 36.5845 52.4738 36.5845C52.5253 36.5845 52.5382 36.5976 52.5382 36.6171C52.5382 36.6301 52.506 36.6496 52.4674 36.6626C52.4288 36.6756 52.4095 36.7016 52.4095 36.7341C52.4095 36.7991 52.4417 36.8512 52.4738 36.9032L53.2973 38.2818C53.3873 38.0932 53.9599 37.1438 54.0371 37.0007C54.095 36.9032 54.1143 36.8317 54.1143 36.7731C54.1143 36.7081 54.095 36.6756 54.0435 36.6561C54.0049 36.6431 53.9792 36.6236 53.9792 36.6041C53.9792 36.5911 54.0049 36.578 54.0499 36.578C54.1657 36.578 54.3265 36.5911 54.3651 36.5911C54.3973 36.5911 54.719 36.578 54.809 36.578C54.8412 36.578 54.8669 36.5911 54.8669 36.6041C54.8669 36.6236 54.8476 36.6496 54.809 36.6496C54.7576 36.6496 54.6675 36.6626 54.5967 36.7081C54.5067 36.7601 54.4681 36.8056 54.3716 36.9292C54.2236 37.1048 53.5417 38.1452 53.4517 38.3338C53.3745 38.4899 53.3552 38.6329 53.3552 38.776V39.1531C53.3552 39.2247 53.3938 39.4133 53.4131 39.5953C53.4259 39.7254 53.471 39.8099 53.6061 39.8294C53.6704 39.8424 53.7797 39.8489 53.8248 39.8489C53.8505 39.8489 53.8634 39.8684 53.8634 39.888C53.8634 39.9075 53.8376 39.927 53.7926 39.927C53.5417 39.927 53.2458 39.914 53.2201 39.914C53.2008 39.914 52.9113 39.927 52.7762 39.927C52.7247 39.927 52.7054 39.914 52.7054 39.888C52.7054 39.875 52.7183 39.8489 52.744 39.8489C52.7826 39.8489 52.8341 39.8359 52.8791 39.8294C52.9692 39.8099 53.0335 39.7254 53.0464 39.5953C53.0593 39.4133 53.085 39.2247 53.085 39.1531V38.776L53.0721 38.789Z" fill="var(--fill-0, #2B2B2B)"/>
<path d="M58.5337 38.6524C58.5337 39.0816 58.5916 39.4263 58.6109 39.6083C58.6238 39.7384 58.6752 39.8229 58.8168 39.8424C58.8811 39.8554 58.9969 39.8619 59.0355 39.8619C59.0677 39.8619 59.0805 39.8814 59.0805 39.901C59.0805 39.9205 59.0612 39.94 59.0098 39.94C58.7653 39.94 58.4758 39.927 58.4501 39.927C58.4308 39.927 58.1156 39.94 57.9805 39.94C57.929 39.94 57.9097 39.927 57.9097 39.901C57.9097 39.888 57.9226 39.8684 57.9483 39.8684C57.9869 39.8684 58.0384 39.8554 58.0834 39.8489C58.1735 39.8294 58.2185 39.7384 58.2314 39.6083C58.2507 39.4263 58.2635 39.0751 58.2635 38.6524V36.7926L57.5945 36.8056C57.3115 36.8056 57.1957 36.8447 57.1313 36.9487C57.0799 37.0267 57.0734 37.0593 57.0541 37.0918C57.0413 37.1308 57.0284 37.1308 57.0091 37.1308C56.9962 37.1308 56.9769 37.1178 56.9769 37.0918C56.9769 37.0462 57.067 36.6496 57.0734 36.6106C57.0734 36.5845 57.1056 36.526 57.1185 36.526C57.1506 36.526 57.1957 36.565 57.3179 36.578C57.4465 36.5911 57.6202 36.5976 57.6717 36.5976H59.3829C59.5308 36.5976 59.6338 36.5845 59.7045 36.578C59.7689 36.565 59.8139 36.5585 59.8332 36.5585C59.8525 36.5585 59.8525 36.5845 59.8525 36.6106C59.8525 36.7471 59.8396 37.0658 59.8396 37.1178C59.8396 37.1568 59.8203 37.1763 59.801 37.1763C59.7817 37.1763 59.7688 37.1633 59.7624 37.0983V37.0527C59.7431 36.9162 59.5887 36.8186 59.1513 36.8056L58.5273 36.7926V38.6524H58.5337Z" fill="var(--fill-0, #2B2B2B)"/>
<path d="M62.342 36.5325C63.3649 36.5325 64.1368 37.1633 64.1368 38.1972C64.1368 39.2312 63.4099 40.005 62.3163 40.005C61.0747 40.005 60.5408 39.0621 60.5408 38.2623C60.5408 37.547 61.0876 36.5325 62.342 36.5325ZM62.445 39.8164C62.8502 39.8164 63.6737 39.5953 63.6737 38.3143C63.6737 37.2543 63.0368 36.6951 62.3163 36.6951C61.5572 36.6951 61.0104 37.1763 61.0104 38.1387C61.0104 39.1726 61.6215 39.8164 62.445 39.8164Z" fill="var(--fill-0, #2B2B2B)"/>
<path d="M70.2739 38.6524C70.2739 39.0816 70.2353 39.4263 70.2546 39.6083C70.2675 39.7384 70.2546 39.8229 70.3961 39.8424C70.4605 39.8554 70.5505 39.8619 70.5827 39.8619C70.6149 39.8619 70.6213 39.8815 70.6213 39.901C70.6213 39.9205 70.5956 39.94 70.5441 39.94C70.2996 39.94 70.0037 39.927 69.978 39.927C69.9587 39.927 69.6628 39.94 69.5277 39.94C69.4762 39.94 69.4569 39.927 69.4569 39.901C69.4569 39.888 69.4698 39.8619 69.4955 39.8619C69.5341 39.8619 69.5856 39.8489 69.6306 39.8424C69.7207 39.8229 69.7142 39.7319 69.7335 39.6018C69.7528 39.4198 69.7335 39.0881 69.7335 38.6589V38.2167C69.7335 38.2167 69.7657 38.2558 69.7528 38.2558H67.8615C67.8615 38.2558 67.8229 38.1972 67.8229 38.2167V38.6589C67.8229 39.0881 67.8229 39.4263 67.8487 39.6083C67.8615 39.7384 67.8808 39.8229 68.0159 39.8424C68.0803 39.8554 68.1832 39.8619 68.2218 39.8619C68.2475 39.8619 68.2604 39.8815 68.2604 39.901C68.2604 39.9205 68.2411 39.94 68.1896 39.94C67.9387 39.94 67.6492 39.927 67.63 39.927C67.6042 39.927 67.3147 39.94 67.1732 39.94C67.1282 39.94 67.1024 39.927 67.1024 39.901C67.1024 39.888 67.1153 39.8619 67.141 39.8619C67.1796 39.8619 67.2375 39.8489 67.2826 39.8424C67.3726 39.8229 67.4434 39.7384 67.4627 39.6083C67.4884 39.4263 67.5528 39.0751 67.5528 38.6524V37.8721C67.5528 37.1828 67.4884 37.0593 67.4756 36.9162C67.4627 36.7666 67.4048 36.6951 67.2568 36.6691C67.2182 36.6691 67.1282 36.6561 67.0832 36.6561C67.0703 36.6561 67.0381 36.6366 67.0381 36.6171C67.0381 36.5911 67.0574 36.578 67.1089 36.578C67.3147 36.578 67.6042 36.5911 67.63 36.5911C67.6492 36.5911 67.9387 36.578 68.0803 36.578C68.1317 36.578 68.151 36.5911 68.151 36.6171C68.151 36.6301 68.1317 36.6561 68.1124 36.6561C68.0803 36.6561 68.0481 36.6561 67.9966 36.6691C67.8744 36.6951 67.8422 36.7601 67.8294 36.9162C67.8294 37.0593 67.8165 37.1893 67.8165 37.8786V37.9696C67.8165 37.9696 67.8358 37.9696 67.8551 37.9696H69.7464C69.7464 37.9696 69.7271 37.9891 69.7271 37.9696V37.8786C69.7271 37.1893 69.7464 37.0528 69.74 36.9162C69.7271 36.7666 69.7207 36.6951 69.5727 36.6691C69.5341 36.6691 69.4634 36.6561 69.4248 36.6561C69.4055 36.6561 69.3926 36.6366 69.3926 36.6171C69.3926 36.5911 69.4119 36.578 69.4633 36.578C69.6628 36.578 69.9587 36.5911 69.978 36.5911C70.0037 36.5911 70.2932 36.578 70.4283 36.578C70.4798 36.578 70.5055 36.5911 70.5055 36.6171C70.5055 36.6301 70.4862 36.6561 70.4669 36.6561C70.4347 36.6561 70.409 36.6561 70.3511 36.6691C70.2353 36.6951 70.2546 36.7601 70.2417 36.9162C70.2289 37.0593 70.2739 37.1828 70.2739 37.8721V38.6524Z" fill="var(--fill-0, #2B2B2B)"/>
<path d="M71.9079 37.8721C71.9079 37.1828 71.9722 37.0593 71.9593 36.9162C71.9465 36.7666 71.9594 36.6951 71.805 36.6691C71.7664 36.6691 71.7085 36.6561 71.6634 36.6561C71.6506 36.6561 71.6377 36.6366 71.6377 36.6171C71.6377 36.5911 71.6634 36.578 71.7149 36.578C71.9208 36.578 72.2167 36.5911 72.2424 36.5911C72.2746 36.5911 73.2202 36.5911 73.3231 36.5911C73.4132 36.5911 73.4904 36.5715 73.529 36.565C73.5483 36.565 73.5676 36.5455 73.5933 36.5455C73.6062 36.5455 73.6126 36.565 73.6126 36.5845C73.6126 36.6171 73.5869 36.6691 73.574 36.7926C73.574 36.8317 73.5612 37.0332 73.5483 37.0853C73.5483 37.1048 73.529 37.1308 73.5097 37.1308C73.484 37.1308 73.4711 37.1113 73.4711 37.0723C73.4711 37.0397 73.4711 36.9682 73.4454 36.9162C73.4132 36.8447 73.3682 36.8121 73.1237 36.7796C73.0465 36.7666 72.5255 36.7666 72.474 36.7666C72.4547 36.7666 72.4547 36.7796 72.4547 36.8121V38.0152C72.4547 38.0152 72.4547 38.0607 72.474 38.0607C72.5319 38.0607 73.1302 38.0607 73.2331 38.0477C73.3424 38.0347 73.4068 38.0347 73.4518 37.9826C73.484 37.9501 73.5033 37.9241 73.5161 37.9241C73.529 37.9241 73.5419 37.9371 73.5419 37.9631C73.5419 37.9891 73.5161 38.0607 73.5033 38.2102C73.4904 38.3013 73.484 38.4638 73.484 38.4964C73.484 38.5354 73.4711 38.5809 73.4454 38.5809C73.4261 38.5809 73.4132 38.5679 73.4132 38.5419C73.4132 38.5029 73.4132 38.4508 73.3939 38.3988C73.381 38.3338 73.336 38.2818 73.1623 38.2623C73.0401 38.2493 72.5576 38.2428 72.4804 38.2428C72.4547 38.2428 72.4547 38.2558 72.4547 38.2753V38.6459C72.4547 38.7955 72.4483 39.3157 72.4547 39.4002C72.4676 39.6994 72.5448 39.7579 72.9951 39.7579C73.1109 39.7579 73.3296 39.7579 73.4454 39.7124C73.5612 39.6604 73.6255 39.5823 73.6512 39.4067C73.6641 39.3547 73.6705 39.3417 73.6963 39.3417C73.722 39.3417 73.7284 39.3807 73.7284 39.4067C73.7284 39.4328 73.6898 39.7384 73.6641 39.8359C73.6319 39.953 73.5869 39.953 73.4132 39.953C73.0723 39.953 72.8085 39.94 72.622 39.94C72.429 39.927 72.3132 39.927 72.2488 39.927C72.236 39.927 72.1523 39.927 72.0558 39.927C71.9658 39.927 71.8629 39.94 71.7921 39.94C71.7471 39.94 71.7213 39.927 71.7213 39.901C71.7213 39.888 71.7342 39.8619 71.7599 39.8619C71.7985 39.8619 71.8564 39.8489 71.9015 39.8424C71.9915 39.8294 71.9336 39.7384 71.9593 39.6083C71.9851 39.4263 71.9208 39.0751 71.9208 38.6524V37.8721H71.9079Z" fill="var(--fill-0, #2B2B2B)"/>
<path d="M75.8256 36.6821C75.8835 36.539 75.9028 36.513 75.9349 36.513C75.98 36.513 75.9993 36.578 76.0443 36.6756C76.1279 36.8642 76.8548 38.6914 77.1315 39.3612C77.2987 39.7579 77.421 39.8164 77.5174 39.8489C77.5818 39.8684 77.6525 39.8749 77.6976 39.8749C77.7233 39.8749 77.7555 39.888 77.7555 39.914C77.7555 39.94 77.704 39.953 77.6525 39.953C77.5882 39.953 77.2473 39.953 76.9385 39.94C76.8484 39.94 76.7777 39.94 76.7777 39.9075C76.7777 39.888 76.7905 39.888 76.8098 39.8749C76.8356 39.8619 76.8806 39.8294 76.8484 39.7579L76.4431 38.7955C76.4431 38.7955 76.4303 38.8215 76.4045 38.8215H75.356C75.356 38.8215 75.3174 38.7825 75.3109 38.8085L75.0536 39.4913C75.015 39.6018 74.9893 39.7189 74.9893 39.7969C74.9893 39.888 75.0665 39.927 75.1437 39.927H75.1823C75.2209 39.927 75.2273 39.9205 75.2273 39.94C75.2273 39.966 75.2016 39.966 75.163 39.966C75.0536 39.966 74.8092 39.9465 74.7577 39.9465C74.7127 39.9465 74.4875 39.9595 74.301 39.9595C74.2431 39.9595 74.2109 39.9465 74.2109 39.9205C74.2109 39.901 74.2302 39.8814 74.2495 39.8814C74.2817 39.8814 74.346 39.8815 74.3846 39.8684C74.5904 39.8424 74.6805 39.6864 74.7641 39.4588L75.832 36.6886L75.8256 36.6821ZM76.3338 38.5354C76.3338 38.5354 76.3531 38.5224 76.3466 38.4964L75.8963 37.2803C75.8706 37.2153 75.8449 37.2088 75.8191 37.2803L75.3946 38.4964C75.3946 38.4964 75.3946 38.5354 75.4074 38.5354H76.3338Z" fill="var(--fill-0, #2B2B2B)"/>
<path d="M79.6017 39.3612C79.8655 38.7695 80.4573 37.2543 80.5538 36.9357C80.5731 36.8707 80.5924 36.8056 80.5924 36.7666C80.5924 36.7276 80.5795 36.6886 80.5281 36.6756C80.4766 36.6626 80.4252 36.6626 80.3737 36.6626C80.348 36.6626 80.3222 36.6496 80.3222 36.6236C80.3222 36.5976 80.3544 36.5845 80.4252 36.5845C80.6053 36.5845 80.8111 36.5976 80.869 36.5976C80.8948 36.5976 81.0878 36.5845 81.2228 36.5845C81.2679 36.5845 81.2936 36.5976 81.2936 36.6171C81.2936 36.6366 81.2807 36.6561 81.2421 36.6561C81.21 36.6561 81.1071 36.6561 81.0234 36.7081C80.9591 36.7471 80.8883 36.8121 80.7725 37.1113C80.7211 37.2348 80.5023 37.7681 80.2643 38.3078C79.9877 38.9516 79.7883 39.4328 79.6789 39.6539C79.5567 39.9205 79.531 39.9855 79.4859 39.9855C79.4345 39.9855 79.4023 39.927 79.3187 39.7124L78.2058 37.0007C78.1028 36.7536 78.0385 36.7016 77.8906 36.6691C77.8198 36.6561 77.7426 36.6561 77.7169 36.6561C77.6911 36.6561 77.6783 36.6301 77.6783 36.6171C77.6783 36.5911 77.7233 36.5845 77.7941 36.5845C78.0128 36.5845 78.2701 36.5976 78.328 36.5976C78.373 36.5976 78.5725 36.5845 78.7526 36.5845C78.8362 36.5845 78.8748 36.5976 78.8748 36.6171C78.8748 36.6366 78.8619 36.6561 78.8298 36.6561C78.7783 36.6561 78.7076 36.6561 78.6625 36.6756C78.6175 36.6951 78.6111 36.7211 78.6111 36.7536C78.6111 36.8121 78.669 36.9487 78.7333 37.1243L79.5889 39.3547L79.6017 39.3612Z" fill="var(--fill-0, #2B2B2B)"/>
<path d="M82.2843 37.8721C82.2843 37.1828 82.2586 37.0593 82.2457 36.9162C82.2328 36.7666 82.1942 36.6951 82.0463 36.6691C82.0077 36.6691 81.924 36.6561 81.8854 36.6561C81.8726 36.6561 81.8468 36.6366 81.8468 36.6171C81.8468 36.5911 81.8661 36.578 81.9176 36.578C82.1235 36.578 82.4194 36.5911 82.4451 36.5911C82.4773 36.5911 83.4229 36.5911 83.5259 36.5911C83.6159 36.5911 83.6931 36.5715 83.7317 36.565C83.751 36.565 83.7703 36.5455 83.796 36.5455C83.8089 36.5455 83.8153 36.565 83.8153 36.5845C83.8153 36.6171 83.7896 36.6691 83.7767 36.7926C83.7767 36.8317 83.7639 37.0332 83.751 37.0853C83.751 37.1048 83.7317 37.1308 83.7124 37.1308C83.6867 37.1308 83.6738 37.1113 83.6738 37.0723C83.6738 37.0397 83.6738 36.9682 83.6481 36.9162C83.6159 36.8447 83.5709 36.8121 83.3264 36.7796C83.2492 36.7666 82.6767 36.7666 82.6252 36.7666C82.6059 36.7666 82.5545 36.7796 82.5545 36.8121V38.0152C82.5545 38.0152 82.5995 38.0607 82.6252 38.0607C82.6831 38.0607 83.3007 38.0607 83.4036 38.0477C83.513 38.0347 83.5902 38.0347 83.6352 37.9826C83.6674 37.9501 83.6931 37.9241 83.706 37.9241C83.7188 37.9241 83.7317 37.9371 83.7317 37.9631C83.7317 37.9891 83.706 38.0607 83.6996 38.2102C83.6867 38.3013 83.6803 38.4638 83.6803 38.4964C83.6803 38.5354 83.6674 38.5809 83.6416 38.5809C83.6223 38.5809 83.6095 38.5679 83.6095 38.5419C83.6095 38.5029 83.6095 38.4508 83.5902 38.3988C83.5773 38.3338 83.5323 38.2818 83.3586 38.2623C83.2364 38.2493 82.7089 38.2428 82.6317 38.2428C82.6059 38.2428 82.5545 38.2558 82.5545 38.2753V38.6459C82.5545 38.7955 82.5931 39.3157 82.5995 39.4002C82.6124 39.6994 82.7153 39.7579 83.1656 39.7579C83.2814 39.7579 83.513 39.7579 83.6288 39.7124C83.7446 39.6604 83.8153 39.5823 83.8411 39.4067C83.8539 39.3547 83.8668 39.3417 83.8925 39.3417C83.9183 39.3417 83.9247 39.3807 83.9247 39.4067C83.9247 39.4328 83.8925 39.7384 83.8668 39.8359C83.8346 39.953 83.7896 39.953 83.6159 39.953C83.275 39.953 83.0112 39.94 82.8247 39.94C82.6317 39.927 82.5159 39.927 82.4516 39.927C82.4387 39.927 82.3551 39.927 82.2586 39.927C82.1685 39.927 82.0656 39.94 81.9948 39.94C81.9498 39.94 81.924 39.927 81.924 39.901C81.924 39.888 81.9369 39.8619 81.9626 39.8619C82.0012 39.8619 82.0591 39.8489 82.1042 39.8424C82.1942 39.8294 82.2264 39.7384 82.2457 39.6083C82.2714 39.4263 82.2972 39.0751 82.2972 38.6524V37.8721H82.2843Z" fill="var(--fill-0, #2B2B2B)"/>
<path d="M85.5201 39.3352C85.5329 39.6994 85.5715 39.8099 85.6938 39.8424C85.7774 39.8619 85.8803 39.8684 85.9189 39.8684C85.9382 39.8684 85.9575 39.8815 85.9575 39.9075C85.9575 39.9335 85.9254 39.9465 85.8739 39.9465C85.6166 39.9465 85.4364 39.9335 85.3914 39.9335C85.3464 39.9335 85.1598 39.9465 84.954 39.9465C84.9089 39.9465 84.8832 39.9465 84.8832 39.9075C84.8832 39.888 84.8961 39.8684 84.9218 39.8684C84.9604 39.8684 85.0633 39.8684 85.1341 39.8424C85.2499 39.8099 85.2885 39.6929 85.2885 39.2897V36.7536C85.2885 36.578 85.2885 36.5325 85.3271 36.5325C85.3786 36.5325 85.4429 36.6236 85.4879 36.6691C85.5587 36.7406 86.2148 37.4494 86.916 38.1777C87.3663 38.6459 87.8488 39.1726 87.9839 39.3157L87.9389 37.0983C87.9389 36.8121 87.9067 36.7146 87.7652 36.6886C87.6816 36.6756 87.5786 36.6691 87.5465 36.6691C87.5143 36.6691 87.5079 36.6431 87.5079 36.6301C87.5079 36.6041 87.5465 36.5976 87.5979 36.5976C87.8038 36.5976 88.0225 36.6106 88.074 36.6106C88.1254 36.6106 88.2734 36.5976 88.46 36.5976C88.505 36.5976 88.5436 36.5976 88.5436 36.6301C88.5436 36.6431 88.5243 36.6691 88.4921 36.6691C88.4728 36.6691 88.4342 36.6691 88.3828 36.6821C88.2348 36.7146 88.2219 36.7991 88.2219 37.0658L88.2091 39.6604C88.2091 39.953 88.2091 39.979 88.1705 39.979C88.1254 39.979 88.0804 39.94 87.8231 39.7059C87.7781 39.6669 87.1219 39.0101 86.6459 38.5094C86.1184 37.9501 85.6101 37.4104 85.4686 37.2543L85.5201 39.3417V39.3352Z" fill="var(--fill-0, #2B2B2B)"/>
<path d="M14.0368 23.7156C14.0368 25.7054 14.0882 27.3376 14.1912 28.209C14.2555 28.8072 14.4034 29.2624 15.0146 29.347C15.3041 29.386 15.7672 29.4315 15.9474 29.4315C16.0696 29.4315 16.1211 29.4965 16.1211 29.5551C16.1211 29.6591 16.0246 29.7176 15.7994 29.7176C14.6736 29.7176 13.3806 29.6526 13.2841 29.6526C13.1876 29.6526 11.8946 29.7176 11.277 29.7176C11.0519 29.7176 10.9489 29.6786 10.9489 29.5551C10.9489 29.49 10.9875 29.4315 11.1162 29.4315C11.3028 29.4315 11.5472 29.3925 11.7338 29.347C12.1455 29.2624 12.2355 28.8072 12.3192 28.209C12.4221 27.3376 12.4092 25.7054 12.4092 23.7156V21.5437C12.4092 21.4591 12.3706 21.4331 12.3063 21.4331H3.61534C3.55101 21.4331 3.39018 21.4396 3.39018 21.5437V23.7156C3.39018 25.7054 3.44165 27.3376 3.54457 28.209C3.6089 28.8072 3.75686 29.2624 4.368 29.347C4.65748 29.386 5.12065 29.4315 5.30078 29.4315C5.423 29.4315 5.46804 29.4965 5.46804 29.5551C5.46804 29.6591 5.37154 29.7176 5.14639 29.7176C4.02061 29.7176 2.72758 29.6526 2.63109 29.6526C2.5346 29.6526 1.24157 29.7176 0.623999 29.7176C0.398845 29.7176 0.295917 29.6786 0.295917 29.5551C0.295917 29.49 0.334515 29.4315 0.463175 29.4315C0.649731 29.4315 0.894185 29.3925 1.08074 29.347C1.49245 29.2624 1.58251 28.8072 1.66614 28.209C1.76907 27.3376 1.76264 25.7054 1.76264 23.7156V20.074C1.76264 16.8422 1.76907 16.2634 1.73047 15.6001C1.69187 14.8978 1.53105 14.5662 0.855587 14.4166C0.694762 14.3776 0.347381 14.3516 0.160825 14.3516C0.0771958 14.3516 0 14.3126 0 14.228C0 14.1045 0.102928 14.0655 0.328082 14.0655C1.248 14.0655 2.54103 14.1305 2.64396 14.1305C2.74688 14.1305 4.03991 14.0655 4.65105 14.0655C4.8762 14.0655 4.97913 14.1045 4.97913 14.228C4.97913 14.3126 4.8955 14.3516 4.8183 14.3516C4.67678 14.3516 4.55455 14.3711 4.30367 14.4166C3.75043 14.5207 3.53814 14.8718 3.49311 15.6001C3.45451 16.2634 3.40305 16.8422 3.40305 20.074V20.5097C3.40305 20.6138 3.56387 20.6073 3.6282 20.6073H12.3127C12.3771 20.6073 12.4157 20.6138 12.4157 20.5097V20.074C12.4157 16.8422 12.4285 16.2634 12.3835 15.6001C12.3449 14.8978 12.1841 14.5662 11.5086 14.4166C11.3478 14.3776 11.0004 14.3516 10.8138 14.3516C10.7302 14.3516 10.653 14.3126 10.653 14.228C10.653 14.1045 10.7559 14.0655 10.9811 14.0655C11.901 14.0655 13.194 14.1305 13.297 14.1305C13.3999 14.1305 14.6929 14.0655 15.3041 14.0655C15.5292 14.0655 15.6321 14.1045 15.6321 14.228C15.6321 14.3126 15.5485 14.3516 15.4713 14.3516C15.3298 14.3516 15.2076 14.3711 14.9567 14.4166C14.4034 14.5207 14.1847 14.8718 14.1461 15.6001C14.1075 16.2634 14.0496 16.8422 14.0496 20.074V23.7156H14.0368Z" fill="var(--fill-0, #2B2B2B)"/>
<path d="M27.4624 14.7288C27.7069 14.046 27.7905 13.9224 27.9127 13.9224C28.0349 13.9224 28.1186 14.0265 28.363 14.6702C28.6718 15.4571 31.8883 24.0082 33.1363 27.1555C33.8761 28.9958 34.4679 29.3275 34.8989 29.451C35.2077 29.5551 35.5165 29.5746 35.7159 29.5746C35.8381 29.5746 35.9218 29.5941 35.9218 29.6981C35.9218 29.8217 35.7352 29.8607 35.5101 29.8607C35.2013 29.8607 33.7088 29.8607 32.2936 29.8217C31.9012 29.8022 31.676 29.8022 31.676 29.6786C31.676 29.5941 31.7403 29.5551 31.8175 29.5356C31.9398 29.4965 32.062 29.308 31.9398 28.9763L30.0356 23.8196C29.997 23.7351 29.952 23.6375 29.849 23.6375H25.4424C25.3395 23.6375 25.2816 23.7611 25.2366 23.8651L24.0079 27.5587C23.8213 28.0789 23.7184 28.6512 23.7184 29.0283C23.7184 29.4445 24.1494 29.7111 24.4968 29.7111H24.7027C24.8442 29.7111 24.9085 29.6851 24.9085 29.7697C24.9085 29.8932 24.7863 29.8997 24.5997 29.8997C24.1108 29.8997 23.2295 29.8217 23.0043 29.8217C22.7792 29.8217 21.6534 29.8737 20.6885 29.8737C20.4247 29.8737 20.2961 29.8282 20.2961 29.7046C20.2961 29.6201 20.3797 29.5811 20.4826 29.5811C20.6241 29.5811 20.9136 29.5616 21.0745 29.5356C22.0137 29.412 22.4254 28.6252 22.7921 27.5912L27.4431 14.7288H27.4624ZM29.5917 23.0848C29.6946 23.0848 29.6947 22.9873 29.6754 22.9027L27.7262 17.2908C27.6232 16.9787 27.5203 16.9722 27.4174 17.2843L25.6161 22.9092C25.5775 23.0133 25.6161 23.0848 25.6805 23.0848H29.5917Z" fill="var(--fill-0, #2B2B2B)"/>
<path d="M40.798 29.451C40.5085 29.308 40.4892 29.2234 40.4892 28.6642C40.4892 27.6302 40.5728 26.7979 40.5921 26.4662C40.6114 26.2387 40.6565 26.1346 40.7529 26.1346C40.8752 26.1346 40.8945 26.1996 40.8945 26.3622C40.8945 26.5508 40.8945 26.8369 40.9588 27.1295C41.2676 28.6642 42.6185 29.2429 43.9887 29.2429C45.9572 29.2429 46.9157 27.8123 46.9157 26.4858C46.9157 25.0551 46.3239 24.2293 44.5613 22.7597L43.6414 21.9923C41.467 20.1911 40.9781 18.91 40.9781 17.4989C40.9781 15.2815 42.6185 13.7729 45.2174 13.7729C46.0151 13.7729 46.6134 13.8574 47.1216 13.9809C47.514 14.0655 47.6748 14.085 47.8357 14.085C47.9965 14.085 48.0415 14.124 48.0415 14.228C48.0415 14.3321 47.9579 15.0149 47.9579 16.426C47.9579 16.7576 47.9193 16.9007 47.8164 16.9007C47.6941 16.9007 47.6748 16.7966 47.6555 16.6341C47.6362 16.387 47.514 15.8277 47.3918 15.6001C47.2696 15.3725 46.7163 14.5012 44.8315 14.5012C43.4162 14.5012 42.3097 15.392 42.3097 16.9007C42.3097 18.0842 42.8437 18.8255 44.8122 20.3797L45.3847 20.8349C47.8035 22.7597 48.376 24.0472 48.376 25.6989C48.376 26.5508 48.048 28.1245 46.6327 29.1389C45.7514 29.7631 44.6449 30.0103 43.5384 30.0103C42.5735 30.0103 41.6343 29.8672 40.7915 29.451" fill="var(--fill-0, #2B2B2B)"/>
<path d="M55.5424 29.451C55.2529 29.308 55.2336 29.2234 55.2336 28.6642C55.2336 27.6302 55.3172 26.7979 55.3365 26.4662C55.3558 26.2387 55.4009 26.1346 55.4973 26.1346C55.6196 26.1346 55.6389 26.1996 55.6389 26.3622C55.6389 26.5508 55.6389 26.8369 55.7032 27.1295C56.012 28.6642 57.3629 29.2429 58.7331 29.2429C60.7016 29.2429 61.6601 27.8123 61.6601 26.4858C61.6601 25.0551 61.0683 24.2293 59.3057 22.7597L58.3858 21.9923C56.2114 20.1911 55.7225 18.91 55.7225 17.4989C55.7225 15.2815 57.3629 13.7729 59.9618 13.7729C60.7595 13.7729 61.3578 13.8574 61.866 13.9809C62.2584 14.0655 62.4192 14.085 62.5801 14.085C62.7409 14.085 62.7859 14.124 62.7859 14.228C62.7859 14.3321 62.7023 15.0149 62.7023 16.426C62.7023 16.7576 62.6637 16.9007 62.5608 16.9007C62.4385 16.9007 62.4192 16.7966 62.3999 16.6341C62.3806 16.387 62.2584 15.8277 62.1362 15.6001C62.014 15.3725 61.4607 14.5012 59.5759 14.5012C58.1606 14.5012 57.0541 15.392 57.0541 16.9007C57.0541 18.0842 57.5881 18.8255 59.5566 20.3797L60.1291 20.8349C62.5479 22.7597 63.1204 24.0472 63.1204 25.6989C63.1204 26.5508 62.7924 28.1245 61.3771 29.1389C60.4958 29.7631 59.3893 30.0103 58.2828 30.0103C57.3179 30.0103 56.3787 29.8672 55.5359 29.451" fill="var(--fill-0, #2B2B2B)"/>
<path d="M73.2781 23.7221C73.2781 26.7654 73.3875 28.0919 73.7542 28.4626C74.0822 28.7942 74.629 28.9373 76.2244 28.9373C77.3116 28.9373 78.2186 28.9178 78.7076 28.313C78.9713 27.9814 79.1836 27.4612 79.2415 27.071C79.2608 26.9084 79.3058 26.8044 79.428 26.8044C79.531 26.8044 79.5503 26.8889 79.5503 27.1165C79.5503 27.3441 79.4087 28.5862 79.2415 29.1844C79.1 29.6591 79.0356 29.7436 77.9485 29.7436C76.4753 29.7436 75.4074 29.7046 74.5454 29.6786C73.6834 29.6396 73.053 29.6136 72.4547 29.6136C72.3711 29.6136 72.0237 29.6331 71.612 29.6331C71.2003 29.6526 70.7499 29.6721 70.4412 29.6721C70.216 29.6721 70.1131 29.6331 70.1131 29.5095C70.1131 29.4445 70.1517 29.386 70.2739 29.386C70.4605 29.386 70.7049 29.347 70.8915 29.3015C71.3032 29.2169 71.419 28.7617 71.5026 28.1635C71.6055 27.2921 71.6184 25.6599 71.6184 23.6701V20.0285C71.6184 16.7966 71.6055 16.2179 71.5605 15.5546C71.5219 14.8523 71.3482 14.5207 70.6728 14.3711C70.5055 14.3321 70.1581 14.3061 69.9716 14.3061C69.8879 14.3061 69.8043 14.2671 69.8043 14.1825C69.8043 14.059 69.9072 14.02 70.1324 14.02C71.0523 14.02 72.3453 14.085 72.4483 14.085C72.5512 14.085 74.0436 14.02 74.6612 14.02C74.8864 14.02 74.9893 14.059 74.9893 14.1825C74.9893 14.2671 74.9057 14.3061 74.8285 14.3061C74.6869 14.3061 74.3975 14.3256 74.153 14.3711C73.5612 14.4752 73.3682 14.8263 73.3296 15.5546C73.291 16.2179 73.2652 16.7966 73.2652 20.0285V23.7156L73.2781 23.7221Z" fill="var(--fill-0, #2B2B2B)"/>
<path d="M86.6523 20.1196C86.6523 16.8877 86.7166 16.3089 86.678 15.6456C86.6394 14.9434 86.5043 14.6117 85.8289 14.4621C85.668 14.4231 85.3335 14.3971 85.147 14.3971C85.0633 14.3971 84.9926 14.3581 84.9926 14.2736C84.9926 14.15 85.1019 14.111 85.3271 14.111C85.7967 14.111 86.3564 14.111 86.8067 14.1305L87.6494 14.1695C87.7909 14.1695 91.8694 14.1695 92.339 14.15C92.7315 14.1305 93.0531 14.085 93.2204 14.046C93.3233 14.0265 93.4069 13.9419 93.5098 13.9419C93.5742 13.9419 93.5935 14.0265 93.5935 14.1305C93.5935 14.2736 93.4905 14.5272 93.4326 15.1059C93.4133 15.314 93.3683 16.2244 93.3297 16.4715C93.3104 16.5755 93.2654 16.6991 93.1882 16.6991C93.066 16.6991 93.0274 16.5951 93.0274 16.4325C93.0274 16.2894 93.0081 15.9383 92.9051 15.6847C92.7636 15.353 92.5578 15.1059 91.4513 14.9824C91.1039 14.9434 88.8974 14.9173 88.6722 14.9173C88.5886 14.9173 88.5757 14.9824 88.5757 15.1254V20.8414C88.5757 20.9844 88.5693 21.0494 88.6722 21.0494C88.936 21.0494 91.4448 21.0494 91.9145 21.0104C92.4034 20.9714 92.6864 20.9259 92.873 20.7178C93.0145 20.5552 93.0981 20.4512 93.1753 20.4512C93.2397 20.4512 93.2783 20.4902 93.2783 20.6138C93.2783 20.7373 93.1753 21.0885 93.111 21.7713C93.0724 22.1874 93.0274 22.9548 93.0274 23.0978C93.0274 23.2669 93.0274 23.4945 92.8858 23.4945C92.7829 23.4945 92.7443 23.41 92.7443 23.3059C92.7443 23.0978 92.7443 22.8897 92.6607 22.6231C92.5771 22.3305 92.3969 21.9793 91.5928 21.9013C91.0396 21.8363 89.0389 21.7973 88.6915 21.7973C88.5886 21.7973 88.5757 21.8623 88.5757 21.9403V23.7611C88.5757 24.4634 88.5243 26.8694 88.55 27.3051C88.6143 28.7357 88.9038 29.0023 90.9109 29.0023C91.4449 29.0023 92.339 29.0023 92.873 28.7747C93.4069 28.5471 93.6449 28.131 93.7929 27.2856C93.8315 27.058 93.8701 26.9735 93.973 26.9735C94.0953 26.9735 94.0952 27.136 94.0952 27.2856C94.0952 27.4482 93.928 28.8593 93.8315 29.295C93.69 29.8347 93.5227 29.8347 92.725 29.8347C91.1875 29.8347 90.0618 29.7957 89.2641 29.7697C88.4664 29.7306 87.971 29.7046 87.6687 29.7046C87.6301 29.7046 87.2763 29.7046 86.8517 29.7241C86.44 29.7241 85.9704 29.7632 85.6616 29.7632C85.4364 29.7632 85.3335 29.7241 85.3335 29.6006C85.3335 29.5356 85.3721 29.477 85.5008 29.477C85.6873 29.477 85.9318 29.438 86.1183 29.3925C86.5301 29.308 86.5622 28.8528 86.6459 28.2545C86.7488 27.3831 86.678 25.7509 86.678 23.7611V20.1196H86.6523Z" fill="var(--fill-0, #2B2B2B)"/>
<path d="M102.484 20.0675C102.484 16.8357 102.42 16.2569 102.381 15.5936C102.342 14.8913 102.143 14.5597 101.467 14.4101C101.307 14.3711 100.94 14.3451 100.753 14.3451C100.67 14.3451 100.58 14.3061 100.58 14.2215C100.58 14.098 100.676 14.059 100.901 14.059C101.821 14.059 103.114 14.124 103.217 14.124C103.442 14.124 104.999 14.059 105.636 14.059C106.929 14.059 108.299 14.1825 109.386 14.9694C109.901 15.34 110.802 16.3545 110.802 17.7851C110.802 19.3197 110.165 20.8479 108.325 22.5711C110.004 24.743 111.4 26.5898 112.584 27.8708C113.69 29.0543 114.571 29.2819 115.08 29.36C115.472 29.425 115.755 29.425 115.877 29.425C115.98 29.425 116.064 29.4835 116.064 29.5421C116.064 29.6656 115.942 29.6981 115.575 29.6981H114.121C112.976 29.6981 112.461 29.6006 111.927 29.3145C111.046 28.8398 110.332 27.8253 109.161 26.2712C108.299 25.1332 107.341 23.7481 106.929 23.2084C106.845 23.1238 106.788 23.0848 106.665 23.0848L104.208 23.0458C104.105 23.0458 104.131 23.1108 104.131 23.2149V23.7091C104.131 25.6989 104.066 27.3311 104.169 28.2025C104.234 28.8007 104.324 29.2559 104.935 29.3405C105.224 29.3795 105.655 29.425 105.842 29.425C105.964 29.425 105.996 29.49 105.996 29.5486C105.996 29.6526 105.887 29.7111 105.662 29.7111C104.536 29.7111 103.243 29.6461 103.14 29.6461C103.121 29.6461 101.828 29.7111 101.217 29.7111C100.991 29.7111 100.888 29.6721 100.888 29.5486C100.888 29.4835 100.927 29.425 101.049 29.425C101.236 29.425 101.48 29.386 101.667 29.3405C102.079 29.2559 102.246 28.8007 102.323 28.2025C102.426 27.3311 102.49 25.6989 102.49 23.7091V20.0675H102.484ZM104.124 21.8688C104.124 21.9728 104.099 22.0574 104.201 22.1159C104.51 22.3045 105.417 22.4475 106.318 22.4475C106.807 22.4475 107.366 22.3825 107.836 22.0509C108.55 21.5567 109.078 20.4382 109.078 18.8645C109.078 16.2764 107.72 14.7223 105.527 14.7223C104.909 14.7223 104.42 14.7873 104.214 14.8458C104.111 14.8848 104.111 14.9694 104.111 15.0929V21.8623L104.124 21.8688Z" fill="var(--fill-0, #2B2B2B)"/>
</g>
</svg>
