<svg preserveAspectRatio="xMidYMid meet" width="100%" height="100%" overflow="visible" style="display: block;" viewBox="0 0 119.521 14.8167" fill="none" xmlns="http://www.w3.org/2000/svg">
<g id="eurobet">
<path d="M101.81 8.47161L99.7918 14.5119L112.041 12.9048L108.962 11.4917L112.007 8.47161H101.81Z" fill="var(--fill-0, #2B2B2B)"/>
<path d="M105.253 1.01826L103.43 6.04027L110.917 6.01256L112.74 4.03839L116.281 0L105.253 1.01826Z" fill="var(--fill-0, #2B2B2B)"/>
<path d="M119.521 4.10766L112.74 4.03839L108.033 9.22665L119.423 7.75121L119.521 4.10766Z" fill="var(--fill-0, #2B2B2B)"/>
<path d="M25.6236 7.6196C25.6236 12.1152 22.7742 14.8097 18.9331 14.8097C15.092 14.8097 12.4103 12.0875 12.4103 7.6196V1.01826H15.7206V7.6196C15.7206 10.2449 16.845 11.7896 18.9331 11.7896C21.0213 11.7896 22.2784 10.2449 22.2784 7.6196V1.01826H25.6236V7.6196Z" fill="var(--fill-0, #2B2B2B)"/>
<path d="M39.5005 6.0749C39.5005 8.04215 38.5437 9.68382 37.0841 10.4735L39.8986 14.5465H35.7572L33.7039 11.1662H31.2875V14.5465H27.9772V1.01826H34.5978C37.4123 1.01826 39.5005 3.15175 39.5005 6.0749ZM31.3224 8.17376H34.1718C35.2962 8.17376 36.1902 7.22477 36.1902 6.10261C36.1902 4.98045 35.2962 4.03146 34.1718 4.03146H31.3224V8.17376Z" fill="var(--fill-0, #2B2B2B)"/>
<path d="M55.0604 7.78585C55.0604 11.658 51.8828 14.8167 48.0068 14.8167C44.1308 14.8167 40.9531 11.6649 40.9531 7.78585C40.9531 3.90678 44.0958 0.755033 48.0068 0.755033C51.8828 0.755033 55.0604 3.94141 55.0604 7.78585ZM43.9701 7.78585C43.9701 9.98861 45.7929 11.7619 48.0068 11.7619C50.2207 11.7619 52.0155 9.98861 52.0155 7.78585C52.0155 5.58309 50.1927 3.8098 48.0068 3.8098C45.758 3.8098 43.9701 5.58309 43.9701 7.78585Z" fill="var(--fill-0, #2B2B2B)"/>
<path d="M69.1328 10.6051C69.1328 12.8079 67.7081 14.5465 63.9648 14.5465H57.2464V1.01826H63.1756C67.1494 1.01826 68.3716 2.56296 68.3716 4.75879C68.3716 6.13724 67.3799 7.12087 67.0796 7.35638C68.4065 7.9798 69.1328 9.1643 69.1328 10.6051ZM65.2219 5.15362C65.2219 4.23234 64.6283 3.8098 63.3712 3.8098H60.5218V6.63598H63.3712C64.7959 6.63598 65.2219 6.20651 65.2219 5.16055M63.5667 9.12967H60.5218V11.755H63.5667C64.8937 11.755 65.5501 11.3255 65.5501 10.4389C65.5501 9.4206 64.8867 9.12274 63.5667 9.12274" fill="var(--fill-0, #2B2B2B)"/>
<path d="M81.9132 1.01826V4.03839H74.7269V6.37276H80.719V9.19201H74.7269V11.5264H81.9132V14.5465H71.4515V1.01826H81.9132Z" fill="var(--fill-0, #2B2B2B)"/>
<path d="M96.8097 4.03839H91.942V14.5465H88.6317V4.03839H83.7639V1.01826H96.8097V4.03839Z" fill="var(--fill-0, #2B2B2B)"/>
<path d="M0 1.01826V14.5465H10.4618V11.5264H3.27541V9.19201H9.26753V6.37276H3.27541V4.03839H10.4618V1.01826H0Z" fill="var(--fill-0, #2B2B2B)"/>
</g>
</svg>
