<svg preserveAspectRatio="xMidYMid meet" width="100%" height="100%" overflow="visible" style="display: block;" viewBox="0 0 115.076 36.5478" fill="none" xmlns="http://www.w3.org/2000/svg">
<g id="treniitalia">
<path fill-rule="evenodd" clip-rule="evenodd" d="M115.069 33.0469V32.2308H112.66V36.4404H115.062V35.6028H113.576V34.7007H115.033V33.8846H113.576V33.0469H115.069ZM111.989 36.4404V32.2308H111.123L111.138 35.0014L109.161 32.2308H108.325V36.4404H109.198L109.176 33.6125L111.167 36.4404H111.989ZM106.37 34.7938H105.202L105.771 33.1328L106.37 34.7938ZM108 36.4404L106.255 32.2308H105.274L103.607 36.4404H104.596L104.906 35.5884H106.666L106.998 36.4404H108ZM103.305 32.2236H102.381V36.4332H103.305V32.2236ZM101.927 36.4404V35.6099H100.477V32.2308H99.5538V36.4404H101.927ZM97.599 34.7938H96.4305L97.0004 33.1328L97.599 34.7938ZM99.2292 36.4404L97.4836 32.2308H96.5027L94.8365 36.4404H95.8246L96.1348 35.5884H97.8948L98.2266 36.4404H99.2292ZM95.0889 33.0398V32.2308H92.3552V33.0541H93.264V36.4404H94.1801V33.0398H95.0889ZM91.9657 32.2236H91.0424V36.4332H91.9657V32.2236ZM87.912 34.3499C87.912 35.1088 87.3566 35.6887 86.6353 35.6887C85.8635 35.6887 85.2792 35.1159 85.2792 34.3499C85.2792 33.5839 85.8635 32.9968 86.6136 32.9968C87.3638 32.9968 87.912 33.5767 87.912 34.3499ZM88.8569 34.3356C88.8569 33.0684 87.8831 32.1162 86.5776 32.1162C85.272 32.1162 84.3343 33.0612 84.3343 34.3714C84.3343 35.6815 85.272 36.5406 86.6209 36.5406C87.9697 36.5406 88.8569 35.6314 88.8569 34.3356ZM84.2622 33.0398V32.2308H81.5285V33.0541H82.4373V36.4404H83.3606V33.0398H84.2694H84.2622ZM80.1724 34.7938H79.0039L79.5738 33.1328L80.1724 34.7938ZM81.8026 36.4404L80.057 32.2308H79.0761L77.4099 36.4404H78.3981L78.7082 35.5884H80.4682L80.8 36.4404H81.8026ZM77.6623 33.0398V32.2308H74.9286V33.0541H75.8374V36.4404H76.7535V33.0398H77.6623ZM74.7122 35.1517C74.7122 33.8416 73.0027 33.9633 73.0027 33.3118C73.0027 33.0899 73.1903 32.9395 73.4067 32.9395C73.6952 32.9395 73.8755 33.1257 74.0342 33.3405L74.6257 32.6818C74.265 32.3095 73.9476 32.1162 73.4067 32.1162C72.6854 32.1162 72.0434 32.5816 72.0434 33.3405C72.0434 34.0564 72.6132 34.4 73.1903 34.6792C73.3201 34.7365 73.4644 34.8009 73.5726 34.9012C73.6807 34.9942 73.7385 35.1088 73.7385 35.2591C73.7385 35.5598 73.4932 35.7603 73.2047 35.7603C72.8585 35.7603 72.6204 35.5312 72.404 35.2806L71.8054 35.9392C72.1877 36.3115 72.6204 36.5406 73.1614 36.5406C74.0053 36.5406 74.705 36.0395 74.705 35.1589L74.7122 35.1517ZM68.9779 34.3499C68.9779 35.1088 68.4225 35.6887 67.7012 35.6887C66.9294 35.6887 66.3451 35.1159 66.3451 34.3499C66.3451 33.5839 66.9294 32.9968 67.6795 32.9968C68.4297 32.9968 68.9779 33.5767 68.9779 34.3499ZM69.93 34.3356C69.93 33.0684 68.9562 32.1162 67.6507 32.1162C66.3451 32.1162 65.4074 33.0612 65.4074 34.3714C65.4074 35.6815 66.3451 36.5406 67.694 36.5406C69.0428 36.5406 69.93 35.6314 69.93 34.3356ZM65.2271 36.4404V35.6099H63.7773V32.2308H62.854V36.4404H65.2271ZM62.3852 36.4404V35.6099H60.9354V32.2308H60.0121V36.4404H62.3852ZM59.4495 33.0469V32.2308H57.0404V36.4404H59.4423V35.6028H57.9564V34.7007H59.4134V33.8846H57.9564V33.0469H59.4495ZM55.5906 34.3069C55.5906 35.1517 55.1434 35.6958 54.2634 35.6958H54.0109V32.961H54.1335C54.4725 32.961 54.8548 32.9896 55.1289 33.2116C55.4607 33.4765 55.5833 33.906 55.5833 34.3069H55.5906ZM56.4922 34.2855C56.4922 33.8702 56.3912 33.5051 56.182 33.1472C55.6843 32.3024 54.8404 32.2308 53.946 32.2308H53.0876V36.4404H54.083C54.6817 36.4404 55.2371 36.4189 55.7348 36.0395C56.2542 35.6457 56.4994 34.9155 56.4994 34.2855H56.4922ZM50.7146 33.0469V32.2308H48.3054V36.4404H50.7074V35.6028H49.2215V34.7007H50.6785V33.8846H49.2215V33.0469H50.7146ZM47.4759 32.2236H46.5527V36.4332H47.4759V32.2236ZM45.2615 32.2236L44.2012 35.2305L43.1409 32.2236H42.1311L43.718 36.4332H44.6052L46.2642 32.2236H45.2615ZM41.1285 34.3499C41.1285 35.1088 40.5731 35.6887 39.8518 35.6887C39.0728 35.6887 38.4958 35.1159 38.4958 34.3499C38.4958 33.5839 39.08 32.9968 39.8302 32.9968C40.5803 32.9968 41.1285 33.5767 41.1285 34.3499ZM42.0734 34.3356C42.0734 33.0684 41.0996 32.1162 39.7941 32.1162C38.4885 32.1162 37.5509 33.0612 37.5509 34.3714C37.5509 35.6815 38.4885 36.5406 39.8374 36.5406C41.1862 36.5406 42.0734 35.6314 42.0734 34.3356ZM36.2742 33.5123C36.2742 33.6125 36.2525 33.7199 36.1948 33.813C36.0506 34.0492 35.8197 34.0778 35.5601 34.0778H35.2283V32.9682H35.5384C35.9135 32.9682 36.2669 33.0899 36.2669 33.5194L36.2742 33.5123ZM37.4427 36.4404L36.2164 34.6506C36.3823 34.6148 36.5482 34.5718 36.6853 34.4859C37.0243 34.2711 37.1758 33.8631 37.1758 33.4765C37.1758 33.2331 37.1109 32.9825 36.9738 32.7749C36.6492 32.2737 36.065 32.2308 35.5168 32.2308H34.3266V36.4404H35.2211V34.6649L36.3463 36.4404H37.4427ZM32.9345 33.5123C32.9345 33.6125 32.9129 33.7199 32.8552 33.813C32.7109 34.0492 32.4801 34.0778 32.2277 34.0778H31.8959V32.9682H32.206C32.5811 32.9682 32.9345 33.0899 32.9345 33.5194V33.5123ZM34.1103 36.4404L32.884 34.6506C33.0499 34.6148 33.2158 34.5718 33.3529 34.4859C33.6919 34.2711 33.8362 33.8631 33.8362 33.4765C33.8362 33.2331 33.7712 32.9825 33.6342 32.7749C33.3096 32.2737 32.7254 32.2308 32.1772 32.2308H30.987V36.4404H31.8814V34.6649L33.0067 36.4404H34.1103ZM30.4388 33.0469V32.2308H28.0297V36.4404H30.4316V35.6028H28.9458V34.7007H30.4028V33.8846H28.9458V33.0469H30.4388ZM27.6618 34.6721V33.8488H26.1255V33.0254H27.6618V32.2236H25.195V36.4332H26.1183V34.6649H27.6546L27.6618 34.6721ZM22.0501 34.3499C22.0501 35.1088 21.4947 35.6887 20.7734 35.6887C20.0016 35.6887 19.4174 35.1159 19.4174 34.3499C19.4174 33.5839 20.0016 32.9968 20.7518 32.9968C21.5019 32.9968 22.0501 33.5767 22.0501 34.3499ZM23.0022 34.3356C23.0022 33.0684 22.0285 32.1162 20.7229 32.1162C19.4174 32.1162 18.4797 33.0612 18.4797 34.3714C18.4797 35.6815 19.4174 36.5406 20.7662 36.5406C22.115 36.5406 23.0022 35.6314 23.0022 34.3356ZM17.4771 33.5338C17.4771 33.9203 17.1958 34.0635 16.8423 34.0635H16.4384V32.9897H16.8207C16.9145 32.9897 17.0155 32.9896 17.1092 33.0111C17.3545 33.0684 17.4771 33.2903 17.4771 33.5338ZM18.3787 33.5409C18.3787 33.2689 18.3138 32.9825 18.1479 32.7534C17.8666 32.374 17.4699 32.2594 17.0155 32.2379C16.9289 32.2379 16.8423 32.2379 16.7558 32.2379H15.5152V36.4475H16.4312V34.851H16.8712C17.2751 34.851 17.6935 34.8009 17.9892 34.5146C18.2561 34.2568 18.3787 33.9132 18.3787 33.5481V33.5409ZM14.2457 33.5338C14.2457 33.9203 13.9644 34.0635 13.6109 34.0635H13.207V32.9897H13.5893C13.6831 32.9897 13.784 32.9896 13.8778 33.0111C14.123 33.0684 14.2457 33.2903 14.2457 33.5338ZM15.1473 33.5409C15.1473 33.2689 15.0824 32.9825 14.9093 32.7534C14.628 32.374 14.2312 32.2594 13.7768 32.2379C13.6903 32.2379 13.6037 32.2379 13.5172 32.2379H12.2765V36.4475H13.1926V34.851H13.6326C14.0365 34.851 14.4548 34.8009 14.7506 34.5146C15.0175 34.2568 15.1401 33.9132 15.1401 33.5481L15.1473 33.5409ZM11.5985 34.5718V32.2308H10.6969V34.8582C10.6969 35.3737 10.4805 35.7316 9.91787 35.7316C9.66541 35.7316 9.39132 35.6457 9.23263 35.4381C9.08837 35.2448 9.08116 35.0587 9.08116 34.8296V32.2308H8.17954V34.8582C8.17954 35.1231 8.19396 35.3808 8.29494 35.6242C8.54019 36.2614 9.22542 36.5478 9.8818 36.5478C10.4372 36.5478 10.9782 36.3616 11.3028 35.8963C11.5769 35.5025 11.6057 35.0229 11.6057 34.5647L11.5985 34.5718ZM6.773 33.5123C6.773 33.6125 6.75136 33.7199 6.69366 33.813C6.5494 34.0492 6.31858 34.0778 6.05892 34.0778H5.72712V32.9682H6.03728C6.41235 32.9682 6.76579 33.0899 6.76579 33.5194L6.773 33.5123ZM7.94872 36.4404L6.72251 34.6506C6.88841 34.6148 7.05431 34.5718 7.19136 34.4859C7.53037 34.2711 7.67463 33.8631 7.67463 33.4765C7.67463 33.2331 7.60971 32.9825 7.47988 32.7749C7.15529 32.2737 6.57104 32.2308 6.02285 32.2308H4.83271V36.4404H5.72712V34.6649L6.85235 36.4404H7.94872ZM4.30616 34.1566V34.1136H2.17832V34.894H3.28913C3.24585 35.0873 3.217 35.166 3.13044 35.2949C2.9429 35.5526 2.57504 35.7102 2.19996 35.7102C1.44981 35.7102 0.908837 35.1374 0.908837 34.3356C0.908837 33.5338 1.4426 32.961 2.20718 32.961C2.44521 32.961 2.6616 33.0111 2.86356 33.1257C3.05831 33.2331 3.13765 33.3047 3.29634 33.5051L4.04649 33.0684C3.85895 32.8035 3.77961 32.7176 3.59207 32.5673C3.23142 32.2737 2.7193 32.1091 2.17832 32.1091C0.887198 32.1162 0 33.0183 0 34.3284C0 35.6386 0.879985 36.5335 2.14947 36.5335C2.99339 36.5335 3.71469 36.1182 4.0537 35.4381C4.23403 35.0873 4.30616 34.7079 4.30616 34.1566Z" fill="var(--fill-0, #2B2B2B)"/>
<path fill-rule="evenodd" clip-rule="evenodd" d="M16.5105 12.5286L7.40053 13.445L1.26227 25.5298C6.11662 25.5298 8.61232 25.0644 11.4542 21.0409C12.6516 19.3227 14.7794 15.9006 16.5178 12.5286" fill="var(--fill-0, #2B2B2B)"/>
<path fill-rule="evenodd" clip-rule="evenodd" d="M41.1429 1.34593L41.8426 0H22.6849C16.186 0 12.8752 2.18356 10.8628 6.22135C9.80967 8.32616 9.28553 9.38095 9.29034 9.38573H17.9892C21.0836 3.50085 24.856 1.4748 34.0742 1.34593H41.1429Z" fill="var(--fill-0, #2B2B2B)"/>
<path fill-rule="evenodd" clip-rule="evenodd" d="M40.5515 2.64175C28.8664 2.74198 26.9261 4.63201 24.2789 9.37857H37.2046L40.5515 2.64175Z" fill="var(--fill-0, #2B2B2B)"/>
<path fill-rule="evenodd" clip-rule="evenodd" d="M28.1667 19.2726C27.4022 23.5395 24.0048 26.9115 19.6987 27.6847C19.6987 27.6847 17.1237 28.1285 15.4286 28.1357C13.7335 28.1357 0 28.1357 0 28.1357L0.598679 26.933C0.598679 26.933 5.82089 26.89 6.52055 26.89C8.3238 26.933 11.5841 26.5392 11.5841 26.5392C15.2699 26.1526 18.1695 23.7686 19.0856 20.3035L20.1243 16.8098C20.6869 13.9103 23.2619 11.7196 26.3491 11.7196L36.3463 11.0896L35.8702 12.0418L32.7903 12.2279C30.4965 12.4141 28.6644 14.1824 28.4048 16.4304L28.1667 19.2654V19.2726Z" fill="var(--fill-0, #2B2B2B)"/>
<path fill-rule="evenodd" clip-rule="evenodd" d="M55.1722 24.6277L57.4082 20.3823C57.5092 20.189 57.502 19.9527 57.4082 19.7666H59.9688L57.2279 24.9642C56.1099 27.0976 53.9532 28.0212 51.9336 28.0212C48.63 28.0212 47.8005 25.9092 48.63 24.3413L50.7218 20.3751C50.8228 20.1818 50.8156 19.9456 50.7218 19.7594H53.2896L50.5559 24.9499C50.087 25.8304 50.5343 26.7969 51.9696 26.7969C53.607 26.7969 54.588 25.7517 55.1794 24.6134M43.4799 23.0025H41.2439L42.2177 21.1555H44.6196C45.1029 21.1555 45.2255 21.4204 45.2255 21.7497C45.2255 22.3153 44.6773 23.0025 43.4799 23.0025ZM41.9941 26.6323H39.3252L40.5082 24.3914H43.5232C44.1507 24.3914 44.3455 24.7566 44.3455 25.1145C44.3455 26.081 43.3501 26.6323 41.9941 26.6323ZM42.6721 27.9496C44.8143 27.9496 46.531 26.8972 46.531 25.136C46.531 24.5847 46.2569 24.0192 45.651 23.7256C46.3507 23.4035 47.2668 22.8092 47.2668 21.449C47.2668 20.325 46.4517 19.831 45.2688 19.831H40.2702C40.3279 19.9312 40.3567 20.0458 40.3567 20.1747C40.3567 20.2964 40.3279 20.4109 40.2774 20.5111L36.3607 27.9567H42.6865L42.6721 27.9496ZM107.582 19.831L103.305 27.9496H101.018L104.985 20.4038C105.028 20.3178 105.05 20.2105 105.057 20.1031C105.057 20.0028 105.036 19.9098 105 19.8239H107.582V19.831ZM109.847 24.7852L112.833 21.449L112.905 24.7852H109.847ZM112.263 19.831C112.263 20.0315 112.184 20.2534 111.975 20.4897L105.014 27.9567H107.019L108.671 26.1096H112.934L112.977 27.9567H115.076L114.629 19.8382H112.27L112.263 19.831ZM99.5249 19.831L95.9761 26.575H99.4456C99.698 26.575 100.152 26.4461 100.311 26.3101L99.4456 27.9567H92.9755L96.9499 20.4038C96.9932 20.3178 97.0148 20.2176 97.0148 20.1102C97.0148 20.01 96.9932 19.9169 96.9571 19.831H99.5321H99.5249ZM74.6184 19.831L70.3411 27.9496H68.0546L72.0218 20.4038C72.065 20.3178 72.0867 20.2105 72.0867 20.1031C72.0867 20.0028 72.065 19.9098 72.029 19.8239H74.6112L74.6184 19.831ZM86.3973 24.7852L89.3834 21.449L89.4556 24.7852H86.3973ZM88.8208 19.831C88.8208 20.0315 88.7415 20.2534 88.5323 20.4897L81.5718 27.9567H83.577L85.2288 26.1096H89.4916L89.5349 27.9567H91.6339L91.1867 19.8382H88.828L88.8208 19.831ZM76.4289 19.831H85.2792L84.4353 21.4347C84.3416 21.2485 84.1612 21.1197 83.9593 21.1197H81.6223L78.023 27.9496H75.7365L79.3357 21.1197H76.4289C76.1548 21.1197 75.8302 21.2629 75.5922 21.4347L76.4361 19.831H76.4289ZM67.9608 21.6137C67.2756 21.313 66.41 21.0624 65.4796 20.9765C64.4265 20.8834 63.0272 20.9407 62.9262 21.6566C62.818 22.3725 64.2461 22.5086 65.5228 22.888C67.052 23.3533 67.4559 24.2268 67.3261 25.1074C67.153 26.2815 66.1576 27.9138 62.8829 27.9138C61.6567 27.9138 59.839 27.5701 58.5623 26.9616L59.5793 25.3508C59.5649 26.1311 61.9596 26.4461 62.2698 26.4748C63.4744 26.5822 64.8953 26.6036 65.0396 25.6085C65.1406 24.9212 64.275 24.7064 62.616 24.2912C61.3682 23.9762 60.5675 23.3677 60.7551 22.0647C60.8633 21.3058 61.736 19.3442 65.7032 19.695C66.511 19.7666 67.73 19.9527 68.7471 20.3465L67.9608 21.6065V21.6137Z" fill="var(--fill-0, #2B2B2B)"/>
</g>
</svg>
