<svg preserveAspectRatio="xMidYMid meet" width="100%" height="100%" overflow="visible" style="display: block;" viewBox="0 0 140.264 40.4989" fill="none" xmlns="http://www.w3.org/2000/svg">
<g id="ambrosiano">
<path d="M39.7641 18.8397L38.2655 23.2149C38.2206 23.342 38.1756 23.4542 38.1381 23.5514C38.1007 23.6487 38.0782 23.7534 38.0782 23.8656C38.0782 24.1572 38.1606 24.404 38.318 24.6135C38.4753 24.8229 38.6701 24.9949 38.8949 25.1295C39.1197 25.2641 39.3595 25.3763 39.5992 25.4586C39.839 25.5409 40.0413 25.5932 40.2136 25.6306V25.9223C39.7566 25.8924 39.307 25.8625 38.85 25.8475C38.4004 25.8325 37.9358 25.8251 37.4638 25.8251C36.9918 25.8251 36.5647 25.8325 36.1376 25.8475C35.7105 25.8625 35.2459 25.8849 34.7664 25.9223V25.6306C35.2384 25.5184 35.6206 25.3464 35.9353 25.1146C36.2425 24.8827 36.5047 24.606 36.7145 24.2844C36.9243 23.9628 37.1116 23.6113 37.269 23.2224C37.4263 22.8334 37.5837 22.4296 37.7335 22.0108L41.6597 11.7421C41.7047 11.6299 41.7497 11.5252 41.7871 11.4279C41.8246 11.3307 41.8471 11.241 41.8471 11.1587C41.8471 11.0764 41.8171 10.9568 41.7646 10.7997C41.7122 10.6352 41.6448 10.4931 41.5698 10.3659C41.9595 10.2837 42.3041 10.1789 42.5888 10.0518C42.8736 9.92466 43.1958 9.78256 43.5404 9.64046L48.2609 23.4617C48.4707 24.0899 48.7704 24.5835 49.145 24.95C49.5196 25.309 50.0816 25.5409 50.8234 25.6381V25.9298C50.2165 25.8998 49.6245 25.8699 49.0401 25.855C48.4557 25.84 47.8488 25.8325 47.2119 25.8325H46.1479C45.8482 25.8325 45.571 25.8325 45.3312 25.8475C45.0914 25.855 44.8591 25.8699 44.6419 25.8849C44.4246 25.8998 44.1848 25.9148 43.93 25.9298V25.6381C44.5669 25.5558 45.0989 25.3838 45.526 25.122C45.9531 24.8528 46.1704 24.5013 46.1704 24.0451C46.1704 23.9179 46.1404 23.7908 46.088 23.6561C46.0355 23.529 45.9906 23.4093 45.9606 23.2971L44.4845 18.8471H39.7416L39.7641 18.8397ZM42.2142 11.9739L39.9889 18.1142H44.2522L42.2142 11.9739Z" fill="var(--fill-0, #2B2B2B)"/>
<path d="M53.4608 24.1797C53.4608 24.7107 53.5957 25.0622 53.8654 25.2342C54.1352 25.4062 54.5248 25.5334 55.0193 25.6306V25.9223C54.5773 25.8924 54.1127 25.8624 53.6257 25.8475C53.1312 25.8325 52.6291 25.8251 52.1196 25.8251C51.775 25.8251 51.4303 25.8325 51.1006 25.8475C50.7709 25.8624 50.4113 25.8849 50.0366 25.9223V25.6306C50.5836 25.5334 50.9957 25.3988 51.273 25.2342C51.5502 25.0622 51.6925 24.7182 51.6925 24.1797V19.251C51.6925 18.8621 51.6626 18.5554 51.6101 18.3311C51.5577 18.1067 51.4678 17.9347 51.3479 17.815C51.228 17.6954 51.0706 17.6131 50.8683 17.5607C50.6735 17.5159 50.4263 17.4785 50.1415 17.4635V17.1718L53.4533 16.6857V17.8973C53.9404 17.5233 54.4199 17.2092 54.892 16.94C55.3715 16.6707 55.926 16.5436 56.5553 16.5436C57.0873 16.5436 57.5519 16.6558 57.949 16.8801C58.3461 17.1045 58.7133 17.4336 59.0504 17.8674C59.2452 17.7253 59.4625 17.5757 59.7098 17.4186C59.9496 17.2691 60.2043 17.1195 60.4591 16.9849C60.7138 16.8502 60.9836 16.738 61.2533 16.6558C61.523 16.5735 61.7928 16.5361 62.0475 16.5361C62.9991 16.5361 63.7484 16.8128 64.2954 17.3663C64.8423 17.9197 65.1121 18.7574 65.1121 19.8643V24.1647C65.1121 24.6957 65.2544 25.0472 65.5317 25.2193C65.8089 25.3913 66.221 25.5184 66.768 25.6156V25.9073C66.2809 25.8774 65.7939 25.8475 65.2919 25.8325C64.7899 25.8176 64.2879 25.8101 63.7709 25.8101C63.4262 25.8101 63.089 25.8176 62.7743 25.8325C62.4596 25.8475 62.1599 25.8699 61.8902 25.9073V25.6156C62.3323 25.5184 62.6769 25.3838 62.9467 25.2193C63.2089 25.0472 63.3438 24.7032 63.3438 24.1647V20.1036C63.3438 19.3108 63.1565 18.72 62.7893 18.3236C62.4222 17.9272 61.9951 17.7328 61.5081 17.7328C60.5864 17.7328 59.8447 17.987 59.2827 18.5031V24.1572C59.2827 24.6882 59.4176 25.0398 59.6873 25.2118C59.9571 25.3838 60.3467 25.5109 60.8412 25.6082V25.8998C60.3991 25.8699 59.9346 25.84 59.4475 25.8251C58.953 25.8101 58.451 25.8026 57.9415 25.8026C57.5968 25.8026 57.2597 25.8101 56.945 25.8251C56.6303 25.84 56.3306 25.8624 56.0608 25.8998V25.6082C56.4954 25.5109 56.8476 25.3763 57.1173 25.2118C57.3795 25.0398 57.5144 24.6957 57.5144 24.1572V20.0961C57.5144 19.3034 57.402 18.6901 57.1772 18.2488C56.9525 17.8075 56.4504 17.5832 55.6787 17.5832C55.4539 17.5832 55.2516 17.6056 55.0793 17.643C54.9069 17.6804 54.7346 17.7552 54.5698 17.8449C54.4049 17.9422 54.2326 18.0693 54.0603 18.2189C53.8879 18.3685 53.6856 18.5629 53.4608 18.7873V24.1797Z" fill="var(--fill-0, #2B2B2B)"/>
<path d="M66.5882 9.07953L70.1247 8.62331C70.0948 10.1416 70.0723 11.6374 70.0648 13.1182C70.0573 14.599 70.0348 16.1023 70.0048 17.6131C70.4095 17.2915 70.859 17.0297 71.3535 16.8428C71.8481 16.6483 72.3875 16.5511 72.972 16.5511C73.6388 16.5511 74.2532 16.6633 74.8227 16.8876C75.3921 17.112 75.8792 17.4261 76.2988 17.815C76.7109 18.2114 77.0405 18.6826 77.2728 19.2435C77.5051 19.797 77.625 20.4102 77.625 21.0684C77.625 21.921 77.4976 22.6689 77.2429 23.3046C76.9881 23.9403 76.6359 24.4788 76.2014 24.9126C75.7593 25.3464 75.2423 25.6755 74.6354 25.8924C74.0285 26.1093 73.3916 26.2214 72.7097 26.2214C72.2077 26.2214 71.7207 26.1616 71.2337 26.0419C70.7466 25.9223 70.3046 25.7727 69.8925 25.6082C69.4878 25.4361 69.1432 25.2716 68.8585 25.0996C68.5812 24.9276 68.3939 24.8004 68.304 24.7032V10.8371C68.304 10.2762 68.1616 9.88726 67.8769 9.67785C67.5922 9.46844 67.1576 9.36373 66.5882 9.36373V9.07205V9.07953ZM75.6394 21.375C75.6394 20.7767 75.572 20.2308 75.4371 19.7297C75.3022 19.2286 75.1074 18.8023 74.8602 18.4358C74.6129 18.0768 74.3057 17.7851 73.9535 17.5757C73.6014 17.3663 73.2043 17.2616 72.7622 17.2616C72.2752 17.2616 71.8556 17.3289 71.4959 17.456C71.1363 17.5832 70.8365 17.8075 70.5968 18.1217C70.3645 18.4358 70.1847 18.8621 70.0648 19.3931C69.9449 19.9241 69.885 20.5823 69.885 21.375C69.885 22.1678 69.9449 22.8185 70.0648 23.342C70.1847 23.8656 70.3645 24.2844 70.5968 24.5985C70.8291 24.9126 71.1288 25.137 71.4959 25.2716C71.8556 25.4062 72.2826 25.4735 72.7622 25.4735C73.1968 25.4735 73.5939 25.3688 73.9535 25.1594C74.3057 24.95 74.6129 24.6658 74.8602 24.2993C75.1074 23.9403 75.3022 23.5066 75.4371 23.0055C75.572 22.5044 75.6394 21.9584 75.6394 21.3601V21.375Z" fill="var(--fill-0, #2B2B2B)"/>
<path d="M78.0895 25.6306C78.6065 25.5334 78.9962 25.3988 79.2659 25.2342C79.5356 25.0622 79.6705 24.7182 79.6705 24.1797V18.5704C79.6705 18.0843 79.5132 17.7926 79.206 17.6729C78.8988 17.5607 78.5391 17.5009 78.127 17.5009V17.2092L81.4388 16.6782V18.0544C81.6186 17.9272 81.8284 17.7552 82.0607 17.5458C82.293 17.3364 82.5477 17.1344 82.81 16.9325C83.0722 16.7306 83.342 16.5586 83.6117 16.4164C83.8814 16.2743 84.1512 16.1996 84.4059 16.1996C84.9979 16.1996 85.4399 16.3716 85.7322 16.7156C86.0244 17.0596 86.1892 17.5383 86.2192 18.1516L84.4059 19.1687C84.4359 19.0565 84.4659 18.9369 84.4958 18.8172C84.5258 18.6975 84.5408 18.5405 84.5408 18.346C84.5408 18.1217 84.4659 17.9048 84.316 17.7028C84.1662 17.5009 83.9639 17.4037 83.7016 17.4037C83.4918 17.4037 83.2745 17.4635 83.0647 17.5757C82.8549 17.6879 82.6451 17.83 82.4503 18.002C82.2555 18.174 82.0682 18.3535 81.8959 18.548C81.7235 18.7424 81.5662 18.907 81.4313 19.0565V24.1797C81.4313 24.7107 81.5737 25.0622 81.8584 25.2342C82.1431 25.4062 82.5777 25.5334 83.1546 25.6306V25.9223C82.6376 25.8924 82.1281 25.8624 81.6261 25.8475C81.1166 25.8325 80.6071 25.8251 80.0976 25.8251C79.7529 25.8251 79.4158 25.8325 79.0861 25.8475C78.7639 25.8624 78.4267 25.8849 78.0746 25.9223V25.6306H78.0895Z" fill="var(--fill-0, #2B2B2B)"/>
<path d="M91.2168 16.5436C91.9436 16.5436 92.603 16.6633 93.2024 16.8951C93.8019 17.127 94.3114 17.456 94.7459 17.8749C95.1805 18.2937 95.5102 18.8023 95.7425 19.4006C95.9748 19.9989 96.0946 20.6571 96.0946 21.3825C96.0946 22.108 95.9748 22.7661 95.7425 23.3645C95.5102 23.9628 95.173 24.4714 94.7459 24.8902C94.3189 25.309 93.8019 25.6381 93.2024 25.8699C92.603 26.1018 91.9436 26.2214 91.2168 26.2214C90.4901 26.2214 89.8307 26.1018 89.2313 25.8699C88.6318 25.6381 88.1223 25.309 87.6878 24.8902C87.2532 24.4714 86.9235 23.9628 86.6912 23.3645C86.4589 22.7661 86.3391 22.108 86.3391 21.3825C86.3391 20.6571 86.4589 19.9989 86.6912 19.4006C86.9235 18.8023 87.2607 18.2937 87.6878 17.8749C88.1149 17.456 88.6318 17.127 89.2313 16.8951C89.8307 16.6633 90.4901 16.5436 91.2168 16.5436ZM90.8048 17.2691C90.3777 17.2691 90.018 17.3812 89.7033 17.6056C89.3961 17.83 89.1339 18.1217 88.9316 18.4881C88.7293 18.8471 88.5794 19.2585 88.4745 19.7222C88.3771 20.1784 88.3246 20.6346 88.3246 21.0908C88.3246 21.6069 88.3921 22.1229 88.5195 22.639C88.6468 23.155 88.8491 23.6262 89.1189 24.0525C89.3886 24.4788 89.7333 24.8229 90.1379 25.0921C90.5425 25.3614 91.037 25.4885 91.614 25.4885C92.0336 25.4885 92.4007 25.3763 92.7154 25.1519C93.0226 24.9276 93.2848 24.6359 93.4872 24.2694C93.6895 23.9104 93.8393 23.4991 93.9442 23.0503C94.0416 22.6016 94.0941 22.1379 94.0941 21.6742C94.0941 21.1731 94.0266 20.6645 93.8918 20.141C93.7569 19.6175 93.5546 19.1388 93.2774 18.7125C93.0076 18.2862 92.663 17.9422 92.2583 17.6729C91.8537 17.4037 91.3667 17.2765 90.8048 17.2765V17.2691Z" fill="var(--fill-0, #2B2B2B)"/>
<path d="M96.8814 22.7587H97.1961C97.4059 23.0952 97.6456 23.4243 97.9079 23.7459C98.1701 24.0675 98.4624 24.3592 98.7845 24.6135C99.0992 24.8752 99.4439 25.0846 99.8035 25.2417C100.163 25.4062 100.553 25.481 100.957 25.481C101.152 25.481 101.355 25.4586 101.557 25.4212C101.759 25.3838 101.946 25.309 102.111 25.2193C102.276 25.122 102.411 24.9949 102.516 24.8303C102.621 24.6658 102.673 24.4714 102.673 24.2245C102.673 23.8207 102.531 23.4916 102.254 23.2373C101.976 22.983 101.632 22.7512 101.22 22.5642C100.808 22.3772 100.358 22.1903 99.871 22.0182C99.3765 21.8462 98.9269 21.6443 98.5223 21.4124C98.1177 21.1806 97.773 20.8964 97.4883 20.5523C97.2111 20.2158 97.0687 19.782 97.0687 19.2435C97.0687 18.376 97.3234 17.7028 97.8255 17.2391C98.335 16.7754 98.9719 16.5361 99.7436 16.5361C100.321 16.5361 100.875 16.6184 101.407 16.7754C101.946 16.94 102.501 17.0297 103.07 17.0671L103.205 19.6324H102.913C102.763 19.3258 102.576 19.0341 102.344 18.7499C102.111 18.4657 101.864 18.2189 101.587 18.002C101.31 17.7851 101.01 17.6056 100.688 17.471C100.373 17.3364 100.043 17.2691 99.7136 17.2691C99.339 17.2691 98.9943 17.3588 98.6946 17.5383C98.3949 17.7178 98.2376 18.0394 98.2376 18.5031C98.2376 18.8397 98.3799 19.1164 98.6572 19.3407C98.9344 19.5576 99.2791 19.7596 99.6912 19.9465C100.096 20.1335 100.545 20.313 101.04 20.4925C101.534 20.672 101.984 20.8814 102.389 21.1357C102.793 21.3825 103.138 21.6892 103.423 22.0556C103.7 22.4146 103.842 22.8634 103.842 23.3944C103.842 23.9553 103.752 24.419 103.58 24.7855C103.408 25.1445 103.168 25.4361 102.868 25.6456C102.568 25.855 102.216 26.0046 101.812 26.0943C101.415 26.184 100.987 26.2289 100.53 26.2289C100.171 26.2289 99.8185 26.199 99.4889 26.1467C99.1592 26.0868 98.8445 26.0195 98.5448 25.9447C98.2526 25.8625 97.9753 25.7951 97.7206 25.7278C97.4658 25.6605 97.2335 25.6156 97.0387 25.5857L96.8589 22.7811L96.8814 22.7587Z" fill="var(--fill-0, #2B2B2B)"/>
<path d="M105.978 19.8044C105.978 19.4155 105.963 19.079 105.94 18.7798C105.918 18.4807 105.85 18.2339 105.738 18.0319C105.625 17.83 105.453 17.6654 105.228 17.5383C105.004 17.4112 104.689 17.3214 104.299 17.2691V16.9325L107.746 16.6932V23.7982C107.746 24.2021 107.776 24.5162 107.836 24.7556C107.896 24.9874 108.001 25.1669 108.143 25.2866C108.285 25.4062 108.473 25.4885 108.697 25.5409C108.922 25.5857 109.207 25.6231 109.537 25.6381V25.9298C109.005 25.8998 108.473 25.8699 107.941 25.855C107.401 25.84 106.869 25.8325 106.345 25.8325C106 25.8325 105.655 25.84 105.326 25.855C104.996 25.8699 104.651 25.8924 104.307 25.9298V25.6381C104.606 25.6231 104.869 25.5932 105.078 25.5409C105.288 25.496 105.461 25.4062 105.603 25.2866C105.738 25.1669 105.835 24.9874 105.895 24.7556C105.955 24.5237 105.985 24.2021 105.985 23.7982V19.8119L105.978 19.8044ZM106.637 9.58063C106.967 9.58063 107.251 9.71525 107.484 9.97701C107.716 10.2463 107.836 10.5529 107.836 10.9044C107.836 11.2559 107.716 11.57 107.484 11.8318C107.251 12.1011 106.967 12.2282 106.637 12.2282C106.307 12.2282 106.023 12.0936 105.783 11.8318C105.55 11.5626 105.431 11.2559 105.431 10.9044C105.431 10.5529 105.55 10.2388 105.783 9.97701C106.015 9.70777 106.3 9.58063 106.637 9.58063Z" fill="var(--fill-0, #2B2B2B)"/>
<path d="M110.331 18.7649C110.451 18.2638 110.623 17.8674 110.84 17.5682C111.058 17.2691 111.312 17.0447 111.597 16.8951C111.882 16.7455 112.212 16.6483 112.571 16.6034C112.931 16.566 113.32 16.5436 113.725 16.5436C114.13 16.5436 114.504 16.5885 114.894 16.6782C115.276 16.768 115.628 16.9175 115.935 17.127C116.243 17.3364 116.497 17.6131 116.685 17.9571C116.872 18.3012 116.969 18.7275 116.969 19.2286V23.701C116.969 24.0077 117.044 24.2769 117.194 24.5087C117.344 24.7406 117.576 24.8603 117.899 24.8603C118.221 24.8603 118.468 24.7705 118.7 24.5835C118.933 24.3966 119.157 24.2171 119.367 24.0376L119.592 24.3068C119.442 24.4714 119.262 24.6583 119.06 24.8752C118.858 25.0921 118.64 25.3015 118.416 25.5035C118.191 25.7054 117.959 25.8774 117.726 26.012C117.494 26.1467 117.262 26.214 117.037 26.214C116.887 26.214 116.73 26.1616 116.557 26.0569C116.393 25.9522 116.228 25.8251 116.07 25.683C115.913 25.5409 115.763 25.3838 115.628 25.2267C115.493 25.0697 115.374 24.9276 115.269 24.8154C114.782 25.1669 114.242 25.4885 113.635 25.7802C113.028 26.0719 112.444 26.214 111.867 26.214C111.552 26.214 111.245 26.1541 110.945 26.0419C110.653 25.9298 110.391 25.7652 110.166 25.5558C109.941 25.3464 109.761 25.0996 109.619 24.8079C109.477 24.5162 109.417 24.1871 109.417 23.8207C109.417 23.1625 109.589 22.6315 109.941 22.2351C110.286 21.8387 110.735 21.5396 111.29 21.3302C111.844 21.1208 112.466 20.9787 113.171 20.9039C113.875 20.8291 114.579 20.7842 115.291 20.7692V18.9294C115.291 18.3311 115.119 17.8749 114.767 17.5533C114.422 17.2317 113.98 17.0671 113.448 17.0671C113.058 17.0671 112.744 17.2765 112.519 17.6954C112.294 18.1142 112.182 18.5928 112.182 19.1239L110.323 18.7649H110.331ZM115.254 21.7191C114.752 21.577 114.25 21.5022 113.733 21.5022C113.448 21.5022 113.156 21.5396 112.871 21.6144C112.586 21.6892 112.324 21.8013 112.099 21.9659C111.874 22.1304 111.687 22.3324 111.545 22.5792C111.402 22.826 111.327 23.1326 111.327 23.4841C111.327 24.0301 111.507 24.4265 111.859 24.6583C112.212 24.8902 112.609 25.0098 113.051 25.0098C113.538 25.0098 113.98 24.9051 114.377 24.6957C114.774 24.4863 115.066 24.3068 115.254 24.1647V21.7191Z" fill="var(--fill-0, #2B2B2B)"/>
<path d="M119.015 17.2242L122.327 16.6932V17.9721C122.731 17.6355 123.203 17.3139 123.735 17.0073C124.267 16.7007 124.769 16.5511 125.256 16.5511C125.676 16.5511 126.081 16.6109 126.47 16.7231C126.852 16.8353 127.197 17.0223 127.504 17.2765C127.804 17.5308 128.051 17.8823 128.231 18.3161C128.411 18.7499 128.501 19.2884 128.501 19.9391V24.1946C128.501 24.7256 128.636 25.0772 128.905 25.2492C129.175 25.4212 129.572 25.5483 130.082 25.6456V25.9372C129.64 25.9073 129.175 25.8774 128.673 25.8625C128.171 25.8475 127.669 25.84 127.152 25.84C126.807 25.84 126.47 25.8475 126.141 25.8625C125.818 25.8774 125.504 25.8998 125.197 25.9372V25.6456C125.684 25.5483 126.051 25.4137 126.32 25.2492C126.583 25.0772 126.718 24.7331 126.718 24.1946V20.3055C126.718 19.4828 126.553 18.8471 126.231 18.3984C125.908 17.9496 125.384 17.7253 124.657 17.7253C124.402 17.7253 124.133 17.7627 123.863 17.8449C123.593 17.9272 123.338 18.0319 123.114 18.174C122.889 18.3086 122.694 18.4582 122.544 18.6228C122.394 18.7873 122.319 18.9369 122.319 19.079V24.2021C122.319 24.7331 122.462 25.0846 122.746 25.2567C123.031 25.4287 123.466 25.5558 124.035 25.653V25.9447C123.518 25.9148 123.009 25.8849 122.507 25.8699C121.997 25.855 121.488 25.8475 120.978 25.8475C120.633 25.8475 120.296 25.855 119.967 25.8699C119.644 25.8849 119.307 25.9073 118.955 25.9447V25.653C119.472 25.5558 119.862 25.4212 120.131 25.2567C120.401 25.0846 120.536 24.7406 120.536 24.2021V18.5928C120.536 18.1067 120.379 17.815 120.071 17.6954C119.764 17.5832 119.405 17.5233 118.993 17.5233V17.2317L119.015 17.2242Z" fill="var(--fill-0, #2B2B2B)"/>
<path d="M135.387 16.5436C136.113 16.5436 136.773 16.6633 137.372 16.8951C137.972 17.127 138.481 17.456 138.916 17.8749C139.35 18.2937 139.68 18.8023 139.912 19.4006C140.145 19.9989 140.264 20.6571 140.264 21.3825C140.264 22.108 140.145 22.7661 139.912 23.3645C139.68 23.9628 139.343 24.4714 138.916 24.8902C138.489 25.309 137.972 25.6381 137.372 25.8699C136.773 26.1018 136.113 26.2214 135.387 26.2214C134.66 26.2214 134.001 26.1018 133.401 25.8699C132.802 25.6381 132.292 25.309 131.858 24.8902C131.423 24.4714 131.093 23.9628 130.861 23.3645C130.629 22.7661 130.509 22.108 130.509 21.3825C130.509 20.6571 130.629 19.9989 130.861 19.4006C131.093 18.8023 131.43 18.2937 131.858 17.8749C132.285 17.456 132.802 17.127 133.401 16.8951C134.001 16.6633 134.66 16.5436 135.387 16.5436ZM134.982 17.2691C134.555 17.2691 134.195 17.3812 133.881 17.6056C133.573 17.83 133.311 18.1217 133.109 18.4881C132.907 18.8471 132.757 19.2585 132.652 19.7222C132.554 20.1784 132.502 20.6346 132.502 21.0908C132.502 21.6069 132.569 22.1229 132.697 22.639C132.824 23.155 133.026 23.6262 133.296 24.0525C133.566 24.4788 133.911 24.8229 134.315 25.0921C134.72 25.3614 135.214 25.4885 135.791 25.4885C136.211 25.4885 136.578 25.3763 136.893 25.1519C137.2 24.9276 137.462 24.6359 137.664 24.2694C137.867 23.9104 138.017 23.4991 138.122 23.0503C138.219 22.6016 138.271 22.1379 138.271 21.6742C138.271 21.1731 138.204 20.6645 138.069 20.141C137.934 19.6175 137.732 19.1388 137.455 18.7125C137.185 18.2862 136.84 17.9422 136.436 17.6729C136.031 17.4037 135.544 17.2765 134.982 17.2765V17.2691Z" fill="var(--fill-0, #2B2B2B)"/>
<path d="M55.8061 31.2174H57.2672C57.5594 31.2174 57.8291 31.2698 58.0689 31.367C58.3161 31.4642 58.5259 31.6063 58.6983 31.7858C58.8781 31.9653 59.013 32.1747 59.1104 32.4141C59.2078 32.6534 59.2527 32.9152 59.2527 33.1994V33.2143C59.2527 33.4985 59.2078 33.7603 59.1104 33.9996C59.013 34.2464 58.8781 34.4558 58.6983 34.6353C58.5184 34.8148 58.3087 34.9569 58.0689 35.0542C57.8216 35.1589 57.5594 35.2112 57.2672 35.2112H55.8061V31.2174ZM57.2597 34.411C57.4245 34.411 57.5819 34.3811 57.7167 34.3287C57.8591 34.2689 57.9715 34.1866 58.0689 34.0819C58.1663 33.9772 58.2412 33.85 58.3012 33.7079C58.3536 33.5658 58.3836 33.4013 58.3836 33.2218V33.2068C58.3836 33.0348 58.3536 32.8703 58.3012 32.7207C58.2487 32.5711 58.1663 32.444 58.0689 32.3393C57.9715 32.2346 57.8516 32.1523 57.7167 32.0925C57.5819 32.0326 57.4245 32.0027 57.2597 32.0027H56.6228V34.411H57.2597Z" fill="var(--fill-0, #2B2B2B)"/>
<path d="M62.13 31.1875L63.7334 35.2037H62.8717L62.5271 34.3063H60.9461L60.6014 35.2037H59.7622L61.3657 31.1875H62.13ZM62.2424 33.5359L61.7478 32.2421L61.2533 33.5359H62.2498H62.2424Z" fill="var(--fill-0, #2B2B2B)"/>
<path d="M67.4723 35.2636C67.1876 35.2636 66.9103 35.2112 66.6331 35.1065C66.3559 35.0018 66.1086 34.8448 65.8838 34.6279L66.3709 34.0071C66.5432 34.1567 66.7155 34.2763 66.8954 34.3586C67.0752 34.4484 67.27 34.4932 67.4873 34.4932C67.6596 34.4932 67.7945 34.4633 67.8844 34.396C67.9818 34.3287 68.0268 34.239 68.0268 34.1193V34.1043C68.0268 34.0445 68.0193 33.9996 67.9968 33.9547C67.9743 33.9099 67.9368 33.8725 67.8844 33.8351C67.832 33.7977 67.7495 33.7603 67.6521 33.7229C67.5547 33.6855 67.4273 33.6481 67.27 33.6032C67.0827 33.5509 66.9103 33.4985 66.753 33.4387C66.5956 33.3789 66.4683 33.3041 66.3634 33.2143C66.2585 33.1246 66.1761 33.0124 66.1161 32.8778C66.0562 32.7432 66.0262 32.5786 66.0262 32.3842V32.3692C66.0262 32.1897 66.0562 32.0252 66.1236 31.8756C66.191 31.726 66.2735 31.6063 66.3933 31.4942C66.5057 31.3894 66.6481 31.3072 66.8054 31.2473C66.9628 31.1875 67.1426 31.1651 67.3374 31.1651C67.6147 31.1651 67.8619 31.21 68.0942 31.2997C68.3265 31.3894 68.5363 31.5091 68.7311 31.6736L68.304 32.3318C68.1392 32.2121 67.9743 32.1149 67.8095 32.0476C67.6521 31.9803 67.4873 31.9429 67.3299 31.9429C67.1726 31.9429 67.0527 31.9728 66.9703 32.0401C66.8879 32.1074 66.8504 32.1897 66.8504 32.2869V32.3019C66.8504 32.3692 66.8654 32.4216 66.8879 32.4664C66.9103 32.5113 66.9553 32.5562 67.0152 32.5936C67.0752 32.631 67.1576 32.6684 67.2625 32.6983C67.3674 32.7357 67.5023 32.7731 67.6596 32.8179C67.8469 32.8703 68.0193 32.9301 68.1691 32.9974C68.319 33.0647 68.4464 33.147 68.5438 33.2368C68.6487 33.3265 68.7236 33.4387 68.776 33.5658C68.8285 33.693 68.851 33.8426 68.851 34.0146V34.0295C68.851 34.224 68.821 34.4035 68.7536 34.5606C68.6861 34.7176 68.5887 34.8448 68.4688 34.9495C68.3489 35.0542 68.2066 35.1364 68.0343 35.1888C67.8619 35.2411 67.6821 35.2711 67.4798 35.2711L67.4723 35.2636Z" fill="var(--fill-0, #2B2B2B)"/>
<path d="M69.6677 31.2174H72.4849V31.9952H70.4769V32.803H72.2452V33.5808H70.4769V34.4185H72.5074V35.1963H69.6602V31.21L69.6677 31.2174Z" fill="var(--fill-0, #2B2B2B)"/>
<path d="M74.2383 31.2174L75.2198 32.9077L76.2014 31.2174H77.0855V35.2037H76.2763V32.601L75.2198 34.3063H75.1973L74.1558 32.616V35.2037H73.3466V31.2174H74.2383Z" fill="var(--fill-0, #2B2B2B)"/>
<path d="M78.1045 31.2174H79.633C79.8578 31.2174 80.0601 31.2473 80.2325 31.3147C80.4123 31.382 80.5621 31.4717 80.682 31.5989C80.8019 31.726 80.8993 31.8681 80.9668 32.0326C81.0342 32.2047 81.0642 32.3916 81.0642 32.5936V32.6085C81.0642 32.8404 81.0267 33.0423 80.9443 33.2218C80.8694 33.3938 80.757 33.5434 80.6221 33.6631C80.4872 33.7827 80.3224 33.8725 80.1426 33.9248C79.9552 33.9847 79.7604 34.0146 79.5506 34.0146H78.9212V35.2112H78.097V31.2249L78.1045 31.2174ZM79.5806 33.2293C79.7904 33.2293 79.9477 33.1695 80.0601 33.0573C80.1725 32.9451 80.2325 32.7955 80.2325 32.6235V32.6085C80.2325 32.4141 80.1725 32.2645 80.0526 32.1598C79.9327 32.0551 79.7679 32.0027 79.5656 32.0027H78.9287V33.2218H79.5806V33.2293Z" fill="var(--fill-0, #2B2B2B)"/>
<path d="M81.7835 31.2174H83.4918C83.9639 31.2174 84.331 31.3521 84.5858 31.6213C84.8031 31.8457 84.908 32.1523 84.908 32.5337V32.5487C84.908 32.8703 84.833 33.1321 84.6832 33.3415C84.5333 33.5434 84.3385 33.693 84.1062 33.7902L85.0203 35.2187H84.0613L83.2595 33.9398H82.6152V35.2187H81.791V31.2324L81.7835 31.2174ZM83.4394 33.1545C83.6417 33.1545 83.799 33.1021 83.9039 32.9974C84.0088 32.8927 84.0688 32.7581 84.0688 32.5861V32.5711C84.0688 32.3842 84.0088 32.2421 83.8964 32.1448C83.784 32.0476 83.6267 32.0027 83.4169 32.0027H82.6002V33.147H83.4319L83.4394 33.1545Z" fill="var(--fill-0, #2B2B2B)"/>
<path d="M85.7546 31.2174H88.5719V31.9952H86.5638V32.803H88.3321V33.5808H86.5638V34.4185H88.5944V35.1963H85.7471V31.21L85.7546 31.2174Z" fill="var(--fill-0, #2B2B2B)"/>
<path d="M93.1949 31.1875L94.7984 35.2037H93.9367L93.5921 34.3063H92.0111L91.6664 35.2037H90.8272L92.4307 31.1875H93.1949ZM93.3073 33.5359L92.8128 32.2421L92.3183 33.5359H93.3148H93.3073Z" fill="var(--fill-0, #2B2B2B)"/>
<path d="M98.0877 31.2174L99.0693 32.9077L100.051 31.2174H100.935V35.2037H100.126V32.601L99.0693 34.3063H99.0468L98.0053 32.616V35.2037H97.1961V31.2174H98.0877Z" fill="var(--fill-0, #2B2B2B)"/>
<path d="M101.984 31.2174H102.808V35.2037H101.984V31.2174Z" fill="var(--fill-0, #2B2B2B)"/>
<path d="M103.857 31.2174H104.681V34.4184H106.547V35.2112H103.857V31.2174Z" fill="var(--fill-0, #2B2B2B)"/>
<path d="M109.312 31.1875L110.915 35.2037H110.054L109.709 34.3063H108.128L107.783 35.2037H106.944L108.548 31.1875H109.312ZM109.424 33.5359L108.93 32.2421L108.435 33.5359H109.432H109.424Z" fill="var(--fill-0, #2B2B2B)"/>
<path d="M112.361 31.2174L114.115 33.6705V31.2174H114.924V35.2037H114.22L112.406 32.6684V35.2037H111.597V31.2174H112.361Z" fill="var(--fill-0, #2B2B2B)"/>
<path d="M117.756 35.2711C117.464 35.2711 117.202 35.2187 116.962 35.1065C116.722 35.0018 116.512 34.8522 116.333 34.6653C116.153 34.4783 116.018 34.2614 115.92 34.0146C115.823 33.7678 115.771 33.4985 115.771 33.2143V33.1994C115.771 32.9152 115.823 32.6459 115.92 32.3991C116.018 32.1523 116.16 31.9354 116.333 31.741C116.512 31.554 116.722 31.4044 116.962 31.2997C117.209 31.195 117.471 31.1352 117.764 31.1352C118.056 31.1352 118.318 31.1875 118.558 31.2997C118.798 31.4044 119.007 31.554 119.187 31.741C119.367 31.9279 119.502 32.1448 119.599 32.3916C119.697 32.6384 119.749 32.9077 119.749 33.1919V33.2068C119.749 33.4911 119.697 33.7603 119.599 34.0071C119.502 34.2539 119.36 34.4708 119.187 34.6653C119.015 34.8597 118.798 35.0018 118.558 35.1065C118.311 35.2112 118.048 35.2711 117.756 35.2711ZM117.764 34.4633C117.929 34.4633 118.078 34.4334 118.221 34.3661C118.363 34.2988 118.476 34.209 118.573 34.0969C118.67 33.9847 118.745 33.85 118.805 33.7005C118.858 33.5509 118.888 33.3863 118.888 33.2218V33.2068C118.888 33.0348 118.858 32.8778 118.805 32.7207C118.753 32.5711 118.67 32.4365 118.573 32.3243C118.468 32.2121 118.348 32.1224 118.213 32.0551C118.071 31.9878 117.921 31.9579 117.756 31.9579C117.591 31.9579 117.434 31.9878 117.299 32.0551C117.164 32.1224 117.044 32.2121 116.947 32.3243C116.85 32.4365 116.775 32.5711 116.715 32.7207C116.655 32.8703 116.632 33.0348 116.632 33.1994V33.2143C116.632 33.3863 116.662 33.5434 116.715 33.7005C116.767 33.85 116.85 33.9847 116.947 34.0969C117.052 34.209 117.172 34.2988 117.307 34.3661C117.442 34.4334 117.599 34.4633 117.764 34.4633Z" fill="var(--fill-0, #2B2B2B)"/>
<path d="M15.053 32.5562C15.053 30.821 13.7267 29.4075 12.1008 29.4075C10.4749 29.4075 9.14866 30.821 9.14866 32.5562H8.52676C8.52676 30.4546 10.1302 28.7419 12.1083 28.7419C14.0864 28.7419 15.6898 30.4546 15.6898 32.5562H15.053Z" fill="var(--fill-0, #2B2B2B)"/>
<path d="M12.393 29.0709H11.7711V33.4911H12.393V29.0709Z" fill="var(--fill-0, #2B2B2B)"/>
<path d="M12.0933 34.3437C12.5654 34.3437 12.9475 34.755 12.9475 35.2561C12.9475 35.7572 12.5654 36.1685 12.0933 36.1685C11.6213 36.1685 11.2391 35.7572 11.2391 35.2561C11.2391 34.755 11.6213 34.3437 12.0933 34.3437ZM12.0933 33.678C11.2766 33.678 10.6097 34.3885 10.6097 35.2561C10.6097 36.1237 11.2766 36.8342 12.0933 36.8342C12.91 36.8342 13.5769 36.1237 13.5769 35.2561C13.5769 34.3885 12.91 33.678 12.0933 33.678Z" fill="var(--fill-0, #2B2B2B)"/>
<path d="M15.3602 33.3639C15.8322 33.3639 16.2143 33.7753 16.2143 34.2763C16.2143 34.7774 15.8322 35.1888 15.3602 35.1888C14.8881 35.1888 14.506 34.7774 14.506 34.2763C14.506 33.7753 14.8881 33.3639 15.3602 33.3639ZM15.3602 32.6983C14.5434 32.6983 13.8766 33.4088 13.8766 34.2763C13.8766 35.1439 14.5434 35.8544 15.3602 35.8544C16.1769 35.8544 16.8437 35.1439 16.8437 34.2763C16.8437 33.4088 16.1769 32.6983 15.3602 32.6983Z" fill="var(--fill-0, #2B2B2B)"/>
<path d="M8.82647 33.3639C9.29851 33.3639 9.68064 33.7753 9.68064 34.2763C9.68064 34.7774 9.29851 35.1888 8.82647 35.1888C8.35443 35.1888 7.9723 34.7774 7.9723 34.2763C7.9723 33.7753 8.35443 33.3639 8.82647 33.3639ZM8.82647 32.6983C8.00976 32.6983 7.3429 33.4088 7.3429 34.2763C7.3429 35.1439 8.00976 35.8544 8.82647 35.8544C9.64318 35.8544 10.31 35.1439 10.31 34.2763C10.31 33.4088 9.64318 32.6983 8.82647 32.6983Z" fill="var(--fill-0, #2B2B2B)"/>
<path d="M1.41613 7.84549C0.636885 7.84549 0 8.5186 0 9.34877V30.305C0 30.5219 0.0449566 30.7313 0.127377 30.9257C1.81325 34.8747 6.2115 39.5565 11.8835 40.4839C11.9509 40.4989 12.0259 40.4989 12.1008 40.4989C12.1757 40.4989 12.2432 40.4989 12.3181 40.4839C17.9901 39.5565 22.3884 34.8747 24.0742 30.9257C24.1567 30.7313 24.2016 30.5219 24.2016 30.305V9.34877C24.2016 8.5186 23.5647 7.84549 22.7855 7.84549H1.41613ZM23.4823 30.3125C23.4823 30.4172 23.4598 30.5294 23.4224 30.6266C21.8114 34.4035 17.6155 38.8685 12.2057 39.751C12.1682 39.751 12.1308 39.7585 12.1008 39.7585C12.0708 39.7585 12.0259 39.7585 11.9959 39.751C6.58613 38.8685 2.39019 34.396 0.779247 30.6266C0.73429 30.5294 0.719305 30.4247 0.719305 30.3125V9.34877C0.719305 8.92995 1.034 8.59339 1.42362 8.59339H22.7855C23.1751 8.59339 23.4898 8.92995 23.4898 9.34877V30.305L23.4823 30.3125Z" fill="var(--fill-0, #2B2B2B)"/>
<path d="M18.3797 3.44783L13.0449 3.62732C12.895 3.6348 12.7677 3.50018 12.7752 3.33564L12.9999 0L12.3406 0.76286C12.2057 0.919919 11.9734 0.919919 11.8311 0.76286L11.1717 0L11.3965 3.33564C11.404 3.50018 11.2841 3.6348 11.1267 3.62732L5.7919 3.44783L6.45876 4.03119C6.61611 4.17329 6.63109 4.42758 6.47374 4.58464L5.78441 5.27271L11.1267 5.07825C11.2766 5.07078 11.404 5.19792 11.3965 5.35498L11.1567 8.48121L11.8086 8.31667C11.9435 8.15213 12.1832 8.15213 12.3256 8.31667L12.9775 8.48121L12.7377 5.35498C12.7377 5.19792 12.8576 5.0633 13.0074 5.07825L18.3498 5.27271L17.6604 4.58464C17.5106 4.43506 17.5181 4.17329 17.6754 4.03119L18.3423 3.44783H18.3797Z" fill="var(--fill-0, #2B2B2B)"/>
<path d="M23.4673 28.9139C23.3175 28.8167 23.0927 28.6671 22.808 28.4951C22.5157 28.323 22.1636 28.1136 21.7515 27.8967C21.3319 27.6799 20.8598 27.4405 20.3279 27.2236C20.0881 27.1189 19.8408 27.0217 19.5786 26.917L18.9792 25.4661H5.21496L4.60805 26.917C4.3458 27.0142 4.09854 27.1189 3.85877 27.2236C3.32678 27.448 2.84725 27.6799 2.43515 27.8967C2.22535 28.0089 2.03054 28.1136 1.8582 28.2109C1.68587 28.3156 1.52103 28.4053 1.37867 28.4951C1.08645 28.6671 0.86916 28.8167 0.719305 28.9139C0.56945 29.0186 0.487029 29.0709 0.487029 29.0709C0.487029 29.0709 0.839189 28.9289 1.46109 28.6746C1.76829 28.5549 2.15042 28.4128 2.57751 28.2557C3.01209 28.1062 3.50661 27.9416 4.0386 27.7771C4.30834 27.6948 4.58557 27.6125 4.88528 27.5378C5.1775 27.4555 5.47721 27.3807 5.7919 27.3059C6.2115 27.2012 6.64608 27.1189 7.09564 27.0292C7.31293 26.9918 7.53772 26.9469 7.7625 26.9095C8.45183 26.8048 9.16364 26.7076 9.89044 26.6552C10.0703 26.6403 10.2576 26.6253 10.4374 26.6104C10.6172 26.6029 10.8046 26.5954 10.9844 26.5879C11.1717 26.5879 11.3515 26.573 11.5388 26.5655H12.6403L13.2022 26.5879C13.5844 26.5954 13.929 26.6328 14.2962 26.6552C14.6558 26.6926 15.0155 26.7225 15.3751 26.7674C15.7273 26.8198 16.0795 26.8572 16.4241 26.917C16.5965 26.9469 16.7688 26.9768 16.9336 26.9993C16.9861 27.0067 17.046 27.0217 17.0985 27.0292C17.2109 27.0516 17.3233 27.0741 17.4282 27.0965C17.7578 27.1563 18.08 27.2386 18.3947 27.3059C19.0166 27.463 19.6085 27.6125 20.1405 27.7771C20.4103 27.8593 20.665 27.9416 20.9123 28.0239C21.1596 28.0987 21.3843 28.1809 21.6091 28.2557C22.0437 28.4128 22.4183 28.5549 22.7255 28.6746C23.0327 28.8017 23.28 28.8915 23.4448 28.9662C23.6097 29.0336 23.6996 29.0709 23.6996 29.0709C23.6996 29.0709 23.6172 29.0186 23.4673 28.9139Z" fill="var(--fill-0, #2B2B2B)"/>
<path d="M12.7302 16.7829L12.2432 16.409C12.1383 16.3342 12.0034 16.3342 11.906 16.409L11.419 16.7829C11.344 16.8428 11.2991 16.9325 11.2991 17.0372V20.7917C11.2991 20.9637 11.4265 21.1058 11.5913 21.1058H12.5654C12.7302 21.1058 12.8576 20.9637 12.8576 20.7917V17.0372C12.8576 16.94 12.8126 16.8428 12.7377 16.7829H12.7302ZM12.2656 20.4776H11.876V17.1943L12.0708 17.0447L12.2656 17.1943V20.4776ZM9.46336 19.2959L8.97633 18.9219C8.87143 18.8471 8.73656 18.8471 8.63915 18.9219L8.15212 19.2959C8.07719 19.3557 8.03224 19.4455 8.03224 19.5502V20.7917C8.03224 20.9637 8.15961 21.1058 8.32446 21.1058H9.29851C9.46336 21.1058 9.59073 20.9637 9.59073 20.7917V19.5502C9.59073 19.4529 9.54578 19.3557 9.47085 19.2959H9.46336ZM8.9988 20.4776H8.60918V19.7072L8.80399 19.5576L8.9988 19.7072V20.4776ZM9.46336 22.4071L8.97633 22.0332C8.87143 21.9584 8.73656 21.9584 8.63915 22.0332L8.15212 22.4071C8.07719 22.467 8.03224 22.5567 8.03224 22.6614V23.9029C8.03224 24.075 8.15961 24.2171 8.32446 24.2171H9.29851C9.46336 24.2171 9.59073 24.075 9.59073 23.9029V22.6614C9.59073 22.5642 9.54578 22.467 9.47085 22.4071H9.46336ZM8.9988 23.5963H8.60918V22.826L8.80399 22.6764L8.9988 22.826V23.5963ZM14.5509 19.5502V20.7917C14.5509 20.9637 14.6783 21.1058 14.8432 21.1058H15.8172C15.9821 21.1058 16.1094 20.9637 16.1094 20.7917V19.5502C16.1094 19.4529 16.0645 19.3557 15.9895 19.2959L15.5025 18.9219C15.3976 18.8471 15.2628 18.8471 15.1653 18.9219L14.6783 19.2959C14.6034 19.3557 14.5584 19.4455 14.5584 19.5502H14.5509ZM15.1354 19.7072L15.3302 19.5576L15.525 19.7072V20.4776H15.1354V19.7072ZM15.997 22.4071L15.51 22.0332C15.4051 21.9584 15.2702 21.9584 15.1728 22.0332L14.6858 22.4071C14.6109 22.467 14.5659 22.5567 14.5659 22.6614V23.9029C14.5659 24.075 14.6933 24.2171 14.8581 24.2171H15.8322C15.997 24.2171 16.1244 24.075 16.1244 23.9029V22.6614C16.1244 22.5642 16.0795 22.467 16.0045 22.4071H15.997ZM15.5325 23.5963H15.1429V22.826L15.3377 22.6764L15.5325 22.826V23.5963ZM14.5884 11.1437C14.7532 11.1437 14.8806 11.0016 14.8806 10.8296V10.3958C14.8806 10.2238 14.7532 10.0817 14.5884 10.0817C14.4236 10.0817 14.2962 10.2238 14.2962 10.3958V10.8296C14.2962 11.0016 14.4236 11.1437 14.5884 11.1437ZM9.55327 11.1437C9.71811 11.1437 9.84549 11.0016 9.84549 10.8296V10.3958C9.84549 10.2238 9.71811 10.0817 9.55327 10.0817C9.38843 10.0817 9.26105 10.2238 9.26105 10.3958V10.8296C9.26105 11.0016 9.38843 11.1437 9.55327 11.1437ZM18.1774 14.9655C18.3423 14.9655 18.4697 14.8234 18.4697 14.6514V14.2176C18.4697 14.0456 18.3423 13.9035 18.1774 13.9035C18.0126 13.9035 17.8852 14.0456 17.8852 14.2176V14.6514C17.8852 14.8234 18.0126 14.9655 18.1774 14.9655ZM18.8892 15.9602L18.4022 15.3469C18.3498 15.2796 18.2673 15.2348 18.1774 15.2348C18.0875 15.2348 18.0126 15.2722 17.9527 15.3469L17.4656 15.9602C17.4207 16.0201 17.3982 16.0874 17.3982 16.1622V18.0618L15.3676 16.4838V12.3703C15.3676 12.2955 15.3452 12.2282 15.3002 12.1684L14.8132 11.5551C14.7607 11.4878 14.6783 11.4429 14.5884 11.4429C14.4985 11.4429 14.4236 11.4803 14.3636 11.5551L13.8766 12.1684C13.8316 12.2282 13.8092 12.2955 13.8092 12.3703V15.2647L12.2432 14.0456C12.1383 13.9633 12.0034 13.9633 11.8985 14.0456L10.3325 15.2647V12.3703C10.3325 12.2955 10.31 12.2282 10.2651 12.1684L9.77805 11.5551C9.7256 11.4878 9.64318 11.4429 9.55327 11.4429C9.46336 11.4429 9.38843 11.4803 9.32848 11.5551L8.84146 12.1684C8.7965 12.2282 8.77402 12.2955 8.77402 12.3703V16.4763L6.74348 18.0618V16.1622C6.74348 16.0874 6.721 16.0201 6.67605 15.9602L6.18902 15.3469C6.13657 15.2796 6.05415 15.2348 5.96424 15.2348C5.87432 15.2348 5.7994 15.2722 5.73945 15.3469L5.25242 15.9602C5.20747 16.0201 5.18499 16.0874 5.18499 16.1622V25.6156C5.18499 25.7877 5.31237 25.9298 5.47721 25.9298H11.5164V23.3944L12.0783 22.9681L12.6403 23.3944V25.9298H18.6794C18.8443 25.9298 18.9717 25.7877 18.9717 25.6156V16.1622C18.9717 16.0874 18.9492 16.0201 18.9042 15.9602H18.8892ZM6.15905 25.309H5.76942V16.2818L5.96424 16.035L6.15905 16.2818V25.309ZM13.2172 25.309V23.2373C13.2172 23.1401 13.1723 23.0429 13.0973 22.983L12.2432 22.3324C12.1383 22.2576 12.0034 22.2576 11.906 22.3324L11.0518 22.983C10.9769 23.0429 10.9319 23.1326 10.9319 23.2373V25.309H6.75098V18.8397L9.24606 16.8951C9.32099 16.8353 9.36595 16.7455 9.36595 16.6408V12.49L9.56076 12.2432L9.75557 12.49V15.878C9.75557 15.9976 9.81551 16.1023 9.91292 16.1547C10.0103 16.207 10.1302 16.1996 10.2201 16.1248L12.0783 14.6813L13.9365 16.1322C14.0264 16.1996 14.1463 16.2145 14.2437 16.1622C14.3411 16.1098 14.4011 16.0051 14.4011 15.8854V12.49L14.5959 12.2432L14.7907 12.49V16.6408C14.7907 16.738 14.8357 16.8353 14.9106 16.8951L17.4057 18.8397V25.309H13.2172ZM18.3722 25.309H17.9826V16.2818L18.1774 16.035L18.3722 16.2818V25.309ZM5.96424 14.9655C6.12908 14.9655 6.25645 14.8234 6.25645 14.6514V14.2176C6.25645 14.0456 6.12908 13.9035 5.96424 13.9035C5.7994 13.9035 5.67202 14.0456 5.67202 14.2176V14.6514C5.67202 14.8234 5.7994 14.9655 5.96424 14.9655Z" fill="var(--fill-0, #2B2B2B)"/>
</g>
</svg>
